<svg width="76" height="76" viewBox="0 0 76 76" fill="none" xmlns="http://www.w3.org/2000/svg">
<path d="M16.3311 47.2852C19.75 47.2852 22.5216 44.5137 22.5216 41.0948C22.5216 37.6759 19.75 34.9043 16.3311 34.9043C12.9122 34.9043 10.1406 37.6759 10.1406 41.0948C10.1406 44.5137 12.9122 47.2852 16.3311 47.2852Z" fill="#FFA726"/>
<path d="M59.6631 47.2852C63.082 47.2852 65.8536 44.5137 65.8536 41.0948C65.8536 37.6759 63.082 34.9043 59.6631 34.9043C56.2442 34.9043 53.4727 37.6759 53.4727 41.0948C53.4727 44.5137 56.2442 47.2852 59.6631 47.2852Z" fill="#FFA726"/>
<path d="M61.2137 30.2618C61.2137 10.6071 14.7852 17.4166 14.7852 30.2618V45.738C14.7852 58.5832 25.1542 68.9523 37.9994 68.9523C50.8447 68.9523 61.2137 58.5832 61.2137 45.738V30.2618Z" fill="#FFB74D"/>
<path d="M37.997 5.5C23.4494 5.5 11.6875 17.2619 11.6875 31.8095V37.0714L14.7827 39.5476V34.9048L47.2827 19.7381L61.2113 34.9048V39.5476L64.3065 37.0714V31.8095C64.3065 19.4286 55.4851 5.5 37.997 5.5Z" fill="#EB1747"/>
<path d="M48.8335 44.1905C50.543 44.1905 51.9288 42.8047 51.9288 41.0952C51.9288 39.3858 50.543 38 48.8335 38C47.1241 38 45.7383 39.3858 45.7383 41.0952C45.7383 42.8047 47.1241 44.1905 48.8335 44.1905Z" fill="#784719"/>
<path d="M27.1656 44.1905C28.875 44.1905 30.2608 42.8047 30.2608 41.0952C30.2608 39.3858 28.875 38 27.1656 38C25.4561 38 24.0703 39.3858 24.0703 41.0952C24.0703 42.8047 25.4561 44.1905 27.1656 44.1905Z" fill="#784719"/>
<path d="M67.4014 38.0007C66.4728 38.0007 65.8538 38.6198 65.8538 39.5484V28.715C65.8538 15.096 54.7109 3.95312 41.0919 3.95312H30.2586C29.33 3.95312 28.7109 4.57217 28.7109 5.50074C28.7109 6.42932 29.33 7.04836 30.2586 7.04836H41.0919C53.0086 7.04836 62.7586 16.7984 62.7586 28.715V44.1912C62.7586 45.1198 63.3776 45.7388 64.3062 45.7388C65.2347 45.7388 65.8538 45.1198 65.8538 44.1912V47.2865C65.8538 53.3222 61.0562 58.1198 55.0205 58.1198H37.9967C37.0681 58.1198 36.449 58.7388 36.449 59.6674C36.449 60.596 37.0681 61.215 37.9967 61.215H55.0205C62.7586 61.215 68.949 55.0246 68.949 47.2865V39.5484C68.949 38.6198 68.33 38.0007 67.4014 38.0007Z" fill="#757575"/>
<path d="M67.4007 34.9043H65.8531C64.1507 34.9043 62.7578 36.2972 62.7578 37.9995V44.19C62.7578 45.8924 64.1507 47.2852 65.8531 47.2852H67.4007C69.1031 47.2852 70.4959 45.8924 70.4959 44.19V37.9995C70.4959 36.2972 69.1031 34.9043 67.4007 34.9043Z" fill="#2D2D2D"/>
<path d="M37.9976 62.7608C39.707 62.7608 41.0928 61.375 41.0928 59.6655C41.0928 57.9561 39.707 56.5703 37.9976 56.5703C36.2881 56.5703 34.9023 57.9561 34.9023 59.6655C34.9023 61.375 36.2881 62.7608 37.9976 62.7608Z" fill="#2D2D2D"/>
</svg>
