<svg width="70" height="70" viewBox="0 0 70 70" fill="none" xmlns="http://www.w3.org/2000/svg">
<g clip-path="url(#clip0_1191_27267)">
<path d="M18.4003 59.8591L19.5301 60.4227C24.2382 63.24 29.5108 64.5548 34.7837 64.5548C51.3552 64.5548 64.9137 51.0315 64.9137 34.503C64.9137 26.6145 61.7122 18.9136 56.063 13.2788C50.4136 7.64405 42.8809 4.45117 34.7837 4.45117C18.2121 4.45117 4.65335 17.9745 4.84178 34.6909C4.84178 40.3254 6.5366 45.7726 9.3612 50.4679L10.1144 51.595L7.10163 62.6767L18.4003 59.8591Z" fill="#00E676"/>
<path d="M59.2631 10.2733C52.8605 3.69963 44.0098 0.130859 34.9707 0.130859C15.763 0.130859 0.321245 15.7202 0.509408 34.6903C0.509408 40.7007 2.20422 46.5235 5.02909 51.7824L0.132812 69.6257L18.3992 64.9301C23.4836 67.7476 29.1328 69.0624 34.7825 69.0624C53.8021 69.0624 69.2438 53.4728 69.2438 34.5029C69.2438 25.2994 65.6658 16.6594 59.2634 10.2733H59.2631ZM34.9707 63.2399C29.8863 63.2399 24.8018 61.9254 20.4706 59.2958L19.3408 58.7322L8.41872 61.5495L11.2433 50.8437L10.4901 49.7166C2.20422 36.3813 6.15888 18.7254 19.7174 10.461C33.2759 2.19689 50.7891 6.14127 59.075 19.6646C67.3606 33.1879 63.4059 50.6555 49.8477 58.9199C45.5162 61.7372 40.2436 63.2396 34.9707 63.2396V63.2399ZM51.5422 42.3917L49.4708 41.4525C49.4708 41.4525 46.4581 40.1377 44.5748 39.1985C44.3864 39.1985 44.1982 39.0106 44.0098 39.0106C43.4448 39.0106 43.0682 39.1985 42.6916 39.3865C42.6916 39.3865 42.5034 39.5742 39.867 42.5794C39.6785 42.955 39.302 43.1429 38.9254 43.1429H38.7369C38.5488 43.1429 38.1722 42.955 37.9837 42.7673L37.0421 42.3917C34.9707 41.4525 33.0877 40.3254 31.5811 38.8229C31.2045 38.4473 30.6395 38.0717 30.2629 37.6961C28.9446 36.3813 27.6264 34.8785 26.6851 33.1881L26.4966 32.8125C26.3085 32.6246 26.3085 32.4369 26.12 32.0613C26.12 31.6857 26.12 31.31 26.3085 31.1221C26.3085 31.1221 27.0617 30.1829 27.6264 29.6196C28.0033 29.2437 28.1915 28.6804 28.568 28.3048C28.9446 27.7413 29.1331 26.99 28.9446 26.4265C28.7565 25.4873 26.4966 20.4161 25.9319 19.2892C25.555 18.7257 25.1787 18.538 24.6137 18.35H22.5423C22.1654 18.35 21.7891 18.538 21.4122 18.538L21.2238 18.7257C20.8472 18.9136 20.4706 19.2892 20.094 19.4769C19.7174 19.8528 19.529 20.2281 19.1524 20.604C17.8341 22.2944 17.0809 24.3604 17.0809 26.4265C17.0809 27.9289 17.4575 29.4317 18.0226 30.7465L18.211 31.31C19.9058 34.8785 22.1654 38.0717 25.1787 40.8889L25.9319 41.6402C26.4966 42.2037 27.0617 42.5794 27.4383 43.1426C31.3929 46.5237 35.9123 48.9654 40.9968 50.2802C41.5618 50.4679 42.315 50.4679 42.88 50.6558H44.763C45.7046 50.6558 46.8344 50.2802 47.5879 49.9046C48.1526 49.5289 48.5292 49.5289 48.9058 49.1533L49.2827 48.7774C49.6593 48.4018 50.0359 48.2142 50.4125 47.8385C50.7891 47.4629 51.1656 47.0873 51.3541 46.7114C51.7307 45.9602 51.9188 45.021 52.1073 44.0821V42.7673C52.1073 42.7673 51.9188 42.5794 51.5422 42.3917V42.3917Z" fill="white"/>
</g>
<defs>
<clipPath id="clip0_1191_27267">
<rect width="69.1099" height="69.7382" fill="white" transform="translate(0.132812 0.130859)"/>
</clipPath>
</defs>
</svg>
