<svg width="36" height="36" viewBox="0 0 36 36" fill="none" xmlns="http://www.w3.org/2000/svg">
<path d="M14.625 9.99023V11.8915H35.9803C35.9505 11.2784 35.8864 10.5032 35.6569 9.99023" fill="#EC1C24"/>
<path d="M34.65 8.08887H14.625V9.99012H35.6569C35.4285 9.2808 35.0887 8.63393 34.65 8.08887Z" fill="#E6E7E8"/>
<path d="M30.375 6.1875H14.625V8.08875H34.65C33.7112 6.91313 32.166 6.1875 30.375 6.1875Z" fill="#EC1C24"/>
<path d="M35.9803 11.8916H14.625V13.7929H36V12.5255C36 12.4125 35.9927 12.3022 35.9893 12.1914C35.9871 12.161 35.9837 12.0829 35.9803 11.8916Z" fill="#E6E7E8"/>
<path d="M14.625 15.6942H36V13.793H14.625V15.6942Z" fill="#EC1C24"/>
<path d="M14.625 17.5946H36V15.6934H14.625V17.5946Z" fill="#E6E7E8"/>
<path d="M14.625 17.5947H36V19.496H14.625V17.5947Z" fill="#EC1C24"/>
<path d="M0 19.4961V21.3973H36V19.4961H14.625H0Z" fill="#E6E7E8"/>
<path d="M0 21.3975H36V23.2987H0V21.3975Z" fill="#EC1C24"/>
<path d="M0.0028125 24.4683C0.0028125 24.4683 -0.00225 24.929 0.01125 25.2001H35.9888C36.0045 24.9222 35.9972 24.4683 35.9972 24.4683L36 23.2988H0L0.0028125 24.4683Z" fill="#E6E7E8"/>
<path d="M5.62492 30.9379H30.3749C32.171 30.9379 33.6639 30.2854 34.6837 29.0029H1.31055C2.36355 30.3136 3.88455 30.9379 5.62211 30.9379" fill="#EC1C24"/>
<path d="M1.31297 29.0028H34.6861C35.131 28.4375 35.4633 27.7921 35.6648 27.1016H0.339844C0.545211 27.79 0.876083 28.4346 1.31578 29.0028" fill="#E6E7E8"/>
<path d="M0.337969 27.1014H35.663C35.8472 26.483 35.9567 25.8447 35.9892 25.2002H0.0117188C0.0674062 25.8504 0.119156 26.3415 0.337969 27.1014Z" fill="#EC1C24"/>
<path d="M14.625 6.1875H5.625C1.89731 6.1875 0 8.95781 0 12.375V19.4963H14.625V6.1875Z" fill="#176496"/>
<path d="M1.57342 9.54942L1.87942 9.3143L2.18486 9.54942L2.06617 9.17142L2.37048 8.94023H1.99473L1.8783 8.56055L1.76242 8.94023H1.38723L1.69267 9.17142L1.57342 9.54942ZM3.59505 9.54942L3.90105 9.3143L4.20648 9.54942L4.08836 9.17142L4.39211 8.94023H4.01692L3.90048 8.56055L3.78461 8.94023H3.4083L3.71373 9.17142L3.59505 9.54942ZM5.82536 9.54942L6.1308 9.3143L6.4368 9.54942L6.31811 9.17142L6.62186 8.94023H6.24892L6.1308 8.56055L6.01436 8.94023H5.64142L5.94348 9.17142L5.82536 9.54942ZM8.03936 9.54942L8.3448 9.3143L8.6508 9.54942L8.53267 9.17142L8.83642 8.94023H8.45955L8.3448 8.56055L8.22892 8.94023H7.85317L8.15805 9.17142L8.03936 9.54942ZM10.2612 9.54942L10.5672 9.3143L10.8727 9.54942L10.7545 9.17142L11.0589 8.94023H10.6825L10.5667 8.56055L10.4508 8.94023H10.0756L10.3794 9.17142L10.2612 9.54942ZM2.64948 10.5366L2.95492 10.302L3.26036 10.5366L3.1428 10.1592L3.44655 9.92798H3.0708L2.95436 9.54886L2.84017 9.92798H2.4633L2.76761 10.1592L2.64948 10.5366ZM4.67167 10.5366L4.97711 10.302L5.28255 10.5366L5.16442 10.1592L5.46817 9.92798H5.09017L4.97711 9.54886L4.86067 9.92798H4.48548L4.7898 10.1592L4.67167 10.5366ZM6.90198 10.5366L7.20686 10.302L7.5123 10.5366L7.39417 10.1592L7.69848 9.92798H7.3233L7.20686 9.54886L7.09042 9.92798H6.71467L7.01898 10.1592L6.90198 10.5366ZM9.11486 10.5366L9.42086 10.302L9.72686 10.5366L9.60705 10.1592L9.91192 9.92798H9.53673L9.4203 9.54886L9.30498 9.92798H8.92923L9.23355 10.1592L9.11486 10.5366ZM11.3395 10.5366L11.6427 10.302L11.9482 10.5366L11.8289 10.1592L12.1338 9.92798H11.7592L11.6422 9.54886L11.5269 9.92798H11.1511L11.4554 10.1592L11.3395 10.5366ZM12.5922 9.54942L12.8977 9.3143L13.2037 9.54942L13.085 9.17142L13.3887 8.94023H13.0158L12.8971 8.56055L12.7812 8.94023H12.4027L12.7104 9.17142L12.5922 9.54942ZM1.54361 17.4492L1.84961 17.2169L2.15505 17.4492L2.03692 17.0745L2.34067 16.8428L1.96548 16.8439L1.84848 16.4648L1.73373 16.8439L1.35742 16.8428L1.66173 17.0745L1.54361 17.4492ZM3.5658 17.4492L3.87123 17.2169L4.17723 17.4492L4.05855 17.0745L4.3623 16.8428L3.98767 16.8439L3.87067 16.4648L3.75536 16.8439L3.38017 16.8428L3.68392 17.0745L3.5658 17.4492ZM5.79611 17.4492L6.10155 17.2169L6.40755 17.4492L6.28886 17.0745L6.59261 16.8428L6.21517 16.8439L6.10098 16.4648L5.98511 16.8439L5.60992 16.8428L5.91423 17.0745L5.79611 17.4492ZM8.01011 17.4492L8.31555 17.2169L8.62098 17.4492L8.50455 17.0745L8.80661 16.8428L8.43086 16.8439L8.31498 16.4648L8.19911 16.8439L7.82392 16.8428L8.12767 17.0745L8.01011 17.4492ZM10.2314 17.4492L10.5374 17.2169L10.8434 17.4492L10.7264 17.0745L11.0285 16.8428L10.6533 16.8439L10.5369 16.4648L10.4215 16.8439L10.0458 16.8428L10.3495 17.0745L10.2314 17.4492ZM12.5624 17.4492L12.8679 17.2169L13.1739 17.4492L13.0552 17.0745L13.3595 16.8428L12.982 16.8439L12.8673 16.4648L12.7514 16.8439L12.3745 16.8428L12.6805 17.0745L12.5624 17.4492ZM1.57342 11.5249L1.87942 11.2898L2.18486 11.5249L2.06617 11.1469L2.37048 10.9157L1.99473 10.9169L1.8783 10.5366L1.76242 10.9169L1.38723 10.9157L1.69267 11.1469L1.57342 11.5249ZM3.59505 11.5249L3.90105 11.2898L4.20648 11.5249L4.08836 11.1469L4.39211 10.9157L4.01692 10.9169L3.90048 10.5366L3.78461 10.9169L3.4083 10.9157L3.71373 11.1469L3.59505 11.5249ZM5.82536 11.5249L6.1308 11.2898L6.4368 11.5249L6.31811 11.1469L6.62186 10.9157L6.24892 10.9169L6.1308 10.5366L6.01436 10.9169L5.64142 10.9157L5.94348 11.1469L5.82536 11.5249ZM8.03936 11.5249L8.3448 11.2898L8.6508 11.5249L8.53267 11.1469L8.83642 10.9157L8.45955 10.9169L8.3448 10.5366L8.22892 10.9169L7.85317 10.9157L8.15805 11.1469L8.03936 11.5249ZM10.2612 11.5249L10.5672 11.2898L10.8727 11.5249L10.7545 11.1469L11.0589 10.9157L10.6825 10.9169L10.5667 10.5366L10.4508 10.9169L10.0756 10.9157L10.3794 11.1469L10.2612 11.5249ZM2.64948 12.5127L2.95492 12.2781L3.26036 12.5127L3.1428 12.1352L3.44655 11.9029H3.0708L2.95436 11.5249L2.84017 11.9029H2.4633L2.76761 12.1352L2.64948 12.5127ZM4.67167 12.5127L4.97711 12.2781L5.28255 12.5127L5.16442 12.1352L5.46817 11.9029H5.09017L4.97711 11.5249L4.86067 11.9029H4.48548L4.7898 12.1352L4.67167 12.5127ZM6.90198 12.5127L7.20686 12.2781L7.5123 12.5127L7.39417 12.1352L7.69848 11.9029H7.3233L7.20686 11.5249L7.09042 11.9029H6.71467L7.01898 12.1352L6.90198 12.5127ZM9.11486 12.5127L9.42086 12.2781L9.72686 12.5127L9.60705 12.1352L9.91192 11.9029H9.53673L9.4203 11.5249L9.30498 11.9029H8.92923L9.23355 12.1352L9.11486 12.5127ZM11.3395 12.5127L11.6427 12.2781L11.9482 12.5127L11.8289 12.1352L12.1338 11.9029H11.7592L11.6422 11.5249L11.5269 11.9029H11.1511L11.4554 12.1352L11.3395 12.5127ZM12.5922 11.5249L12.8977 11.2898L13.2037 11.5249L13.085 11.1469L13.3887 10.9157L13.0158 10.9169L12.8971 10.5366L12.7812 10.9169L12.4027 10.9157L12.7104 11.1469L12.5922 11.5249ZM1.54361 13.5004L1.84961 13.2659L2.15505 13.5004L2.03636 13.1235L2.34067 12.8918L1.96492 12.8929L1.84848 12.5127L1.73373 12.8929L1.35742 12.8918L1.66173 13.1235L1.54361 13.5004ZM3.5658 13.5004L3.87123 13.2659L4.17723 13.5004L4.05855 13.1235L4.3623 12.8918L3.98767 12.8929L3.87067 12.5127L3.75536 12.8929L3.38017 12.8918L3.68336 13.1235L3.5658 13.5004ZM5.79611 13.5004L6.10155 13.2659L6.40698 13.5004L6.28886 13.1235L6.59261 12.8918L6.21517 12.8929L6.10098 12.5127L5.98511 12.8929L5.60992 12.8918L5.91423 13.1235L5.79611 13.5004ZM8.01011 13.5004L8.31498 13.2659L8.62098 13.5004L8.50455 13.1235L8.80661 12.8918L8.43086 12.8929L8.31498 12.5127L8.19911 12.8929L7.82392 12.8918L8.12767 13.1235L8.01011 13.5004ZM10.2314 13.5004L10.5374 13.2659L10.8429 13.5004L10.7264 13.1235L11.0285 12.8918L10.6527 12.8929L10.5369 12.5127L10.4215 12.8929L10.0458 12.8918L10.3495 13.1235L10.2314 13.5004ZM2.61967 14.4882L2.92511 14.2542L3.23055 14.4882L3.11298 14.1135L3.41617 13.8807H3.04042L2.92455 13.5004L2.80923 13.8807H2.43348L2.7378 14.1135L2.61967 14.4882ZM4.64186 14.4882L4.9473 14.2542L5.25273 14.4882L5.13461 14.1135L5.43836 13.8807H5.06205L4.94673 13.5004L4.83086 13.8807H4.45511L4.75998 14.1135L4.64186 14.4882ZM6.87273 14.4882L7.17705 14.2542L7.48305 14.4882L7.36267 14.1135L7.66867 13.8807H7.29348L7.17705 13.5004L7.06117 13.8807H6.68542L6.98973 14.1135L6.87273 14.4882ZM9.08392 14.4882L9.39105 14.2542L9.69705 14.4882L9.57892 14.1135L9.88211 13.8807H9.50692L9.39048 13.5004L9.27517 13.8807H8.89942L9.20374 14.1135L9.08392 14.4882ZM11.3058 14.4882L11.6129 14.2542L11.9189 14.4882L11.8002 14.1135L12.1051 13.8807H11.7299L11.6129 13.5004L11.497 13.8807H11.1213L11.4256 14.1135L11.3058 14.4882ZM12.5624 13.5004L12.8679 13.2659L13.1733 13.5004L13.0552 13.1235L13.3595 12.8918L12.982 12.8929L12.8673 12.5127L12.7514 12.8929L12.3745 12.8918L12.6805 13.1235L12.5624 13.5004ZM1.54361 15.4765L1.84961 15.2442L2.15505 15.4765L2.03636 15.099L2.34067 14.8673L1.96492 14.8684L1.84848 14.4882L1.73373 14.8684L1.35742 14.8673L1.66173 15.099L1.54361 15.4765ZM3.5658 15.4765L3.87123 15.2442L4.17723 15.4765L4.05855 15.099L4.3623 14.8673L3.98767 14.8684L3.87067 14.4882L3.75536 14.8684L3.38017 14.8673L3.68336 15.099L3.5658 15.4765ZM5.79611 15.4765L6.10155 15.2442L6.40698 15.4765L6.28886 15.099L6.59261 14.8673L6.21517 14.8684L6.10098 14.4882L5.98511 14.8684L5.60992 14.8673L5.91423 15.099L5.79611 15.4765ZM8.01011 15.4765L8.31498 15.2442L8.62098 15.4765L8.50455 15.099L8.80661 14.8673L8.43086 14.8684L8.31498 14.4882L8.19911 14.8684L7.82392 14.8673L8.12767 15.099L8.01011 15.4765ZM10.2314 15.4765L10.5374 15.2442L10.8429 15.4765L10.7264 15.099L11.0285 14.8673L10.6527 14.8684L10.5369 14.4882L10.4215 14.8684L10.0458 14.8673L10.3495 15.099L10.2314 15.4765ZM2.61967 16.4648L2.92511 16.2297L3.23055 16.4648L3.11298 16.0868L3.41617 15.8573H3.04042L2.92455 15.4765L2.80923 15.8573H2.43348L2.7378 16.0868L2.61967 16.4648ZM4.64186 16.4648L4.9473 16.2297L5.25273 16.4648L5.13461 16.0868L5.43836 15.8573H5.06205L4.94673 15.4765L4.83086 15.8573H4.45511L4.75998 16.0868L4.64186 16.4648ZM6.87273 16.4648L7.17705 16.2297L7.48305 16.4648L7.36267 16.0868L7.66867 15.8573H7.29348L7.17705 15.4765L7.06117 15.8573H6.68542L6.98973 16.0868L6.87273 16.4648ZM9.08392 16.4648L9.39105 16.2297L9.69705 16.4648L9.57892 16.0868L9.88211 15.8573H9.50692L9.39048 15.4765L9.27517 15.8573H8.89942L9.20374 16.0868L9.08392 16.4648ZM11.3058 16.4648L11.6129 16.2297L11.9189 16.4648L11.8002 16.0868L12.1051 15.8573H11.7299L11.6129 15.4765L11.497 15.8573H11.1213L11.4256 16.0868L11.3058 16.4648ZM12.5624 15.4765L12.8679 15.2442L13.1733 15.4765L13.0552 15.099L13.3595 14.8673L12.982 14.8684L12.8673 14.4882L12.7514 14.8684L12.3745 14.8673L12.6805 15.099L12.5624 15.4765Z" fill="white"/>
</svg>
