<svg width="34" height="34" viewBox="0 0 34 34" fill="none" xmlns="http://www.w3.org/2000/svg">
<g clip-path="url(#clip0_687_3872)">
<path d="M3.77778 4.72266C2.77585 4.72266 1.81496 5.12067 1.10649 5.82914C0.398015 6.53761 0 7.4985 0 8.50043L0 25.5004C0 26.5024 0.398015 27.4633 1.10649 28.1717C1.81496 28.8802 2.77585 29.2782 3.77778 29.2782H11.3333V4.72266H3.77778Z" fill="#D91023"/>
<path d="M11.3333 4.72266H22.6666V29.2782H11.3333V4.72266Z" fill="#EEEEEE"/>
<path d="M30.2223 4.72266H22.6667V29.2782H30.2223C31.2242 29.2782 32.1851 28.8802 32.8936 28.1717C33.6021 27.4633 34.0001 26.5024 34.0001 25.5004V8.50043C34.0001 7.4985 33.6021 6.53761 32.8936 5.82914C32.1851 5.12067 31.2242 4.72266 30.2223 4.72266Z" fill="#D91023"/>
</g>
<defs>
<clipPath id="clip0_687_3872">
<rect width="34" height="34" fill="white"/>
</clipPath>
</defs>
</svg>
