<svg width="195" height="59" viewBox="0 0 195 59" fill="none" xmlns="http://www.w3.org/2000/svg">
<path d="M31.5472 37.5877C30.7074 37.5877 29.9416 37.1677 29.563 36.5009L16.1349 12.7144C15.5866 11.7432 16.0304 10.5639 17.127 10.0821C18.2235 9.59653 19.555 9.98964 20.0989 10.9608L31.5429 31.2364L42.9868 10.9608C43.5351 9.98964 44.8666 9.59653 45.9588 10.0821C47.0553 10.5677 47.4992 11.747 46.9509 12.7144L33.5314 36.5009C33.1529 37.1677 32.387 37.5877 31.5472 37.5877Z" fill="#00C0EB"/>
<path d="M95.6987 37.5877H79.6728C78.4501 37.5877 77.458 36.709 77.458 35.6261V11.8357C77.458 10.7527 78.4501 9.87402 79.6728 9.87402C80.8956 9.87402 81.8877 10.7527 81.8877 11.8357V33.6606H95.6987C96.9215 33.6606 97.9136 34.5393 97.9136 35.6222C97.9136 36.7052 96.9258 37.5877 95.6987 37.5877Z" fill="#00C0EB"/>
<path d="M176.881 37.5877H156.121C154.898 37.5877 153.906 36.709 153.906 35.6261V11.8357C153.906 10.7527 154.898 9.87402 156.121 9.87402H176.881C178.104 9.87402 179.096 10.7527 179.096 11.8357C179.096 12.9186 178.104 13.7973 176.881 13.7973H158.336V33.6567H176.881C178.104 33.6567 179.096 34.5354 179.096 35.6184C179.096 36.7013 178.108 37.5877 176.881 37.5877Z" fill="#FFC70E"/>
<path d="M146.953 33.6606H128.408V27.8064H139.512C140.735 27.8064 141.727 26.9277 141.727 25.8448C141.727 24.7618 140.735 23.8831 139.512 23.8831H128.408V13.7973H146.953C148.176 13.7973 149.168 12.9186 149.168 11.8357C149.168 10.7527 148.176 9.87402 146.953 9.87402H126.193C124.97 9.87402 123.978 10.7527 123.978 11.8357V35.6222C123.978 36.7052 124.97 37.5839 126.193 37.5839H146.953C148.176 37.5839 149.168 36.7052 149.168 35.6222C149.168 34.5393 148.18 33.6606 146.953 33.6606Z" fill="#FFC70E"/>
<path d="M117.368 9.87402H92.5571C91.3344 9.87402 90.3423 10.7527 90.3423 11.8357C90.3423 12.9186 91.3344 13.7973 92.5571 13.7973H102.744V35.6222C102.744 36.7052 103.736 37.5839 104.958 37.5839C106.181 37.5839 107.173 36.7052 107.173 35.6222V13.7973H117.36C118.582 13.7973 119.574 12.9186 119.574 11.8357C119.574 10.7527 118.591 9.87402 117.368 9.87402Z" fill="#FFC70E"/>
<path d="M73.1677 34.7435L59.7395 10.9569C59.3653 10.2902 58.5951 9.87012 57.7553 9.87012C56.9155 9.87012 56.1497 10.2902 55.7711 10.9569L42.3473 34.7435C41.799 35.7147 42.2428 36.894 43.3394 37.3757C43.657 37.5183 43.9964 37.5838 44.3271 37.5838C45.1408 37.5838 45.9241 37.1869 46.3113 36.497L57.7553 16.2214L64.9915 29.0435H56.7284C55.5057 29.0435 54.5136 29.9222 54.5136 31.0051C54.5136 32.0881 55.5057 32.9668 56.7284 32.9668H67.2064L69.1949 36.4932C69.7432 37.4644 71.0747 37.8575 72.1669 37.3719C73.2721 36.894 73.7159 35.7147 73.1677 34.7435Z" fill="#00C0EB"/>
<path d="M58.5735 44.2512C58.4952 44.2512 58.4299 44.2281 58.3777 44.1857C58.3255 44.1395 58.3037 44.0816 58.3037 44.0123C58.3037 43.9429 58.3298 43.8851 58.3777 43.8389C58.4299 43.7926 58.4952 43.7695 58.5735 43.7695H61.602C61.6803 43.7695 61.7456 43.7926 61.7978 43.8389C61.85 43.8851 61.8761 43.9429 61.8761 44.0123C61.8761 44.0816 61.85 44.1395 61.7978 44.1857C61.7456 44.232 61.6803 44.2512 61.602 44.2512H58.5735ZM60.0877 47.6812C60.0051 47.6812 59.9355 47.6543 59.8789 47.6042C59.8223 47.5541 59.7919 47.4924 59.7919 47.4192V43.7656H60.3793V47.4192C60.3793 47.4924 60.3532 47.5541 60.2966 47.6042C60.24 47.6543 60.1704 47.6812 60.0877 47.6812Z" fill="#2D2D2D"/>
<path d="M64.674 47.7622C64.3129 47.7622 63.9909 47.7044 63.7124 47.5849C63.4339 47.4655 63.2163 47.3036 63.0597 47.0916C62.903 46.8797 62.8247 46.6407 62.8247 46.3709V44.0316C62.8247 43.9545 62.8552 43.8929 62.9117 43.8428C62.9683 43.7965 63.0379 43.7695 63.1206 43.7695C63.2076 43.7695 63.2772 43.7927 63.3338 43.8428C63.386 43.8929 63.4165 43.9545 63.4165 44.0316V46.3709C63.4165 46.5521 63.4687 46.7101 63.5775 46.8488C63.6863 46.9876 63.8342 47.0955 64.0257 47.1726C64.2171 47.2496 64.4347 47.292 64.6784 47.292C64.9177 47.292 65.1266 47.2535 65.3093 47.1726C65.4921 47.0955 65.6357 46.9837 65.7401 46.8488C65.8445 46.7101 65.8967 46.5521 65.8967 46.3709V44.0316C65.8967 43.9545 65.9272 43.8929 65.9838 43.8428C66.0403 43.7965 66.1099 43.7695 66.1926 43.7695C66.2797 43.7695 66.3493 43.7927 66.4015 43.8428C66.4537 43.8929 66.4798 43.9545 66.4798 44.0316V46.3709C66.4798 46.6407 66.4058 46.8835 66.2492 47.0916C66.0969 47.3036 65.8837 47.4655 65.6139 47.5849C65.3354 47.7044 65.0265 47.7622 64.674 47.7622Z" fill="#2D2D2D"/>
<path d="M69.7 47.6813C69.5956 47.6813 69.5129 47.6427 69.4563 47.5618C69.3998 47.4809 69.3954 47.3961 69.4389 47.3074L71.0272 43.9468C71.0837 43.8312 71.1751 43.7695 71.3057 43.7695C71.4405 43.7695 71.5319 43.8273 71.5841 43.9468L73.1811 47.319C73.2246 47.4115 73.2159 47.4963 73.1637 47.5734C73.1071 47.6504 73.0288 47.6851 72.9156 47.6851C72.8591 47.6851 72.8069 47.6697 72.7546 47.6427C72.7024 47.6158 72.6676 47.5734 72.6459 47.5233L71.2447 44.4363H71.4014L69.9742 47.5233C69.948 47.5772 69.9089 47.6158 69.8567 47.6427C69.8044 47.6697 69.7522 47.6813 69.7 47.6813ZM70.0003 46.8219L70.2265 46.3902H72.4457L72.672 46.8219H70.0003Z" fill="#2D2D2D"/>
<path d="M74.4429 47.6812C74.3603 47.6812 74.2907 47.6543 74.2384 47.6042C74.1862 47.5541 74.1558 47.4924 74.1558 47.4192V44.0277C74.1558 43.9545 74.1862 43.8928 74.2428 43.8427C74.2994 43.7926 74.369 43.7656 74.4473 43.7656C74.53 43.7656 74.5996 43.7926 74.6562 43.8427C74.7127 43.8928 74.7388 43.9545 74.7388 44.0277V47.1571H76.7883C76.871 47.1571 76.9406 47.1802 76.9972 47.2303C77.0537 47.2804 77.0842 47.3421 77.0842 47.4153C77.0842 47.4885 77.0537 47.5502 76.9972 47.6003C76.9406 47.6504 76.871 47.6774 76.7883 47.6774H74.4429V47.6812Z" fill="#2D2D2D"/>
<path d="M78.3896 47.6812C78.307 47.6812 78.2373 47.6543 78.1808 47.6042C78.1242 47.5541 78.0938 47.4924 78.0938 47.4192V44.0277C78.0938 43.9506 78.1242 43.889 78.1808 43.8389C78.2373 43.7926 78.307 43.7656 78.3896 43.7656C78.4766 43.7656 78.5463 43.7887 78.6028 43.8389C78.655 43.889 78.6855 43.9506 78.6855 44.0277V47.4192C78.6855 47.4924 78.6594 47.5541 78.6028 47.6042C78.5463 47.6581 78.4723 47.6812 78.3896 47.6812Z" fill="#2D2D2D"/>
<path d="M79.9427 47.6813C79.8383 47.6813 79.7556 47.6427 79.699 47.5618C79.6425 47.4809 79.6381 47.3961 79.6816 47.3074L81.2699 43.9468C81.3264 43.8312 81.4178 43.7695 81.5483 43.7695C81.6832 43.7695 81.7746 43.8273 81.8268 43.9468L83.4238 47.319C83.4673 47.4115 83.4586 47.4963 83.4063 47.5734C83.3498 47.6504 83.2715 47.6851 83.1583 47.6851C83.1018 47.6851 83.0495 47.6697 82.9973 47.6427C82.9451 47.6158 82.9103 47.5734 82.8885 47.5233L81.4874 44.4363H81.6441L80.2168 47.5233C80.1907 47.5772 80.1516 47.6158 80.0993 47.6427C80.0471 47.6697 79.9949 47.6813 79.9427 47.6813ZM80.2429 46.8219L80.4692 46.3902H82.6884L82.9147 46.8219H80.2429Z" fill="#2D2D2D"/>
<path d="M84.6943 47.6812C84.6116 47.6812 84.542 47.6543 84.4855 47.6042C84.4289 47.5541 84.3984 47.4924 84.3984 47.4192V44.0277C84.3984 43.9506 84.4289 43.889 84.4855 43.8389C84.542 43.7926 84.6116 43.7656 84.6943 43.7656H85.7169C86.0432 43.7656 86.3348 43.8119 86.6002 43.9082C86.8656 44.0046 87.0963 44.1395 87.2921 44.3129C87.4879 44.4902 87.6402 44.6944 87.7446 44.9334C87.849 45.1723 87.9012 45.4344 87.9012 45.7196C87.9012 46.0048 87.849 46.2707 87.7446 46.5096C87.6402 46.7486 87.4879 46.9567 87.2921 47.1301C87.0963 47.3074 86.8656 47.4423 86.6002 47.5348C86.3348 47.6311 86.0389 47.6774 85.7169 47.6774H84.6943V47.6812ZM84.9902 47.2226H85.7212C86.0389 47.2226 86.3174 47.1571 86.561 47.0299C86.8047 46.9027 86.9962 46.7255 87.1354 46.4981C87.2747 46.2745 87.3443 46.0163 87.3443 45.7234C87.3443 45.4305 87.2747 45.1723 87.1354 44.9488C86.9962 44.7253 86.8047 44.548 86.561 44.4208C86.3174 44.2936 86.0389 44.232 85.7212 44.232H84.9902V47.2226Z" fill="#2D2D2D"/>
<path d="M91.1779 47.7317C90.8472 47.7317 90.5426 47.6816 90.2685 47.5853C89.9943 47.4889 89.755 47.3463 89.5592 47.169C89.359 46.9918 89.2067 46.7798 89.098 46.5331C88.9892 46.2865 88.9326 46.0167 88.9326 45.7238C88.9326 45.4309 88.9892 45.1612 89.098 44.9184C89.2067 44.6756 89.359 44.4636 89.5592 44.2863C89.7594 44.109 89.9943 43.9703 90.2685 43.8701C90.5426 43.7699 90.8472 43.7236 91.1779 43.7236C91.5086 43.7236 91.8132 43.7737 92.0873 43.8701C92.3614 43.9703 92.5964 44.109 92.7966 44.2863C92.9967 44.4636 93.149 44.6756 93.2622 44.9184C93.371 45.1612 93.4275 45.4309 93.4275 45.7238C93.4275 46.0167 93.371 46.2865 93.2622 46.5331C93.1534 46.7798 92.9967 46.9918 92.7966 47.169C92.5964 47.3463 92.3614 47.4851 92.0873 47.5853C91.8132 47.6816 91.5086 47.7317 91.1779 47.7317ZM91.1779 47.2615C91.4216 47.2615 91.6478 47.223 91.8523 47.1421C92.0569 47.065 92.2353 46.9532 92.3876 46.8183C92.5399 46.6796 92.653 46.5177 92.7357 46.3289C92.8183 46.14 92.8575 45.9396 92.8575 45.7238C92.8575 45.508 92.8183 45.3037 92.7357 45.1188C92.653 44.9338 92.5399 44.7681 92.3876 44.6293C92.2353 44.4906 92.0569 44.3827 91.8523 44.3056C91.6478 44.2285 91.4216 44.19 91.1779 44.19C90.9342 44.19 90.708 44.2285 90.5034 44.3056C90.2989 44.3827 90.1205 44.4906 89.9726 44.6293C89.8246 44.7681 89.7071 44.9299 89.6245 45.1188C89.5418 45.3076 89.4983 45.508 89.4983 45.7238C89.4983 45.9396 89.5418 46.1439 89.6245 46.3289C89.7071 46.5139 89.8246 46.6796 89.9726 46.8183C90.1205 46.9571 90.2989 47.065 90.5034 47.1421C90.708 47.223 90.9299 47.2615 91.1779 47.2615Z" fill="#2D2D2D"/>
<path d="M96.9087 47.6812C96.826 47.6812 96.7564 47.6543 96.6998 47.6042C96.6433 47.5541 96.6128 47.4924 96.6128 47.4192V44.0277C96.6128 43.9506 96.6433 43.889 96.6998 43.8389C96.7564 43.7926 96.826 43.7656 96.9087 43.7656H99.4672C99.5542 43.7656 99.6239 43.7887 99.6761 43.835C99.7283 43.8812 99.7544 43.9391 99.7544 44.0123C99.7544 44.0816 99.7283 44.1395 99.6761 44.1819C99.6239 44.2242 99.5542 44.2474 99.4672 44.2474H97.2046V45.4652H98.8276C98.9146 45.4652 98.9842 45.4883 99.0364 45.5346C99.0887 45.5808 99.1148 45.6386 99.1148 45.708C99.1148 45.7774 99.0887 45.8352 99.0364 45.8814C98.9842 45.9277 98.9146 45.9508 98.8276 45.9508H97.2046V47.2033H99.4672C99.5542 47.2033 99.6239 47.2265 99.6761 47.2689C99.7283 47.3113 99.7544 47.3691 99.7544 47.4384C99.7544 47.5117 99.7283 47.5695 99.6761 47.6157C99.6239 47.662 99.5542 47.6851 99.4672 47.6851H96.9087V47.6812Z" fill="#2D2D2D"/>
<path d="M101.169 47.6812C101.086 47.6812 101.016 47.6543 100.964 47.6042C100.912 47.5541 100.881 47.4924 100.881 47.4192V44.0277C100.881 43.9506 100.907 43.889 100.964 43.8389C101.021 43.7926 101.086 43.7656 101.169 43.7656C101.26 43.7656 101.334 43.7965 101.395 43.862L103.862 46.7678V44.0277C103.862 43.9506 103.888 43.889 103.945 43.8389C104.001 43.7926 104.071 43.7656 104.154 43.7656C104.241 43.7656 104.31 43.7887 104.362 43.8389C104.415 43.889 104.441 43.9506 104.441 44.0277V47.4192C104.441 47.4924 104.415 47.5541 104.362 47.6042C104.31 47.6543 104.241 47.6812 104.154 47.6812C104.114 47.6812 104.075 47.6735 104.032 47.6581C103.988 47.6427 103.953 47.6196 103.927 47.5887L101.46 44.6829V47.4192C101.46 47.4924 101.434 47.5541 101.377 47.6042C101.325 47.6581 101.251 47.6812 101.169 47.6812Z" fill="#2D2D2D"/>
<path d="M107.63 44.2512C107.552 44.2512 107.487 44.2281 107.434 44.1857C107.382 44.1395 107.36 44.0816 107.36 44.0123C107.36 43.9429 107.386 43.8851 107.434 43.8389C107.487 43.7926 107.552 43.7695 107.63 43.7695H110.659C110.737 43.7695 110.802 43.7926 110.854 43.8389C110.907 43.8851 110.933 43.9429 110.933 44.0123C110.933 44.0816 110.907 44.1395 110.854 44.1857C110.802 44.232 110.737 44.2512 110.659 44.2512H107.63ZM109.149 47.6812C109.066 47.6812 108.996 47.6543 108.94 47.6042C108.883 47.5541 108.853 47.4924 108.853 47.4192V43.7656H109.44V47.4192C109.44 47.4924 109.414 47.5541 109.358 47.6042C109.301 47.6543 109.231 47.6812 109.149 47.6812Z" fill="#2D2D2D"/>
<path d="M112.182 47.6812C112.099 47.6812 112.029 47.6543 111.973 47.6042C111.916 47.5541 111.886 47.4924 111.886 47.4192V44.0277C111.886 43.9506 111.916 43.889 111.973 43.8389C112.029 43.7926 112.099 43.7656 112.182 43.7656H114.74C114.827 43.7656 114.897 43.7887 114.949 43.835C115.001 43.8812 115.027 43.9391 115.027 44.0123C115.027 44.0816 115.001 44.1395 114.949 44.1819C114.897 44.2242 114.827 44.2474 114.74 44.2474H112.478V45.4652H114.101C114.188 45.4652 114.257 45.4883 114.309 45.5346C114.362 45.5808 114.388 45.6386 114.388 45.708C114.388 45.7774 114.362 45.8352 114.309 45.8814C114.257 45.9277 114.188 45.9508 114.101 45.9508H112.478V47.2033H114.74C114.827 47.2033 114.897 47.2265 114.949 47.2689C115.001 47.3113 115.027 47.3691 115.027 47.4384C115.027 47.5117 115.001 47.5695 114.949 47.6157C114.897 47.662 114.827 47.6851 114.74 47.6851H112.182V47.6812Z" fill="#2D2D2D"/>
<path d="M118.13 47.7317C117.826 47.7317 117.538 47.6816 117.273 47.5776C117.008 47.4774 116.777 47.3348 116.577 47.1536C116.377 46.9725 116.224 46.7567 116.111 46.5139C115.998 46.2711 115.946 46.0052 115.946 45.7238C115.946 45.4425 116.002 45.1804 116.111 44.9415C116.22 44.6987 116.377 44.4867 116.577 44.3056C116.777 44.1244 117.008 43.9818 117.269 43.8778C117.53 43.7737 117.821 43.7236 118.13 43.7236C118.422 43.7236 118.67 43.7583 118.879 43.8238C119.087 43.8894 119.296 44.0011 119.509 44.1553C119.54 44.1745 119.562 44.1977 119.579 44.2169C119.597 44.2401 119.605 44.2593 119.614 44.2825C119.618 44.3056 119.623 44.3287 119.623 44.3595C119.623 44.425 119.597 44.4752 119.544 44.5175C119.492 44.5599 119.431 44.5831 119.362 44.5869C119.292 44.5908 119.222 44.5715 119.153 44.5253C119.013 44.4173 118.87 44.3364 118.722 44.2786C118.574 44.2208 118.374 44.1938 118.13 44.1938C117.908 44.1938 117.699 44.2324 117.504 44.3133C117.308 44.3942 117.134 44.5021 116.986 44.6447C116.838 44.7835 116.72 44.9492 116.638 45.1342C116.555 45.3192 116.511 45.5157 116.511 45.7277C116.511 45.9396 116.555 46.14 116.638 46.325C116.72 46.51 116.838 46.6719 116.986 46.8145C117.134 46.9532 117.308 47.065 117.504 47.1421C117.699 47.2191 117.908 47.2577 118.13 47.2577C118.322 47.2577 118.504 47.2269 118.674 47.169C118.844 47.1112 119.009 47.0303 119.17 46.9262C119.24 46.8839 119.305 46.8646 119.37 46.8684C119.436 46.8723 119.492 46.8954 119.536 46.9378C119.579 46.9802 119.605 47.038 119.605 47.1112C119.605 47.1459 119.597 47.1768 119.583 47.2076C119.566 47.2384 119.544 47.2692 119.514 47.2962C119.309 47.4388 119.092 47.5467 118.861 47.62C118.631 47.697 118.387 47.7317 118.13 47.7317Z" fill="#2D2D2D"/>
<path d="M121.141 47.6812C121.059 47.6812 120.989 47.6543 120.937 47.6042C120.884 47.5541 120.854 47.4924 120.854 47.4192V44.0277C120.854 43.9506 120.88 43.889 120.937 43.8389C120.993 43.7926 121.059 43.7656 121.141 43.7656C121.233 43.7656 121.307 43.7965 121.367 43.862L123.835 46.7678V44.0277C123.835 43.9506 123.861 43.889 123.917 43.8389C123.974 43.7926 124.044 43.7656 124.126 43.7656C124.213 43.7656 124.283 43.7887 124.335 43.8389C124.387 43.889 124.413 43.9506 124.413 44.0277V47.4192C124.413 47.4924 124.387 47.5541 124.335 47.6042C124.283 47.6543 124.213 47.6812 124.126 47.6812C124.087 47.6812 124.048 47.6735 124.004 47.6581C123.961 47.6427 123.926 47.6196 123.9 47.5887L121.433 44.6829V47.4192C121.433 47.4924 121.407 47.5541 121.35 47.6042C121.298 47.6581 121.228 47.6812 121.141 47.6812Z" fill="#2D2D2D"/>
<path d="M127.894 47.7317C127.564 47.7317 127.259 47.6816 126.985 47.5853C126.711 47.4889 126.471 47.3463 126.276 47.169C126.075 46.9918 125.923 46.7798 125.814 46.5331C125.705 46.2865 125.649 46.0167 125.649 45.7238C125.649 45.4309 125.705 45.1612 125.814 44.9184C125.923 44.6756 126.075 44.4636 126.276 44.2863C126.476 44.109 126.711 43.9703 126.985 43.8701C127.259 43.7699 127.564 43.7236 127.894 43.7236C128.225 43.7236 128.529 43.7737 128.804 43.8701C129.078 43.9703 129.313 44.109 129.513 44.2863C129.713 44.4636 129.865 44.6756 129.978 44.9184C130.087 45.1612 130.144 45.4309 130.144 45.7238C130.144 46.0167 130.087 46.2865 129.978 46.5331C129.87 46.7798 129.713 46.9918 129.513 47.169C129.313 47.3463 129.078 47.4851 128.804 47.5853C128.529 47.6816 128.225 47.7317 127.894 47.7317ZM127.894 47.2615C128.138 47.2615 128.364 47.223 128.569 47.1421C128.773 47.065 128.952 46.9532 129.104 46.8183C129.256 46.6796 129.369 46.5177 129.452 46.3289C129.535 46.14 129.574 45.9396 129.574 45.7238C129.574 45.508 129.535 45.3037 129.452 45.1188C129.369 44.9338 129.256 44.7681 129.104 44.6293C128.952 44.4906 128.773 44.3827 128.569 44.3056C128.364 44.2285 128.138 44.19 127.894 44.19C127.651 44.19 127.424 44.2285 127.22 44.3056C127.015 44.3827 126.837 44.4906 126.689 44.6293C126.541 44.7681 126.423 44.9299 126.341 45.1188C126.258 45.3076 126.215 45.508 126.215 45.7238C126.215 45.9396 126.258 46.1439 126.341 46.3289C126.423 46.5139 126.541 46.6796 126.689 46.8183C126.837 46.9571 127.015 47.065 127.22 47.1421C127.424 47.223 127.651 47.2615 127.894 47.2615Z" fill="#2D2D2D"/>
<path d="M131.654 47.6812C131.571 47.6812 131.502 47.6543 131.449 47.6042C131.397 47.5541 131.367 47.4924 131.367 47.4192V44.0277C131.367 43.9545 131.397 43.8928 131.454 43.8427C131.51 43.7926 131.58 43.7656 131.658 43.7656C131.741 43.7656 131.811 43.7926 131.867 43.8427C131.924 43.8928 131.95 43.9545 131.95 44.0277V47.1571H133.999C134.082 47.1571 134.152 47.1802 134.208 47.2303C134.265 47.2804 134.295 47.3421 134.295 47.4153C134.295 47.4885 134.265 47.5502 134.208 47.6003C134.152 47.6504 134.082 47.6774 133.999 47.6774H131.654V47.6812Z" fill="#2D2D2D"/>
<path d="M137.345 47.7317C137.015 47.7317 136.71 47.6816 136.436 47.5853C136.162 47.4889 135.922 47.3463 135.727 47.169C135.527 46.9918 135.374 46.7798 135.265 46.5331C135.157 46.2865 135.1 46.0167 135.1 45.7238C135.1 45.4309 135.157 45.1612 135.265 44.9184C135.374 44.6756 135.527 44.4636 135.727 44.2863C135.927 44.109 136.162 43.9703 136.436 43.8701C136.71 43.7699 137.015 43.7236 137.345 43.7236C137.676 43.7236 137.981 43.7737 138.255 43.8701C138.529 43.9703 138.764 44.109 138.964 44.2863C139.164 44.4636 139.317 44.6756 139.43 44.9184C139.538 45.1612 139.595 45.4309 139.595 45.7238C139.595 46.0167 139.538 46.2865 139.43 46.5331C139.321 46.7798 139.164 46.9918 138.964 47.169C138.764 47.3463 138.529 47.4851 138.255 47.5853C137.981 47.6816 137.68 47.7317 137.345 47.7317ZM137.345 47.2615C137.589 47.2615 137.815 47.223 138.02 47.1421C138.224 47.065 138.403 46.9532 138.555 46.8183C138.707 46.6796 138.82 46.5177 138.903 46.3289C138.986 46.14 139.025 45.9396 139.025 45.7238C139.025 45.508 138.986 45.3037 138.903 45.1188C138.82 44.9338 138.707 44.7681 138.555 44.6293C138.403 44.4906 138.224 44.3827 138.02 44.3056C137.815 44.2285 137.589 44.19 137.345 44.19C137.102 44.19 136.875 44.2285 136.671 44.3056C136.466 44.3827 136.288 44.4906 136.14 44.6293C135.992 44.7681 135.875 44.9299 135.792 45.1188C135.709 45.3076 135.666 45.508 135.666 45.7238C135.666 45.9396 135.709 46.1439 135.792 46.3289C135.875 46.5139 135.992 46.6796 136.14 46.8183C136.288 46.9571 136.466 47.065 136.671 47.1421C136.875 47.223 137.102 47.2615 137.345 47.2615Z" fill="#2D2D2D"/>
<path d="M142.798 47.7317C142.493 47.7317 142.206 47.6816 141.94 47.5776C141.675 47.4774 141.444 47.3348 141.244 47.1536C141.044 46.9725 140.892 46.7567 140.779 46.5139C140.665 46.2711 140.613 46.0052 140.613 45.7238C140.613 45.4425 140.67 45.1804 140.779 44.9415C140.887 44.6987 141.044 44.4867 141.244 44.3056C141.444 44.1244 141.675 43.9818 141.936 43.8778C142.197 43.7737 142.489 43.7236 142.798 43.7236C143.089 43.7236 143.337 43.7583 143.546 43.8238C143.755 43.8894 143.964 44.0011 144.177 44.1553C144.207 44.1745 144.229 44.1977 144.247 44.2169C144.264 44.2401 144.273 44.2593 144.281 44.2825C144.286 44.3056 144.29 44.3287 144.29 44.3595C144.29 44.425 144.264 44.4751 144.212 44.5214C144.16 44.5676 144.099 44.5869 144.025 44.5908C143.951 44.5946 143.881 44.5715 143.82 44.5253C143.681 44.4173 143.537 44.3364 143.389 44.2786C143.241 44.2208 143.041 44.1938 142.798 44.1938C142.576 44.1938 142.367 44.2324 142.171 44.3133C141.975 44.3942 141.801 44.5021 141.653 44.6447C141.505 44.7835 141.388 44.9492 141.305 45.1342C141.222 45.3192 141.179 45.5157 141.179 45.7277C141.179 45.9396 141.222 46.14 141.305 46.325C141.388 46.51 141.505 46.6719 141.653 46.8145C141.801 46.9532 141.975 47.065 142.171 47.1421C142.367 47.2191 142.576 47.2577 142.798 47.2577C142.989 47.2577 143.172 47.2269 143.342 47.169C143.511 47.1112 143.677 47.0303 143.838 46.9262C143.907 46.8839 143.973 46.8646 144.038 46.8684C144.103 46.8723 144.16 46.8954 144.203 46.9378C144.247 46.9802 144.273 47.038 144.273 47.1112C144.273 47.1459 144.264 47.1768 144.251 47.2076C144.238 47.2384 144.216 47.2692 144.181 47.2962C143.981 47.4427 143.764 47.5544 143.529 47.6238C143.294 47.6932 143.054 47.7317 142.798 47.7317ZM144.277 47.1112L143.711 47.011V46.1131H142.933C142.85 46.1131 142.78 46.0899 142.724 46.0476C142.667 46.0052 142.637 45.9512 142.637 45.8818C142.637 45.8163 142.667 45.7585 142.724 45.7161C142.78 45.6737 142.85 45.6506 142.933 45.6506H143.99C144.077 45.6506 144.147 45.6737 144.199 45.7238C144.251 45.7701 144.277 45.8356 144.277 45.9127V47.1112Z" fill="#2D2D2D"/>
<path d="M145.813 47.6816C145.73 47.6816 145.661 47.6546 145.604 47.6045C145.548 47.5544 145.517 47.4927 145.517 47.4195V44.028C145.517 43.9509 145.548 43.8893 145.604 43.8392C145.661 43.7929 145.73 43.766 145.813 43.766C145.9 43.766 145.97 43.7891 146.026 43.8392C146.078 43.8893 146.109 43.9509 146.109 44.028V47.4195C146.109 47.4927 146.083 47.5544 146.026 47.6045C145.974 47.6584 145.9 47.6816 145.813 47.6816ZM145.839 43.3382C145.756 43.3382 145.687 43.315 145.635 43.2649C145.578 43.2187 145.552 43.157 145.552 43.0838C145.552 43.0144 145.574 42.9566 145.622 42.9142L146.174 42.4248C146.231 42.3747 146.3 42.3516 146.379 42.3516C146.466 42.3516 146.535 42.3747 146.588 42.4248C146.64 42.4749 146.666 42.5366 146.666 42.6098C146.666 42.6445 146.661 42.6753 146.648 42.7061C146.635 42.737 146.618 42.7639 146.588 42.7871L146.039 43.2727C145.983 43.315 145.917 43.3382 145.839 43.3382Z" fill="#2D2D2D"/>
<path d="M147.371 47.6813C147.266 47.6813 147.184 47.6427 147.127 47.5618C147.071 47.4809 147.066 47.3961 147.11 47.3074L148.698 43.9468C148.755 43.8312 148.846 43.7695 148.977 43.7695C149.111 43.7695 149.203 43.8273 149.255 43.9468L150.852 47.319C150.895 47.4115 150.887 47.4963 150.835 47.5734C150.778 47.6504 150.7 47.6851 150.587 47.6851C150.53 47.6851 150.478 47.6697 150.426 47.6427C150.373 47.6158 150.339 47.5734 150.317 47.5233L148.916 44.4363H149.072L147.645 47.5233C147.619 47.5772 147.58 47.6158 147.528 47.6427C147.475 47.6697 147.423 47.6813 147.371 47.6813ZM147.671 46.8219L147.897 46.3902H150.117L150.343 46.8219H147.671Z" fill="#2D2D2D"/>
<path d="M154.085 47.6812C154.002 47.6812 153.933 47.6543 153.876 47.6042C153.82 47.5541 153.789 47.4924 153.789 47.4192V44.0277C153.789 43.9506 153.82 43.889 153.876 43.8389C153.933 43.7926 154.002 43.7656 154.085 43.7656H155.108C155.434 43.7656 155.725 43.8119 155.991 43.9082C156.256 44.0046 156.487 44.1395 156.683 44.3129C156.878 44.4902 157.031 44.6944 157.135 44.9334C157.24 45.1723 157.292 45.4344 157.292 45.7196C157.292 46.0048 157.24 46.2707 157.135 46.5096C157.031 46.7486 156.878 46.9567 156.683 47.1301C156.487 47.3074 156.256 47.4423 155.991 47.5348C155.725 47.6311 155.43 47.6774 155.108 47.6774H154.085V47.6812ZM154.381 47.2226H155.112C155.43 47.2226 155.708 47.1571 155.952 47.0299C156.195 46.9027 156.387 46.7255 156.526 46.4981C156.665 46.2745 156.735 46.0163 156.735 45.7234C156.735 45.4305 156.665 45.1723 156.526 44.9488C156.387 44.7253 156.195 44.548 155.952 44.4208C155.708 44.2936 155.43 44.232 155.112 44.232H154.381V47.2226Z" fill="#2D2D2D"/>
<path d="M158.819 47.6812C158.736 47.6812 158.667 47.6543 158.61 47.6042C158.554 47.5541 158.523 47.4924 158.523 47.4192V44.0277C158.523 43.9506 158.554 43.889 158.61 43.8389C158.667 43.7926 158.736 43.7656 158.819 43.7656C158.906 43.7656 158.976 43.7887 159.032 43.8389C159.085 43.889 159.115 43.9506 159.115 44.0277V47.4192C159.115 47.4924 159.089 47.5541 159.032 47.6042C158.976 47.6581 158.906 47.6812 158.819 47.6812Z" fill="#2D2D2D"/>
<path d="M162.531 47.7317C162.226 47.7317 161.939 47.6816 161.674 47.5776C161.408 47.4774 161.178 47.3348 160.977 47.1536C160.777 46.9725 160.625 46.7567 160.512 46.5139C160.399 46.2711 160.346 46.0052 160.346 45.7238C160.346 45.4425 160.403 45.1804 160.512 44.9415C160.621 44.6987 160.777 44.4867 160.977 44.3056C161.178 44.1244 161.408 43.9818 161.669 43.8778C161.93 43.7737 162.222 43.7236 162.531 43.7236C162.822 43.7236 163.07 43.7583 163.279 43.8238C163.488 43.8894 163.697 44.0011 163.91 44.1553C163.941 44.1745 163.962 44.1977 163.98 44.2169C163.997 44.2401 164.006 44.2593 164.015 44.2825C164.019 44.3056 164.023 44.3287 164.023 44.3595C164.023 44.425 163.997 44.4751 163.945 44.5214C163.893 44.5676 163.832 44.5869 163.758 44.5908C163.684 44.5946 163.614 44.5715 163.553 44.5253C163.414 44.4173 163.271 44.3364 163.123 44.2786C162.975 44.2208 162.774 44.1938 162.531 44.1938C162.309 44.1938 162.1 44.2324 161.904 44.3133C161.708 44.3942 161.534 44.5021 161.386 44.6447C161.238 44.7835 161.121 44.9492 161.038 45.1342C160.956 45.3192 160.912 45.5157 160.912 45.7277C160.912 45.9396 160.956 46.14 161.038 46.325C161.121 46.51 161.238 46.6719 161.386 46.8145C161.534 46.9532 161.708 47.065 161.904 47.1421C162.1 47.2191 162.309 47.2577 162.531 47.2577C162.722 47.2577 162.905 47.2269 163.075 47.169C163.244 47.1112 163.41 47.0303 163.571 46.9262C163.64 46.8839 163.706 46.8646 163.771 46.8684C163.836 46.8723 163.893 46.8954 163.936 46.9378C163.98 46.9802 164.006 47.038 164.006 47.1112C164.006 47.1459 163.997 47.1768 163.984 47.2076C163.971 47.2384 163.949 47.2692 163.915 47.2962C163.714 47.4427 163.497 47.5544 163.262 47.6238C163.027 47.6932 162.788 47.7317 162.531 47.7317ZM164.006 47.1112L163.44 47.011V46.1131H162.661C162.579 46.1131 162.509 46.0899 162.452 46.0476C162.396 46.0052 162.365 45.9512 162.365 45.8818C162.365 45.8163 162.396 45.7585 162.452 45.7161C162.509 45.6737 162.579 45.6506 162.661 45.6506H163.719C163.806 45.6506 163.875 45.6737 163.928 45.7238C163.98 45.7701 164.006 45.8356 164.006 45.9127V47.1112Z" fill="#2D2D2D"/>
<path d="M165.546 47.6812C165.464 47.6812 165.394 47.6543 165.338 47.6042C165.281 47.5541 165.25 47.4924 165.25 47.4192V44.0277C165.25 43.9506 165.281 43.889 165.338 43.8389C165.394 43.7926 165.464 43.7656 165.546 43.7656C165.633 43.7656 165.703 43.7887 165.76 43.8389C165.812 43.889 165.842 43.9506 165.842 44.0277V47.4192C165.842 47.4924 165.816 47.5541 165.76 47.6042C165.703 47.6581 165.633 47.6812 165.546 47.6812Z" fill="#2D2D2D"/>
<path d="M167.065 44.2512C166.987 44.2512 166.921 44.2281 166.869 44.1857C166.817 44.1395 166.795 44.0816 166.795 44.0123C166.795 43.9429 166.821 43.8851 166.869 43.8389C166.921 43.7926 166.987 43.7695 167.065 43.7695H170.093C170.172 43.7695 170.237 43.7926 170.289 43.8389C170.341 43.8851 170.368 43.9429 170.368 44.0123C170.368 44.0816 170.341 44.1395 170.289 44.1857C170.237 44.232 170.172 44.2512 170.093 44.2512H167.065ZM168.584 47.6812C168.501 47.6812 168.431 47.6543 168.375 47.6042C168.318 47.5541 168.288 47.4924 168.288 47.4192V43.7656H168.875V47.4192C168.875 47.4924 168.849 47.5541 168.792 47.6042C168.736 47.6543 168.666 47.6812 168.584 47.6812Z" fill="#2D2D2D"/>
<path d="M171.146 47.6813C171.042 47.6813 170.959 47.6427 170.903 47.5618C170.846 47.4809 170.842 47.3961 170.885 47.3074L172.473 43.9468C172.53 43.8312 172.621 43.7695 172.752 43.7695C172.887 43.7695 172.978 43.8273 173.03 43.9468L174.627 47.319C174.671 47.4115 174.662 47.4963 174.61 47.5734C174.553 47.6504 174.475 47.6851 174.362 47.6851C174.305 47.6851 174.253 47.6697 174.201 47.6427C174.149 47.6158 174.114 47.5734 174.092 47.5233L172.691 44.4363H172.848L171.42 47.5233C171.394 47.5772 171.355 47.6158 171.303 47.6427C171.251 47.6697 171.199 47.6813 171.146 47.6813ZM171.447 46.8219L171.673 46.3902H173.892L174.118 46.8219H171.447Z" fill="#2D2D2D"/>
<path d="M175.889 47.6812C175.807 47.6812 175.737 47.6543 175.685 47.6042C175.633 47.5541 175.602 47.4924 175.602 47.4192V44.0277C175.602 43.9545 175.633 43.8928 175.689 43.8427C175.746 43.7926 175.816 43.7656 175.894 43.7656C175.977 43.7656 176.046 43.7926 176.103 43.8427C176.159 43.8928 176.185 43.9545 176.185 44.0277V47.1571H178.235C178.318 47.1571 178.387 47.1802 178.444 47.2303C178.5 47.2804 178.531 47.3421 178.531 47.4153C178.531 47.4885 178.5 47.5502 178.444 47.6003C178.387 47.6504 178.318 47.6774 178.235 47.6774H175.889V47.6812Z" fill="#2D2D2D"/>
<path d="M54.6265 37.9542L56.9458 41.5114L54.6265 45.0685H49.988L47.6688 41.5114L49.988 37.9542H54.6265ZM54.8571 37.5996H49.7574L47.2075 41.5114L49.7574 45.4231H54.8571L57.407 41.5114L54.8571 37.5996Z" fill="#FFC70E"/>
<path d="M45.4583 41.5156H41.4159L39.3926 44.618L41.4159 47.7166H45.4583L47.4773 44.618L45.4583 41.5156Z" fill="#FFC70E"/>
<g opacity="0.8">
<path opacity="0.8" d="M38.5575 38.4248H35.207L33.5273 40.9954L35.207 43.5698H38.5575L40.2327 40.9954L38.5575 38.4248Z" fill="#FFC70E"/>
</g>
<g opacity="0.8">
<path opacity="0.8" d="M32.809 42.043H30.2853L29.019 43.9776L30.2853 45.9162H32.809L34.0709 43.9776L32.809 42.043Z" fill="#FFC70E"/>
</g>
<path d="M28.0792 40.5442L29.1366 42.1629L28.0792 43.7815H25.9689L24.9115 42.1629L25.9689 40.5442H28.0792ZM28.1619 40.4209H25.8862L24.7505 42.1667L25.8862 43.9126H28.1619L29.2976 42.1667L28.1619 40.4209Z" fill="#FFC70E"/>
<g opacity="0.5">
<path opacity="0.5" d="M24.2023 42.6445H22.3139L21.3696 44.0936L22.3139 45.5388H24.2023L25.1466 44.0936L24.2023 42.6445Z" fill="#FFC70E"/>
</g>
<path d="M37.7482 44.7291L38.8969 46.4903L37.7482 48.2516H35.4507L34.302 46.4903L35.4507 44.7291H37.7482ZM37.8613 44.5557H35.3376L34.0757 46.4942L35.3376 48.4327H37.8613L39.1232 46.4942L37.8613 44.5557Z" fill="#FFC70E"/>
</svg>
