<svg width="104" height="109" viewBox="0 0 104 109" fill="none" xmlns="http://www.w3.org/2000/svg">
<path d="M51.9473 73.5367C52.9788 73.5367 53.8171 72.6671 53.8171 71.5971C53.8171 70.5272 52.9788 69.6576 51.9473 69.6576H37.0297V60.962H51.9473C52.9788 60.962 53.8171 60.0925 53.8171 59.0225C53.8171 57.9525 52.9788 57.083 51.9473 57.083H37.0297V46.4478C37.0297 45.3779 36.1914 44.5083 35.1599 44.5083C34.1285 44.5083 33.2902 45.3779 33.2902 46.4478V57.083H17.0481V46.4478C17.0481 45.3779 16.2099 44.5083 15.1784 44.5083C14.1469 44.5083 13.3086 45.3779 13.3086 46.4478V84.1718C13.3086 85.2418 14.1469 86.1113 15.1784 86.1113H35.135C35.1444 86.1113 35.1506 86.1113 35.1599 86.1113C35.1693 86.1113 35.1755 86.1113 35.1849 86.1113H51.9473C52.9788 86.1113 53.8171 85.2418 53.8171 84.1718C53.8171 83.1018 52.9788 82.2323 51.9473 82.2323H37.0297V73.5367H51.9473ZM33.2871 60.962V69.6576H17.045V60.962H33.2871ZM33.2871 82.2323H17.045V73.5367H33.2871V82.2323Z" fill="#121331"/>
<path d="M54.103 31.9336H15.1745C14.143 31.9336 13.3047 32.8032 13.3047 33.8731V46.4478C13.3047 47.5178 14.143 48.3873 15.1745 48.3873H35.1249C35.1342 48.3873 35.1436 48.3873 35.156 48.3873C35.1685 48.3873 35.1747 48.3873 35.1872 48.3873H51.9777C53.0092 48.3873 53.8475 47.5178 53.8475 46.4478C53.8475 45.3778 53.0092 44.5082 51.9777 44.5082H37.0258V35.8127H52.2332V41.5569C52.2332 42.6269 53.0715 43.4965 54.103 43.4965C55.1345 43.4965 55.9728 42.6269 55.9728 41.5569V33.8731C55.9728 32.8032 55.1376 31.9336 54.103 31.9336ZM33.2863 44.5082H17.0442V35.8127H33.2863V44.5082Z" fill="#10849E"/>
<path d="M93.7303 37.0022H68.8375V22.4783C68.8375 22.4622 68.8344 22.446 68.8344 22.4298C68.8344 22.3975 68.8313 22.362 68.8282 22.3296C68.825 22.2714 68.8157 22.2165 68.8095 22.1615C68.8032 22.1195 68.7939 22.0807 68.7845 22.0387C68.7721 21.9837 68.7596 21.932 68.7409 21.8803C68.7316 21.8447 68.7191 21.8124 68.7066 21.7769C68.6879 21.7284 68.6692 21.6831 68.6474 21.6379C68.6287 21.5926 68.6069 21.5506 68.582 21.5086C68.557 21.4633 68.529 21.418 68.5009 21.3728C68.4791 21.3437 68.4604 21.3114 68.4355 21.2823C68.4043 21.2403 68.3701 21.1982 68.3327 21.1594C68.3171 21.1433 68.3046 21.1239 68.289 21.1077L53.8015 6.07956L49.2735 1.38265C49.2143 1.32123 49.1489 1.26305 49.0803 1.21133C49.0678 1.20163 49.0522 1.1887 49.0398 1.179C48.9712 1.12728 48.9027 1.08202 48.8279 1.04C48.8279 1.04 48.8248 1.04 48.8248 1.03677C48.7531 0.997977 48.6814 0.965651 48.6066 0.936558C48.5879 0.930093 48.5723 0.923629 48.5536 0.917164C48.4757 0.891303 48.3978 0.865442 48.3199 0.849279H48.3168C48.2389 0.833116 48.161 0.823419 48.08 0.820186C48.0582 0.820186 48.0363 0.816954 48.0145 0.816954C47.9927 0.816954 47.974 0.813721 47.9522 0.813721H2.31117C1.27969 0.813721 0.441406 1.68328 0.441406 2.75326V97.4413C0.441406 98.5113 1.27969 99.3809 2.31117 99.3809H50.1679C50.8192 104.353 54.9358 108.196 59.9031 108.196H93.7303C99.1496 108.196 103.559 103.622 103.559 98.0006V47.1945C103.559 41.573 99.1496 37.0022 93.7303 37.0022ZM49.822 7.43077L50.8722 8.52014L62.4522 20.5356H49.822V7.43077ZM50.0744 47.1945V95.4954H4.18094V4.68633H46.0824V22.4751C46.0824 23.5451 46.9207 24.4146 47.9522 24.4146H65.098V37.0022H59.9C54.4839 37.0022 50.0744 41.573 50.0744 47.1945ZM99.8196 97.9974C99.8196 101.479 97.0897 104.314 93.7303 104.314H59.9031C56.5469 104.314 53.817 101.482 53.817 97.9974V97.4413C53.817 97.4381 53.817 97.4381 53.817 97.4349C53.817 97.4317 53.817 97.4316 53.817 97.4284V47.1945C53.817 43.713 56.5469 40.8813 59.9031 40.8813H93.7303C97.0866 40.8813 99.8196 43.713 99.8196 47.1945V97.9974Z" fill="#121331"/>
<path d="M90.8566 58.1851H62.7727C60.1612 58.1851 58.0391 55.9805 58.0391 53.2749V51.1252C58.0391 48.4163 60.1612 46.215 62.7727 46.215H90.8566C93.468 46.215 95.5902 48.4163 95.5902 51.1252V53.2749C95.5902 55.9805 93.468 58.1851 90.8566 58.1851ZM62.7758 50.094C62.2367 50.094 61.7817 50.566 61.7817 51.1252V53.2749C61.7817 53.8341 62.2367 54.3061 62.7758 54.3061H90.8597C91.3988 54.3061 91.8538 53.8341 91.8538 53.2749V51.1252C91.8538 50.566 91.3988 50.094 90.8597 50.094H62.7758Z" fill="#10849E"/>
<path d="M63.7473 71.5906H62.8498C60.9551 71.5906 59.4219 70.0002 59.4219 68.0348C59.4219 66.0694 60.9551 64.479 62.8498 64.479H63.7473C65.642 64.479 67.1752 66.0694 67.1752 68.0348C67.1752 70.0002 65.642 71.5906 63.7473 71.5906Z" fill="#121331"/>
<path d="M77.2629 71.5906H76.3654C74.4707 71.5906 72.9375 70.0002 72.9375 68.0348C72.9375 66.0694 74.4707 64.479 76.3654 64.479H77.2629C79.1576 64.479 80.6908 66.0694 80.6908 68.0348C80.6908 70.0002 79.1576 71.5906 77.2629 71.5906Z" fill="#121331"/>
<path d="M63.7473 84.5208H62.8498C60.9551 84.5208 59.4219 82.9304 59.4219 80.965C59.4219 78.9996 60.9551 77.4092 62.8498 77.4092H63.7473C65.642 77.4092 67.1752 78.9996 67.1752 80.965C67.1752 82.9304 65.642 84.5208 63.7473 84.5208Z" fill="#121331"/>
<path d="M77.2629 84.5208H76.3654C74.4707 84.5208 72.9375 82.9304 72.9375 80.965C72.9375 78.9996 74.4707 77.4092 76.3654 77.4092H77.2629C79.1576 77.4092 80.6908 78.9996 80.6908 80.965C80.6908 82.9304 79.1576 84.5208 77.2629 84.5208Z" fill="#121331"/>
<path d="M63.7473 98.0976H62.8498C60.9551 98.0976 59.4219 96.5072 59.4219 94.5418C59.4219 92.5764 60.9551 90.986 62.8498 90.986H63.7473C65.642 90.986 67.1752 92.5764 67.1752 94.5418C67.1752 96.5072 65.642 98.0976 63.7473 98.0976Z" fill="#121331"/>
<path d="M77.2629 98.0976H76.3654C74.4707 98.0976 72.9375 96.5072 72.9375 94.5418C72.9375 92.5764 74.4707 90.986 76.3654 90.986H77.2629C79.1576 90.986 80.6908 92.5764 80.6908 94.5418C80.6908 96.5072 79.1576 98.0976 77.2629 98.0976Z" fill="#121331"/>
<path d="M90.6027 71.5906H89.7053C87.8106 71.5906 86.2773 70.0002 86.2773 68.0348C86.2773 66.0694 87.8106 64.479 89.7053 64.479H90.6027C92.4974 64.479 94.0307 66.0694 94.0307 68.0348C94.0307 70.0002 92.4974 71.5906 90.6027 71.5906Z" fill="#121331"/>
<path d="M90.6027 84.5208H89.7053C87.8106 84.5208 86.2773 82.9304 86.2773 80.965C86.2773 78.9996 87.8106 77.4092 89.7053 77.4092H90.6027C92.4974 77.4092 94.0307 78.9996 94.0307 80.965C94.0307 82.9304 92.4974 84.5208 90.6027 84.5208Z" fill="#121331"/>
<path d="M90.6027 98.0976H89.7053C87.8106 98.0976 86.2773 96.5072 86.2773 94.5418C86.2773 92.5764 87.8106 90.986 89.7053 90.986H90.6027C92.4974 90.986 94.0307 92.5764 94.0307 94.5418C94.0307 96.5072 92.4974 98.0976 90.6027 98.0976Z" fill="#121331"/>
</svg>
