<svg width="133" height="133" viewBox="0 0 133 133" fill="none" xmlns="http://www.w3.org/2000/svg">
<path d="M66.2276 39.0862C64.1354 39.0862 62.0466 38.6828 60.098 37.8726C59.5613 37.6504 59.0143 37.5068 58.4571 37.4419L55.9683 37.1547C54.2488 36.9564 52.9531 35.5001 52.9531 33.7703V31.2611C52.9531 25.993 57.2401 21.7095 62.5047 21.7095H70.0051C75.2732 21.7095 79.5567 25.9964 79.5567 31.2611V33.7703C79.5567 35.5001 78.261 36.9564 76.5415 37.1547L73.916 37.459C73.3895 37.5205 72.8767 37.6538 72.3845 37.859C70.429 38.676 68.33 39.0862 66.2276 39.0862ZM57.052 33.1515L58.9254 33.3669C59.8655 33.4763 60.7817 33.7122 61.6535 34.0746C64.5764 35.2882 67.9061 35.2847 70.8051 34.0711C71.6495 33.719 72.5383 33.4866 73.4477 33.3806L75.4578 33.1481V31.2576C75.4578 28.2527 73.0135 25.8084 70.0085 25.8084H62.5081C59.5032 25.8084 57.0589 28.2527 57.0589 31.2576V33.1515H57.052Z" fill="#121331"/>
<path d="M66.2552 20.0412C62.2247 20.0412 58.9599 16.8858 58.8197 12.8621L58.6454 7.81967C58.5736 5.7856 59.3154 3.85751 60.7307 2.39434C62.146 0.93118 64.0468 0.12439 66.0809 0.12439H66.433C68.4705 0.12439 70.3678 0.93118 71.7831 2.39434C73.1984 3.85751 73.9368 5.7856 73.8684 7.81967L73.6941 12.8621C73.5505 16.8892 70.2823 20.0412 66.2552 20.0412ZM66.0809 4.22672C65.1681 4.22672 64.3169 4.58909 63.681 5.24546C63.0451 5.90183 62.7135 6.76674 62.7477 7.6795L62.9221 12.7219C62.9836 14.527 64.4502 15.9423 66.2552 15.9423C68.0636 15.9423 69.5268 14.527 69.5883 12.7219L69.7627 7.6795C69.7935 6.76674 69.4619 5.90183 68.8294 5.24546C68.197 4.58909 67.3423 4.22672 66.4296 4.22672H66.0809Z" fill="#121331"/>
<path d="M66.2276 132.869C64.1354 132.869 62.0466 132.465 60.098 131.655C59.5613 131.433 59.0143 131.289 58.4571 131.224L55.9683 130.937C54.2488 130.739 52.9531 129.283 52.9531 127.553V125.044C52.9531 119.776 57.2401 115.492 62.5047 115.492H70.0051C75.2732 115.492 79.5567 119.779 79.5567 125.044V127.553C79.5567 129.283 78.261 130.739 76.5415 130.937L73.916 131.242C73.3895 131.303 72.8767 131.436 72.3845 131.642C70.429 132.459 68.33 132.869 66.2276 132.869ZM57.052 126.934L58.9254 127.15C59.8655 127.259 60.7817 127.495 61.6535 127.857C64.5764 129.071 67.9061 129.067 70.8051 127.854C71.6495 127.502 72.5383 127.269 73.4477 127.163L75.4578 126.931V125.04C75.4578 122.035 73.0135 119.591 70.0085 119.591H62.5081C59.5032 119.591 57.0589 122.035 57.0589 125.04V126.934H57.052Z" fill="#121331"/>
<path d="M66.2552 113.824C62.2247 113.824 58.9599 110.668 58.8197 106.645L58.6454 101.602C58.5736 99.5682 59.3154 97.6401 60.7307 96.1769C62.146 94.7138 64.0468 93.907 66.0809 93.907H66.433C68.4705 93.907 70.3678 94.7138 71.7831 96.1769C73.1984 97.6401 73.9368 99.5682 73.8684 101.602L73.6941 106.645C73.5505 110.668 70.2823 113.824 66.2552 113.824ZM66.0809 98.0059C65.1681 98.0059 64.3169 98.3683 63.681 99.0246C63.0451 99.681 62.7135 100.546 62.7477 101.459L62.9221 106.501C62.9836 108.306 64.4502 109.721 66.2552 109.721C68.0636 109.721 69.5268 108.306 69.5883 106.501L69.7627 101.459C69.7935 100.546 69.4619 99.681 68.8294 99.0246C68.197 98.3683 67.3423 98.0059 66.4296 98.0059H66.0809Z" fill="#121331"/>
<path d="M119.286 85.9689C117.194 85.9689 115.105 85.5655 113.157 84.7553C112.62 84.5331 112.073 84.3895 111.516 84.3246L109.027 84.0374C107.307 83.8391 106.012 82.3828 106.012 80.653V78.1437C106.012 72.8757 110.299 68.5922 115.563 68.5922H123.064C128.332 68.5922 132.615 72.8791 132.615 78.1437V80.653C132.615 82.3828 131.32 83.8391 129.6 84.0374L126.975 84.3417C126.448 84.4032 125.932 84.5365 125.443 84.7417C123.488 85.5621 121.389 85.9689 119.286 85.9689ZM110.111 80.0342L111.984 80.2496C112.924 80.359 113.84 80.5949 114.712 80.9573C117.635 82.1709 120.965 82.1674 123.864 80.9538C124.708 80.6017 125.597 80.3693 126.506 80.2633L128.516 80.0308V78.1403C128.516 75.1354 126.072 72.6911 123.067 72.6911H115.567C112.562 72.6911 110.117 75.1354 110.117 78.1403V80.0342H110.111Z" fill="#121331"/>
<path d="M119.314 66.9273C115.283 66.9273 112.018 63.7719 111.878 59.7482L111.704 54.7058C111.632 52.6717 112.374 50.7436 113.789 49.2805C115.205 47.8173 117.105 47.0105 119.139 47.0105H119.488C121.526 47.0105 123.423 47.8173 124.838 49.2805C126.254 50.7436 126.992 52.6717 126.924 54.7058L126.749 59.7482C126.606 63.7719 123.341 66.9273 119.314 66.9273ZM119.136 51.1094C118.223 51.1094 117.372 51.4718 116.736 52.1281C116.1 52.7845 115.769 53.6494 115.803 54.5622L115.977 59.6046C116.039 61.4097 117.505 62.825 119.31 62.825C121.119 62.825 122.582 61.4097 122.644 59.6046L122.818 54.5622C122.849 53.6494 122.517 52.7845 121.885 52.1281C121.252 51.4718 120.397 51.1094 119.485 51.1094H119.136Z" fill="#121331"/>
<path d="M13.6568 85.9689C11.5646 85.9689 9.47581 85.5655 7.52721 84.7553C6.99049 84.5331 6.44351 84.3895 5.88628 84.3246L3.39753 84.0374C1.67798 83.8391 0.378906 82.3828 0.378906 80.653V78.1437C0.378906 72.8757 4.66584 68.5922 9.93049 68.5922H17.4309C22.699 68.5922 26.9825 72.8791 26.9825 78.1437V80.653C26.9825 82.3828 25.6868 83.8391 23.9673 84.0374L21.3418 84.3417C20.8153 84.4032 20.3025 84.5365 19.8137 84.7417C17.8617 85.5621 15.7592 85.9689 13.6568 85.9689ZM4.48465 80.0342L6.35805 80.2496C7.29816 80.359 8.21435 80.5949 9.08609 80.9573C12.009 82.1709 15.3387 82.1674 18.2377 80.9538C19.0821 80.6017 19.9709 80.3693 20.8769 80.2633L22.887 80.0308V78.1403C22.887 75.1354 20.4427 72.6911 17.4377 72.6911H9.93391C6.92895 72.6911 4.48465 75.1354 4.48465 78.1403V80.0342Z" fill="#121331"/>
<path d="M13.6849 66.9273C9.65777 66.9273 6.38959 63.7719 6.24942 59.7482L6.07508 54.7058C6.00328 52.6717 6.74512 50.7436 8.16042 49.2805C9.57573 47.8173 11.4765 47.0105 13.5105 47.0105H13.8627C15.9001 47.0105 17.7975 47.8173 19.2128 49.2805C20.6281 50.7436 21.3665 52.6717 21.2981 54.7058L21.1238 59.7482C20.9802 63.7719 17.7154 66.9273 13.6849 66.9273ZM13.5105 51.1094C12.5978 51.1094 11.7465 51.4718 11.1107 52.1281C10.4748 52.7845 10.1432 53.6494 10.1774 54.5622L10.3517 59.6046C10.4133 61.4097 11.8799 62.825 13.6849 62.825C15.4933 62.825 16.9565 61.4097 17.018 59.6046L17.1924 54.5622C17.2231 53.6494 16.8915 52.7845 16.2591 52.1281C15.6267 51.4718 14.772 51.1094 13.8592 51.1094H13.5105Z" fill="#121331"/>
<path d="M74.3337 73.3817C77.0208 70.6605 80.4838 65.7582 80.4838 61.6354C80.4838 51.6291 75.6978 46.5525 66.2556 46.5525C56.8134 46.5525 52.0273 51.6257 52.0273 61.6354C52.0273 65.7582 55.4904 70.6605 58.1774 73.3817V77.8908C58.1774 77.9182 58.174 77.949 58.174 77.9763V80.9402C58.174 84.3486 60.9465 87.1211 64.3548 87.1211H68.1563C71.5647 87.1211 74.3372 84.3486 74.3372 80.9402V77.9763C74.3372 77.949 74.3337 77.925 74.3337 77.8977V73.3817ZM56.1297 61.632C56.1297 53.8341 59.0628 50.6514 66.2556 50.6514C73.3526 50.6514 76.3815 53.9333 76.3815 61.632C76.3815 64.4386 73.1919 68.8794 70.8912 71.0058C70.4707 71.3955 70.2314 71.9391 70.2314 72.5134V75.9217H62.2797V72.5134C62.2797 71.9425 62.0404 71.3955 61.6199 71.0058C59.3192 68.8794 56.1297 64.4386 56.1297 61.632ZM70.2348 80.9368C70.2348 82.0821 69.3016 83.0153 68.1563 83.0153H64.3548C63.2096 83.0153 62.2763 82.0821 62.2763 80.9368V80.0241H70.2348V80.9368Z" fill="#10849E"/>
<path d="M114.63 40.6007C113.943 40.6007 113.273 40.2554 112.887 39.6298C106.515 29.3569 96.7511 21.501 85.3911 17.5115C84.3211 17.1354 83.7604 15.9663 84.1365 14.8962C84.5125 13.8262 85.6851 13.2656 86.7517 13.6416C98.9903 17.9422 109.513 26.4033 116.374 37.4693C116.972 38.4333 116.675 39.6948 115.711 40.293C115.372 40.5016 115 40.6007 114.63 40.6007Z" fill="#10849E"/>
<path d="M17.8789 40.6007C17.5097 40.6007 17.1371 40.5016 16.7986 40.2931C15.8346 39.6948 15.5406 38.4299 16.1354 37.4693C23 26.4033 33.519 17.9422 45.7576 13.6416C46.8277 13.2656 47.9968 13.8296 48.3729 14.8962C48.7489 15.9663 48.1848 17.1354 47.1182 17.5115C35.7582 21.501 25.9913 29.3569 19.6224 39.6298C19.2361 40.2554 18.5661 40.6007 17.8789 40.6007Z" fill="#10849E"/>
<path d="M86.0671 120.138C85.2193 120.138 84.4296 119.611 84.1322 118.767C83.7562 117.697 84.3202 116.528 85.3868 116.152C96.7469 112.162 106.51 104.306 112.883 94.0334C113.481 93.0728 114.742 92.7754 115.706 93.3702C116.67 93.9685 116.964 95.2334 116.37 96.194C109.505 107.26 98.986 115.721 86.7474 120.022C86.5218 120.1 86.2928 120.138 86.0671 120.138Z" fill="#10849E"/>
<path d="M46.4395 120.138C46.2138 120.138 45.9848 120.1 45.7592 120.022C33.5206 115.721 22.9981 107.26 16.137 96.194C15.5387 95.2299 15.8361 93.9685 16.8002 93.3702C17.7608 92.772 19.0257 93.0694 19.6239 94.0334C25.9962 104.306 35.7597 112.162 47.1198 116.152C48.1898 116.528 48.7504 117.697 48.3744 118.767C48.0804 119.608 47.2873 120.138 46.4395 120.138Z" fill="#10849E"/>
</svg>
