<svg width="108" height="112" viewBox="0 0 108 112" fill="none" xmlns="http://www.w3.org/2000/svg">
<path d="M89.7276 29.0453C89.7276 28.985 89.7243 28.9248 89.7176 28.8611C89.7176 28.8578 89.7176 28.8511 89.7176 28.8477C89.7109 28.7875 89.7042 28.7305 89.6908 28.6702C89.6908 28.6635 89.6875 28.6602 89.6875 28.6535C89.6741 28.5932 89.6607 28.5363 89.6439 28.476C89.6439 28.4727 89.6406 28.466 89.6406 28.4626C89.6205 28.399 89.6004 28.3387 89.5736 28.2784C89.5167 28.1411 89.4463 28.0105 89.3593 27.8866C89.0579 27.4613 88.6058 27.1733 88.0968 27.0728C88.0968 27.0728 88.0968 27.0728 88.0934 27.0728C88.08 27.0695 88.07 27.0662 88.0566 27.0662L81.3723 25.9142C80.2772 25.7266 79.2391 26.46 79.0516 27.5517C78.864 28.6468 79.5974 29.6849 80.6891 29.8725L82.4573 30.1772L41.6015 57.8386C40.6839 58.4615 40.4428 59.7106 41.0624 60.6282C41.4508 61.2009 42.0837 61.5123 42.7267 61.5123C43.1152 61.5123 43.507 61.4018 43.8519 61.1674L84.9321 33.3553L84.5805 35.388C84.393 36.4831 85.1263 37.5212 86.2181 37.7088C86.3319 37.7289 86.4491 37.7389 86.563 37.7389C87.5241 37.7389 88.3714 37.049 88.5422 36.0712L89.6942 29.3869C89.7143 29.273 89.721 29.1592 89.721 29.0453C89.7277 29.0487 89.7276 29.0453 89.7276 29.0453Z" fill="#10849E"/>
<path d="M28.3811 98.4667C27.2727 98.4667 26.3718 97.5659 26.3718 96.4574C26.3718 90.3993 21.4423 85.4699 15.3843 85.4699C14.2758 85.4699 13.375 84.569 13.375 83.4606C13.375 82.3521 14.2758 81.4512 15.3843 81.4512C19.7177 81.4512 23.6291 83.2998 26.3718 86.2468V18.1582C26.3718 17.0498 27.2727 16.1489 28.3811 16.1489C29.4896 16.1489 30.3904 17.0498 30.3904 18.1582V96.4574C30.3904 97.5659 29.4896 98.4667 28.3811 98.4667Z" fill="#121331"/>
<path d="M105.613 14.1396H30.3242C29.6143 6.52099 23.1878 0.536621 15.385 0.536621C7.11007 0.536621 0.378906 7.26779 0.378906 15.5428V96.4574C0.378906 104.732 7.11007 111.464 15.385 111.464H105.613C106.721 111.464 107.622 110.563 107.622 109.454V16.1489C107.622 15.0404 106.721 14.1396 105.613 14.1396ZM4.39751 86.2468V15.5428C4.39751 9.48472 9.327 4.55523 15.385 4.55523C21.4431 4.55523 26.3726 9.48472 26.3726 15.5428V16.1489V86.2468C23.6299 83.2964 19.7184 81.4512 15.385 81.4512C15.1205 81.4512 14.8559 81.4579 14.5947 81.4713C14.5076 81.4747 14.4206 81.4847 14.3302 81.4914C14.1594 81.5048 13.9852 81.5149 13.8144 81.5316C13.7106 81.5417 13.6068 81.5584 13.4996 81.5718C13.349 81.5919 13.1949 81.6086 13.0442 81.6321C12.9337 81.6488 12.8265 81.6723 12.716 81.6924C12.572 81.7191 12.4314 81.7426 12.2907 81.7727C12.1769 81.7962 12.0663 81.823 11.9558 81.8498C11.8185 81.8799 11.6846 81.9134 11.5506 81.9469C11.4368 81.977 11.3263 82.0105 11.2157 82.044C11.0851 82.0808 10.9545 82.121 10.8239 82.1612C10.7101 82.198 10.5996 82.2349 10.489 82.275C10.3618 82.3186 10.2379 82.3621 10.114 82.409C10.0035 82.4492 9.89295 82.4961 9.78244 82.5396C9.66188 82.5898 9.53798 82.6401 9.41742 82.6903C9.30691 82.7372 9.19974 82.7874 9.09258 82.8377C8.97537 82.8912 8.85816 82.9482 8.74095 83.0051C8.63379 83.0587 8.52997 83.1123 8.42281 83.1692C8.30895 83.2295 8.19509 83.2897 8.08123 83.3534C7.97742 83.4103 7.8736 83.4706 7.77314 83.5309C7.66263 83.5978 7.55211 83.6648 7.4416 83.7318C7.34114 83.7954 7.24067 83.8591 7.14356 83.9227C7.03639 83.993 6.92923 84.0667 6.82207 84.1404C6.72495 84.2073 6.62784 84.2743 6.53407 84.3446C6.43025 84.4217 6.32644 84.4987 6.22263 84.579C6.12886 84.6494 6.03844 84.7231 5.94802 84.7967C5.84756 84.8771 5.74709 84.9642 5.64998 85.0479C5.56291 85.1216 5.47249 85.1986 5.38876 85.2756C5.29165 85.3627 5.19453 85.4531 5.09742 85.5435C5.0137 85.6205 4.93333 85.6976 4.8496 85.7779C4.75249 85.8717 4.65872 85.9688 4.5683 86.0659C4.51472 86.1296 4.45444 86.1865 4.39751 86.2468ZM103.603 107.445H15.385C9.327 107.445 4.39751 102.515 4.39751 96.4574C4.39751 90.3993 9.327 85.4698 15.385 85.4698C21.4431 85.4698 26.3726 90.3993 26.3726 96.4574C26.3726 97.5658 27.2734 98.4667 28.3819 98.4667C29.4903 98.4667 30.3912 97.5658 30.3912 96.4574V18.1582H103.603V107.445Z" fill="#121331"/>
<path d="M52.4423 88.9526H43.4741C42.3657 88.9526 41.4648 88.0518 41.4648 86.9433V74.2311C41.4648 73.1226 42.3657 72.2218 43.4741 72.2218H52.4423C53.5508 72.2218 54.4516 73.1226 54.4516 74.2311V86.9433C54.4516 88.0551 53.5508 88.9526 52.4423 88.9526ZM45.4834 84.934H50.433V76.2404H45.4834V84.934Z" fill="#121331"/>
<path d="M70.3525 88.9527H61.3843C60.2758 88.9527 59.375 88.0518 59.375 86.9434V61.5224C59.375 60.4139 60.2758 59.5131 61.3843 59.5131H70.3525C71.461 59.5131 72.3618 60.4139 72.3618 61.5224V86.9434C72.3618 88.0552 71.461 88.9527 70.3525 88.9527ZM63.3936 84.9341H68.3432V63.5317H63.3936V84.9341Z" fill="#121331"/>
<path d="M88.2626 88.9526H79.2945C78.186 88.9526 77.2852 88.0518 77.2852 86.9433V48.281C77.2852 47.1726 78.186 46.2717 79.2945 46.2717H88.2626C89.3711 46.2717 90.2719 47.1726 90.2719 48.281V86.9433C90.2719 88.0551 89.3711 88.9526 88.2626 88.9526ZM81.3038 84.934H86.2533V50.2903H81.3038V84.934Z" fill="#121331"/>
<path d="M81.044 99.4713H50.6968C49.5883 99.4713 48.6875 98.5705 48.6875 97.4621C48.6875 96.3536 49.5883 95.4528 50.6968 95.4528H81.044C82.1524 95.4528 83.0533 96.3536 83.0533 97.4621C83.0533 98.5705 82.1524 99.4713 81.044 99.4713Z" fill="#121331"/>
</svg>
