<svg width="714" height="526" viewBox="0 0 714 526" fill="none" xmlns="http://www.w3.org/2000/svg">
<g clip-path="url(#clip0_994_9963)">
<path d="M710.045 31.1867H3.95503C2.90645 31.1856 1.90113 30.7683 1.15967 30.0266C0.418204 29.2848 0.00114611 28.2791 0 27.2301V3.95655C0.00114611 2.90756 0.418204 1.90186 1.15967 1.1601C1.90113 0.418354 2.90645 0.0011442 3.95503 0H710.045C711.094 0.00114656 712.099 0.418367 712.84 1.16012C713.582 1.90187 713.999 2.90756 714 3.95655V27.2302C713.999 28.2792 713.582 29.2849 712.84 30.0266C712.099 30.7684 711.094 31.1856 710.045 31.1867Z" fill="#2D2D2D"/>
<path d="M22.953 20.0745C26.0542 20.0745 28.5682 17.5595 28.5682 14.4572C28.5682 11.3548 26.0542 8.83984 22.953 8.83984C19.8519 8.83984 17.3379 11.3548 17.3379 14.4572C17.3379 17.5595 19.8519 20.0745 22.953 20.0745Z" fill="white"/>
<path d="M44.2665 20.0745C47.3677 20.0745 49.8817 17.5595 49.8817 14.4572C49.8817 11.3548 47.3677 8.83984 44.2665 8.83984C41.1654 8.83984 38.6514 11.3548 38.6514 14.4572C38.6514 17.5595 41.1654 20.0745 44.2665 20.0745Z" fill="white"/>
<path d="M65.58 20.0745C68.6812 20.0745 71.1952 17.5595 71.1952 14.4572C71.1952 11.3548 68.6812 8.83984 65.58 8.83984C62.4788 8.83984 59.9648 11.3548 59.9648 14.4572C59.9648 17.5595 62.4788 20.0745 65.58 20.0745Z" fill="white"/>
<path d="M689.163 10.5925H664.62C664.138 10.5914 663.677 10.3993 663.337 10.0584C662.997 9.71742 662.806 9.25543 662.806 8.77378C662.806 8.29212 662.997 7.83015 663.337 7.48919C663.677 7.14823 664.138 6.95614 664.62 6.95508H689.163C689.644 6.95473 690.107 7.14572 690.448 7.4861C690.789 7.82647 690.981 8.28839 690.982 8.77037C690.983 9.25235 690.793 9.71499 690.453 10.0566C690.113 10.3983 689.651 10.591 689.17 10.5925H689.163Z" fill="white"/>
<path d="M689.163 17.4128H664.62C664.138 17.4117 663.677 17.2196 663.337 16.8787C662.997 16.5377 662.806 16.0758 662.806 15.5941C662.806 15.1124 662.997 14.6505 663.337 14.3095C663.677 13.9685 664.138 13.7765 664.62 13.7754H689.163C689.644 13.775 690.107 13.966 690.448 14.3064C690.789 14.6468 690.981 15.1087 690.982 15.5907C690.983 16.0727 690.793 16.5353 690.453 16.877C690.113 17.2186 689.651 17.4113 689.17 17.4128H689.163Z" fill="white"/>
<path d="M689.163 24.2331H664.62C664.138 24.2331 663.675 24.0415 663.334 23.7004C662.993 23.3594 662.802 22.8968 662.802 22.4144C662.802 21.9321 662.993 21.4695 663.334 21.1284C663.675 20.7873 664.138 20.5957 664.62 20.5957H689.163C689.645 20.5948 690.108 20.7855 690.449 21.126C690.791 21.4664 690.983 21.9286 690.984 22.411C690.985 22.8933 690.794 23.3563 690.454 23.698C690.114 24.0397 689.652 24.2322 689.17 24.2331H689.163Z" fill="white"/>
<path d="M201.332 462.483C203.931 441.582 216.879 420.989 236.804 414.188C228.946 435.7 228.947 459.3 236.808 480.811C239.87 489.096 244.138 497.992 241.258 506.342C239.466 511.537 235.082 515.513 230.183 517.998C225.282 520.484 219.844 521.668 214.474 522.829L213.417 523.704C204.892 504.446 198.734 483.383 201.332 462.483Z" fill="#F0F0F0"/>
<path d="M237.001 414.583C225.397 427.589 218.185 443.922 216.39 461.262C215.937 464.988 216.074 468.762 216.796 472.446C217.615 476.011 219.373 479.292 221.889 481.947C224.184 484.47 226.824 486.785 228.467 489.823C229.285 491.39 229.762 493.112 229.867 494.877C229.973 496.642 229.704 498.409 229.079 500.063C227.629 504.224 224.771 507.615 221.861 510.834C218.63 514.409 215.217 518.071 213.843 522.809C213.677 523.384 212.796 523.092 212.962 522.518C215.352 514.274 223.352 509.59 227.168 502.164C228.948 498.699 229.695 494.676 228.026 491.019C226.567 487.82 223.846 485.431 221.5 482.896C219.008 480.341 217.18 477.215 216.174 473.791C215.267 470.156 214.985 466.394 215.34 462.664C216.004 454.255 217.987 446.003 221.214 438.211C224.848 429.296 229.98 421.07 236.387 413.886C236.783 413.442 237.395 414.141 237.001 414.583L237.001 414.583Z" fill="white"/>
<path d="M216.64 455.646C213.773 454.95 211.246 453.256 209.512 450.869C207.777 448.481 206.948 445.554 207.172 442.611C207.182 442.491 207.238 442.379 207.329 442.3C207.419 442.221 207.537 442.18 207.657 442.186C207.778 442.192 207.891 442.245 207.973 442.332C208.055 442.42 208.1 442.537 208.098 442.657C207.885 445.397 208.658 448.124 210.278 450.344C211.898 452.564 214.257 454.132 216.931 454.765C217.512 454.903 217.218 455.784 216.64 455.646Z" fill="white"/>
<path d="M220.557 480.822C225.736 477.728 229.559 472.796 231.263 467.008C231.432 466.435 232.313 466.726 232.145 467.299C230.359 473.319 226.37 478.444 220.974 481.651C220.46 481.956 220.045 481.125 220.557 480.822Z" fill="white"/>
<path d="M225.709 430.177C226.762 430.678 227.924 430.909 229.088 430.85C230.253 430.791 231.385 430.443 232.382 429.838C232.892 429.527 233.306 430.358 232.799 430.667C231.694 431.33 230.444 431.713 229.157 431.781C227.871 431.849 226.587 431.601 225.418 431.059C225.304 431.017 225.21 430.933 225.155 430.824C225.1 430.715 225.089 430.589 225.123 430.472C225.162 430.356 225.246 430.26 225.355 430.204C225.465 430.149 225.592 430.139 225.709 430.177Z" fill="white"/>
<path d="M297.538 451.519C297.225 451.723 296.911 451.927 296.598 452.138C292.402 454.899 288.437 457.996 284.742 461.398C284.452 461.657 284.162 461.923 283.88 462.19C275.066 470.483 267.867 480.341 262.65 491.263C260.578 495.611 258.839 500.11 257.449 504.722C255.531 511.092 253.957 518.15 250.159 523.36C249.768 523.908 249.345 524.431 248.89 524.927H214.565C214.487 524.888 214.409 524.856 214.33 524.817L212.96 524.88C213.015 524.637 213.077 524.386 213.132 524.143C213.164 524.002 213.203 523.861 213.234 523.72C213.258 523.626 213.281 523.532 213.297 523.446C213.305 523.415 213.313 523.383 213.32 523.36C213.336 523.274 213.36 523.195 213.375 523.117C213.72 521.715 214.075 520.312 214.44 518.91C214.44 518.902 214.44 518.902 214.448 518.894C217.13 508.182 221.073 497.826 226.195 488.043C226.352 487.753 226.508 487.455 226.68 487.165C229.052 482.835 231.773 478.705 234.817 474.818C236.491 472.695 238.271 470.658 240.15 468.715C245.016 463.704 250.64 459.49 256.815 456.228C269.126 449.725 283.379 447.234 296.536 451.206C296.872 451.308 297.201 451.41 297.538 451.519Z" fill="#F0F0F0"/>
<path d="M297.46 451.955C280.368 455.351 264.78 464.049 252.91 476.812C250.306 479.514 248.144 482.61 246.504 485.986C245.012 489.326 244.441 493.005 244.852 496.64C245.166 500.037 245.881 503.476 245.364 506.89C245.074 508.634 244.418 510.297 243.441 511.77C242.463 513.242 241.185 514.491 239.691 515.435C236.029 517.884 231.705 518.871 227.444 519.688C222.713 520.596 217.784 521.464 213.835 524.421C213.357 524.779 212.829 524.015 213.307 523.658C220.177 518.514 229.384 519.593 236.899 515.962C240.406 514.268 243.424 511.506 244.293 507.58C245.052 504.147 244.318 500.6 243.97 497.163C243.518 493.623 243.94 490.026 245.198 486.686C246.661 483.237 248.7 480.063 251.228 477.299C256.819 470.986 263.369 465.591 270.635 461.313C278.902 456.384 287.95 452.906 297.389 451.03C297.973 450.914 298.041 451.84 297.46 451.955H297.46Z" fill="white"/>
<path d="M256.49 472.476C254.62 470.194 253.622 467.32 253.674 464.369C253.726 461.417 254.825 458.581 256.775 456.365C257.171 455.919 257.884 456.513 257.487 456.961C255.668 459.02 254.644 461.663 254.601 464.411C254.558 467.159 255.499 469.832 257.253 471.948C257.633 472.408 256.868 472.934 256.49 472.476Z" fill="white"/>
<path d="M244.466 494.939C250.462 495.588 256.483 493.953 261.328 490.358C261.808 490.002 262.335 490.765 261.856 491.121C256.808 494.852 250.539 496.542 244.3 495.852C243.706 495.786 243.875 494.873 244.466 494.939Z" fill="white"/>
<path d="M279.06 457.603C279.6 458.637 280.388 459.521 281.353 460.176C282.319 460.83 283.432 461.234 284.592 461.352C285.187 461.41 285.017 462.323 284.426 462.265C283.145 462.129 281.916 461.681 280.848 460.961C279.78 460.24 278.904 459.269 278.297 458.132C278.231 458.029 278.207 457.906 278.228 457.786C278.25 457.666 278.317 457.559 278.415 457.486C278.516 457.417 278.641 457.39 278.762 457.412C278.883 457.434 278.99 457.503 279.06 457.603L279.06 457.603Z" fill="white"/>
<path d="M231.429 162.276H117.867C114.358 162.272 110.993 160.876 108.512 158.393C106.031 155.911 104.635 152.545 104.631 149.034V87.159C104.635 83.6484 106.031 80.2827 108.512 77.8004C110.994 75.318 114.358 73.9218 117.867 73.918H231.429C234.938 73.9218 238.303 75.318 240.784 77.8004C243.266 80.2827 244.661 83.6484 244.665 87.159V149.034C244.661 152.545 243.266 155.911 240.784 158.393C238.303 160.876 234.938 162.272 231.429 162.276Z" fill="#E6E6E6"/>
<path d="M404.805 162.276H291.243C287.734 162.272 284.369 160.876 281.888 158.393C279.407 155.911 278.011 152.545 278.007 149.034V87.159C278.011 83.6484 279.407 80.2827 281.888 77.8004C284.369 75.318 287.734 73.9218 291.243 73.918H404.805C408.314 73.9218 411.679 75.318 414.16 77.8004C416.642 80.2827 418.037 83.6484 418.041 87.159V149.034C418.037 152.545 416.642 155.911 414.16 158.393C411.679 160.876 408.314 162.272 404.805 162.276Z" fill="#00B0FF"/>
<path d="M578.181 162.276H464.619C461.11 162.272 457.745 160.876 455.264 158.393C452.782 155.911 451.387 152.545 451.383 149.034V87.159C451.387 83.6484 452.783 80.2827 455.264 77.8004C457.745 75.318 461.11 73.9218 464.619 73.918H578.181C581.69 73.9218 585.055 75.318 587.536 77.8004C590.017 80.2827 591.413 83.6484 591.417 87.159V149.034C591.413 152.545 590.018 155.911 587.536 158.393C585.055 160.876 581.69 162.272 578.181 162.276Z" fill="#E6E6E6"/>
<path d="M231.429 300.141H117.867C114.358 300.137 110.993 298.741 108.512 296.258C106.031 293.776 104.635 290.41 104.631 286.899V225.024C104.635 221.514 106.031 218.148 108.512 215.666C110.994 213.183 114.358 211.787 117.867 211.783H231.429C234.938 211.787 238.303 213.183 240.784 215.666C243.266 218.148 244.661 221.514 244.665 225.024V286.899C244.661 290.41 243.266 293.776 240.784 296.258C238.303 298.741 234.938 300.137 231.429 300.141Z" fill="#F2F2F2"/>
<path d="M404.805 300.141H291.243C287.734 300.137 284.369 298.741 281.888 296.258C279.407 293.776 278.011 290.41 278.007 286.899V225.024C278.011 221.514 279.407 218.148 281.888 215.666C284.369 213.183 287.734 211.787 291.243 211.783H404.805C408.314 211.787 411.679 213.183 414.16 215.666C416.642 218.148 418.037 221.514 418.041 225.024V286.899C418.037 290.41 416.642 293.776 414.16 296.258C411.679 298.741 408.314 300.137 404.805 300.141Z" fill="#E6E6E6"/>
<path d="M412.823 311.526C424.024 311.526 433.105 302.442 433.105 291.236C433.105 280.03 424.024 270.945 412.823 270.945C401.621 270.945 392.54 280.03 392.54 291.236C392.54 302.442 401.621 311.526 412.823 311.526Z" fill="#00B0FF"/>
<path d="M421.245 289.532H414.349V282.633C414.349 282.42 414.307 282.209 414.226 282.012C414.144 281.815 414.024 281.636 413.874 281.485C413.723 281.335 413.544 281.215 413.347 281.133C413.15 281.052 412.939 281.01 412.726 281.01C412.513 281.01 412.302 281.052 412.105 281.133C411.908 281.215 411.73 281.335 411.579 281.485C411.428 281.636 411.309 281.815 411.227 282.012C411.146 282.209 411.104 282.42 411.104 282.633V289.532H404.208C403.995 289.532 403.783 289.574 403.587 289.655C403.39 289.737 403.211 289.857 403.06 290.007C402.91 290.158 402.79 290.337 402.708 290.534C402.627 290.731 402.585 290.942 402.585 291.155C402.585 291.368 402.627 291.579 402.708 291.776C402.79 291.973 402.91 292.152 403.06 292.303C403.211 292.454 403.39 292.573 403.587 292.655C403.783 292.737 403.995 292.779 404.208 292.779H411.104V299.677C411.104 299.89 411.146 300.102 411.227 300.298C411.309 300.495 411.428 300.674 411.579 300.825C411.73 300.976 411.908 301.095 412.105 301.177C412.302 301.259 412.513 301.301 412.726 301.301C413.157 301.301 413.57 301.13 413.874 300.825C414.178 300.521 414.349 300.108 414.349 299.677V292.778H421.245C421.458 292.778 421.669 292.736 421.866 292.655C422.063 292.573 422.242 292.454 422.392 292.303C422.543 292.152 422.663 291.973 422.744 291.776C422.826 291.579 422.868 291.368 422.868 291.155C422.868 290.942 422.826 290.731 422.744 290.534C422.663 290.337 422.543 290.158 422.392 290.007C422.242 289.857 422.063 289.737 421.866 289.655C421.669 289.574 421.458 289.532 421.245 289.532L421.245 289.532Z" fill="white"/>
<path d="M588.866 177.219C600.068 177.219 609.149 168.135 609.149 156.929C609.149 145.723 600.068 136.639 588.866 136.639C577.665 136.639 568.584 145.723 568.584 156.929C568.584 168.135 577.665 177.219 588.866 177.219Z" fill="#00B0FF"/>
<path d="M597.289 155.225H590.393V148.326C590.393 148.113 590.351 147.902 590.269 147.705C590.188 147.508 590.068 147.329 589.918 147.179C589.767 147.028 589.588 146.908 589.391 146.827C589.194 146.745 588.983 146.703 588.77 146.703C588.557 146.703 588.346 146.745 588.149 146.827C587.952 146.908 587.774 147.028 587.623 147.179C587.472 147.329 587.353 147.508 587.271 147.705C587.19 147.902 587.148 148.113 587.148 148.326V155.225H580.252C580.038 155.225 579.827 155.267 579.631 155.349C579.434 155.43 579.255 155.55 579.104 155.701C578.953 155.851 578.834 156.03 578.752 156.227C578.671 156.424 578.629 156.635 578.629 156.849C578.629 157.062 578.671 157.273 578.752 157.47C578.834 157.667 578.953 157.846 579.104 157.996C579.255 158.147 579.434 158.267 579.631 158.348C579.827 158.43 580.038 158.472 580.252 158.472H587.148V165.371C587.148 165.584 587.19 165.795 587.271 165.992C587.353 166.189 587.472 166.368 587.623 166.518C587.774 166.669 587.952 166.789 588.149 166.87C588.346 166.952 588.557 166.994 588.77 166.994C589.201 166.994 589.613 166.823 589.918 166.518C590.222 166.214 590.393 165.801 590.393 165.371V158.472H597.289C597.502 158.472 597.713 158.43 597.91 158.348C598.107 158.267 598.286 158.147 598.436 157.996C598.587 157.846 598.707 157.667 598.788 157.47C598.87 157.273 598.912 157.062 598.912 156.848C598.912 156.635 598.87 156.424 598.788 156.227C598.707 156.03 598.587 155.851 598.436 155.701C598.286 155.55 598.107 155.43 597.91 155.349C597.713 155.267 597.502 155.225 597.289 155.225L597.289 155.225Z" fill="white"/>
<path d="M239.447 175.44C250.648 175.44 259.729 166.356 259.729 155.15C259.729 143.944 250.648 134.859 239.447 134.859C228.245 134.859 219.164 143.944 219.164 155.15C219.164 166.356 228.245 175.44 239.447 175.44Z" fill="#00B0FF"/>
<path d="M247.869 153.446H240.973V146.547C240.973 146.334 240.931 146.123 240.85 145.926C240.768 145.729 240.649 145.55 240.498 145.399C240.347 145.249 240.168 145.129 239.971 145.047C239.775 144.966 239.564 144.924 239.35 144.924C239.137 144.924 238.926 144.966 238.729 145.047C238.533 145.129 238.354 145.249 238.203 145.399C238.052 145.55 237.933 145.729 237.851 145.926C237.77 146.123 237.728 146.334 237.728 146.547V153.446H230.832C230.619 153.446 230.408 153.488 230.211 153.569C230.014 153.651 229.835 153.771 229.684 153.921C229.534 154.072 229.414 154.251 229.333 154.448C229.251 154.645 229.209 154.856 229.209 155.069C229.209 155.5 229.38 155.913 229.684 156.217C229.989 156.522 230.401 156.693 230.832 156.693H237.728V163.591C237.728 163.804 237.77 164.016 237.851 164.213C237.933 164.409 238.052 164.588 238.203 164.739C238.354 164.89 238.533 165.009 238.729 165.091C238.926 165.173 239.137 165.215 239.35 165.215C239.564 165.215 239.775 165.173 239.971 165.091C240.168 165.009 240.347 164.89 240.498 164.739C240.649 164.588 240.768 164.41 240.85 164.213C240.931 164.016 240.973 163.804 240.973 163.591V156.693H247.869C248.082 156.693 248.293 156.651 248.49 156.569C248.687 156.487 248.866 156.368 249.017 156.217C249.167 156.066 249.287 155.887 249.368 155.69C249.45 155.493 249.492 155.282 249.492 155.069C249.492 154.639 249.321 154.226 249.017 153.921C248.712 153.617 248.3 153.446 247.869 153.446V153.446Z" fill="white"/>
<path d="M391.298 127.12C391.668 128.24 391.788 129.427 391.65 130.599C391.512 131.77 391.119 132.897 390.498 133.899C389.878 134.902 389.045 135.756 388.058 136.402C387.072 137.048 385.956 137.47 384.789 137.638L375.411 201.679L360.026 194.162L375.5 130.237C375.348 128.257 375.928 126.291 377.129 124.71C378.329 123.129 380.068 122.043 382.015 121.659C383.963 121.275 385.983 121.619 387.694 122.625C389.405 123.632 390.687 125.231 391.298 127.12L391.298 127.12Z" fill="#9E616A"/>
<path d="M279.282 332.228C279.967 331.268 280.433 330.17 280.648 329.01C280.862 327.851 280.82 326.658 280.524 325.516C280.228 324.375 279.685 323.312 278.934 322.403C278.183 321.494 277.242 320.761 276.177 320.255L282.504 252.135L269.253 258.93L265.115 324.572C264.384 326.419 264.355 328.469 265.034 330.334C265.713 332.2 267.053 333.752 268.799 334.695C270.546 335.639 272.577 335.909 274.509 335.454C276.441 335 278.14 333.852 279.282 332.228H279.282Z" fill="#9E616A"/>
<path d="M288.336 297.774L345.204 295.586L348.485 236.508H282.868L288.336 297.774Z" fill="#9E616A"/>
<path d="M277.781 506.414L287.499 506.413L292.121 468.916H277.779L277.781 506.414Z" fill="#9E616A"/>
<path d="M275.371 501.618L290.732 500.701V507.285L305.337 517.376C306.059 517.874 306.602 518.59 306.888 519.419C307.174 520.248 307.187 521.147 306.926 521.984C306.665 522.822 306.144 523.553 305.438 524.073C304.732 524.593 303.878 524.873 303.001 524.873H284.712L281.56 518.36L280.329 524.873H273.434L275.371 501.618Z" fill="#2F2E41"/>
<path d="M321.005 506.414L330.723 506.413L335.345 468.916H321.003L321.005 506.414Z" fill="#9E616A"/>
<path d="M287.547 283.906C287.547 283.906 270.532 297.648 279.756 346.726C278.351 346.894 279.942 349.664 279.942 349.664L281.273 389.653L282.301 394.236L278.882 401.632L280.291 409.667L275.945 482.595L292 484.672L307.364 408.94L310.29 400.426L313.225 392.963L311.642 385.004L312.94 372.652L321.797 331L323.966 403.239L320.94 410.136L322.624 417.706L318.873 421.725L317.39 489.315L334.509 490.116L348.674 421.981L347.575 413.286L349.46 406.857V391.84L352.688 384.753L359.724 346.109C359.724 346.109 361.847 315.904 346.359 280.361L287.547 283.906Z" fill="#2F2E41"/>
<path d="M294.481 187.408C294.481 187.408 272.99 191.66 269.287 209.996C265.584 228.331 263.201 269.823 263.201 269.823L264.012 275.601L284.801 280.423L298.07 222.286L294.481 187.408Z" fill="#3F3D56"/>
<path d="M343.527 193.598C343.527 193.598 345.706 190.544 357.905 190.073C358.408 190.053 357.786 189.056 357.786 189.056L363.653 160.369L383.205 171.198L379.904 201.274L347.776 237.831L343.527 193.598Z" fill="#3F3D56"/>
<path d="M331.34 279.118C322.135 279.119 308.28 278.103 287.422 275.005C286.079 274.802 284.835 274.175 283.873 273.215C282.911 272.255 282.281 271.013 282.075 269.669C281.394 268.95 280.951 268.038 280.806 267.057C280.661 266.077 280.821 265.076 281.265 264.19L281.284 264.152L280.812 263.595C280.081 262.736 279.651 261.661 279.589 260.535C279.527 259.408 279.836 258.293 280.468 257.358L274.008 211.129C273.353 206.539 274.356 201.864 276.838 197.948C279.32 194.031 283.117 191.129 287.547 189.763L289.932 189.021L298.95 177.221L299.127 177.223L328.077 177.608L337.472 189.543L352.659 193.126L352.698 193.357L356.225 213.738C358.058 224.338 353.853 228.508 348.484 237.83L350.06 264.01L350.775 265.309C351.172 266.029 351.304 266.864 351.151 267.671C350.997 268.478 350.566 269.205 349.932 269.728C350.411 271.097 350.444 272.584 350.025 273.973L349.654 275.201C349.655 275.236 349.556 275.735 348.754 276.344C347.308 277.443 343.157 279.118 331.34 279.118Z" fill="#3F3D56"/>
<path d="M318.594 501.618L333.956 500.701V507.285L348.561 517.376C349.282 517.874 349.826 518.59 350.111 519.419C350.397 520.248 350.411 521.147 350.15 521.984C349.889 522.822 349.367 523.553 348.661 524.073C347.955 524.593 347.101 524.873 346.225 524.873H327.936L324.784 518.36L323.553 524.873H316.657L318.594 501.618Z" fill="#2F2E41"/>
<path d="M334.728 151.507C336.736 139.129 328.334 127.467 315.961 125.458C303.588 123.45 291.93 131.855 289.923 144.233C287.915 156.611 296.317 168.273 308.69 170.281C321.063 172.29 332.72 163.884 334.728 151.507Z" fill="#9E616A"/>
<path d="M325.597 125.685C317.278 119.961 309.953 119.09 303.936 120.713C303.156 119.506 302.062 118.534 300.771 117.902C296.078 106.072 281.796 98.968 269.54 102.422C257.204 105.897 248.692 119.567 251.014 132.176C252.452 139.992 257.369 146.76 259.346 154.456C263.175 169.356 253.836 186.423 239.227 191.226C253.059 194.005 268.285 185.552 273.247 172.34C275.658 165.923 275.803 158.916 276.109 152.068C276.19 147.341 276.769 142.635 277.837 138.029C278.366 135.963 279.115 133.959 280.07 132.052C282.149 127.859 285.603 124.507 289.855 122.555C289.474 123.733 289.379 124.984 289.577 126.207C289.776 127.429 290.261 128.586 290.995 129.583C287.751 133.649 285.985 138.045 285.985 140.678C279.246 152.999 288.883 163.583 301.2 170.324C306.112 173.027 311.785 174.016 317.322 173.136L317.837 170.935L318.535 172.917L320.866 179.563C323.554 180.864 326.219 182.29 328.861 183.841C327.858 179.126 327.046 174.419 326.487 169.817C325.713 163.554 328.41 154.229 330.355 148.559C331.561 145.064 332.18 141.393 332.187 137.696V137.534L334.081 143.621L340.977 140.678C339.694 133.317 340.977 124.96 325.597 125.685Z" fill="#2F2E41"/>
<path d="M609.193 526.001H104.807C104.527 526 104.26 525.887 104.062 525.689C103.865 525.49 103.754 525.222 103.754 524.942C103.754 524.662 103.865 524.393 104.062 524.195C104.26 523.996 104.527 523.884 104.807 523.883H609.193C609.473 523.884 609.741 523.996 609.938 524.195C610.135 524.393 610.246 524.662 610.246 524.942C610.246 525.222 610.135 525.49 609.938 525.689C609.741 525.887 609.473 526 609.193 526.001Z" fill="#CCCCCC"/>
<path d="M237.128 314.192C248.33 314.192 257.411 305.108 257.411 293.902C257.411 282.696 248.33 273.611 237.128 273.611C225.926 273.611 216.846 282.696 216.846 293.902C216.846 305.108 225.926 314.192 237.128 314.192Z" fill="#E6E6E6"/>
<path d="M542.301 282.242H471.161C468.963 282.239 466.855 281.365 465.3 279.809C463.746 278.254 462.872 276.146 462.869 273.947V235.185C462.872 232.986 463.746 230.878 465.301 229.323C466.855 227.768 468.963 226.893 471.161 226.891H542.301C544.499 226.893 546.607 227.768 548.161 229.323C549.716 230.878 550.59 232.986 550.593 235.185V273.947C550.59 276.146 549.716 278.254 548.161 279.809C546.607 281.365 544.499 282.239 542.301 282.242Z" fill="#F2F2F2"/>
<path d="M543.349 266.496C549.298 266.496 554.12 261.672 554.12 255.721C554.12 249.77 549.298 244.945 543.349 244.945C537.401 244.945 532.578 249.77 532.578 255.721C532.578 261.672 537.401 266.496 543.349 266.496Z" fill="#00B0FF"/>
<path d="M547.822 254.817H544.16V251.153C544.16 251.04 544.137 250.928 544.094 250.823C544.051 250.719 543.987 250.624 543.907 250.544C543.827 250.463 543.732 250.4 543.628 250.357C543.523 250.313 543.411 250.291 543.298 250.291C543.069 250.291 542.85 250.382 542.688 250.544C542.527 250.705 542.436 250.924 542.436 251.153V254.817H538.774C538.545 254.817 538.326 254.908 538.165 255.069C538.003 255.231 537.912 255.45 537.912 255.679C537.912 255.792 537.934 255.904 537.978 256.009C538.021 256.113 538.084 256.208 538.165 256.288C538.245 256.368 538.34 256.432 538.444 256.475C538.549 256.519 538.661 256.541 538.774 256.541H542.436V260.204C542.436 260.318 542.458 260.43 542.502 260.534C542.545 260.639 542.608 260.734 542.688 260.814C542.769 260.894 542.864 260.958 542.968 261.001C543.073 261.044 543.185 261.067 543.298 261.067C543.526 261.067 543.746 260.976 543.907 260.814C544.069 260.652 544.16 260.433 544.16 260.204V256.541H547.822C548.05 256.541 548.27 256.45 548.431 256.288C548.593 256.127 548.684 255.907 548.684 255.679C548.684 255.566 548.661 255.453 548.618 255.349C548.575 255.244 548.511 255.149 548.431 255.069C548.351 254.989 548.256 254.926 548.152 254.882C548.047 254.839 547.935 254.817 547.822 254.817L547.822 254.817Z" fill="white"/>
<path d="M571.285 271.241H512.659C510.171 271.238 507.785 270.248 506.026 268.488C504.266 266.727 503.276 264.341 503.273 261.852V226.843C503.274 226.385 503.457 225.946 503.781 225.622C504.105 225.299 504.545 225.117 505.003 225.117C505.46 225.117 505.9 225.299 506.224 225.622C506.548 225.946 506.731 226.385 506.732 226.843V236.219L574.829 242.412C576.189 242.436 577.486 242.993 578.44 243.963C579.393 244.933 579.929 246.239 579.93 247.6C579.93 247.707 579.92 247.814 579.901 247.919L576.469 266.228C576.422 267.572 575.855 268.846 574.888 269.781C573.921 270.716 572.63 271.239 571.285 271.241ZM506.732 239.692V261.852C506.734 263.424 507.359 264.931 508.47 266.042C509.581 267.154 511.087 267.779 512.659 267.781H571.285C571.743 267.78 572.183 267.598 572.507 267.274C572.831 266.95 573.014 266.51 573.014 266.051C573.014 265.944 573.024 265.838 573.044 265.733L576.467 247.467C576.433 247.033 576.237 246.627 575.917 246.331C575.598 246.036 575.178 245.871 574.743 245.871C574.691 245.871 574.639 245.868 574.587 245.863L506.732 239.692Z" fill="#00B0FF"/>
<path d="M497.08 287.385C498.672 287.385 499.962 286.094 499.962 284.502C499.962 282.91 498.672 281.619 497.08 281.619C495.488 281.619 494.198 282.91 494.198 284.502C494.198 286.094 495.488 287.385 497.08 287.385Z" fill="#00B0FF"/>
<path d="M568.979 287.385C570.57 287.385 571.86 286.094 571.86 284.502C571.86 282.91 570.57 281.619 568.979 281.619C567.387 281.619 566.097 282.91 566.097 284.502C566.097 286.094 567.387 287.385 568.979 287.385Z" fill="#00B0FF"/>
<path d="M571.861 281.62H494.775C494.316 281.62 493.877 281.437 493.552 281.113C493.228 280.789 493.046 280.349 493.046 279.89C493.046 279.431 493.228 278.991 493.552 278.667C493.877 278.342 494.316 278.16 494.775 278.16H571.861C572.32 278.16 572.759 278.342 573.084 278.667C573.408 278.991 573.59 279.431 573.59 279.89C573.59 280.349 573.408 280.789 573.084 281.113C572.759 281.437 572.32 281.62 571.861 281.62Z" fill="#00B0FF"/>
<path d="M509.613 227.997H494.628C494.17 227.996 493.731 227.813 493.407 227.489C493.084 227.164 492.902 226.725 492.902 226.267C492.902 225.809 493.084 225.369 493.407 225.045C493.731 224.721 494.17 224.538 494.628 224.537H509.613C510.071 224.538 510.51 224.721 510.833 225.045C511.157 225.369 511.338 225.809 511.338 226.267C511.338 226.725 511.157 227.164 510.833 227.489C510.51 227.813 510.071 227.996 509.613 227.997Z" fill="#00B0FF"/>
<path d="M521.635 280.74C521.222 280.741 520.822 280.592 520.509 280.322L509.144 270.552C508.971 270.404 508.829 270.223 508.726 270.021C508.623 269.818 508.562 269.597 508.544 269.37C508.527 269.143 508.554 268.915 508.625 268.699C508.696 268.483 508.808 268.283 508.957 268.11C509.105 267.938 509.286 267.796 509.489 267.694C509.691 267.591 509.913 267.53 510.139 267.513C510.366 267.496 510.594 267.524 510.81 267.595C511.026 267.666 511.226 267.779 511.398 267.928L522.763 277.698C523.031 277.929 523.222 278.235 523.31 278.578C523.398 278.92 523.38 279.281 523.257 279.612C523.134 279.943 522.913 280.229 522.623 280.431C522.333 280.632 521.988 280.74 521.635 280.74V280.74Z" fill="#00B0FF"/>
<path d="M524.03 270.18C523.803 270.18 523.578 270.135 523.368 270.048C523.158 269.961 522.968 269.834 522.807 269.673C522.647 269.513 522.519 269.322 522.432 269.112C522.346 268.902 522.301 268.677 522.301 268.45V240.683C522.301 240.224 522.483 239.784 522.807 239.46C523.132 239.135 523.571 238.953 524.03 238.953C524.488 238.953 524.928 239.135 525.253 239.46C525.577 239.784 525.759 240.224 525.759 240.683V268.45C525.759 268.677 525.714 268.902 525.627 269.112C525.541 269.322 525.413 269.512 525.253 269.673C525.092 269.834 524.902 269.961 524.692 270.048C524.482 270.135 524.257 270.18 524.03 270.18H524.03Z" fill="#00B0FF"/>
<path d="M560.555 270.178C560.328 270.178 560.103 270.133 559.894 270.046C559.684 269.959 559.493 269.832 559.333 269.671C559.172 269.511 559.045 269.32 558.958 269.11C558.871 268.9 558.826 268.676 558.826 268.448V242.988C558.827 242.529 559.01 242.091 559.334 241.767C559.658 241.443 560.097 241.262 560.555 241.262C561.013 241.262 561.452 241.443 561.777 241.767C562.101 242.091 562.283 242.529 562.284 242.988V268.448C562.284 268.675 562.24 268.9 562.153 269.11C562.066 269.32 561.939 269.511 561.778 269.671C561.617 269.832 561.427 269.959 561.217 270.046C561.007 270.133 560.782 270.178 560.555 270.178H560.555Z" fill="#00B0FF"/>
</g>
<defs>
<clipPath id="clip0_994_9963">
<rect width="714" height="526" fill="white"/>
</clipPath>
</defs>
</svg>
