<svg width="582" height="511" viewBox="0 0 582 511" fill="none" xmlns="http://www.w3.org/2000/svg">
<g clip-path="url(#clip0_994_7740)">
<path d="M507.045 492.508V441.869C507.045 441.869 526.789 477.77 507.045 492.508Z" fill="#F1F1F1"/>
<path d="M508.264 492.499L470.942 458.254C470.942 458.254 510.755 467.995 508.264 492.499Z" fill="#F1F1F1"/>
<path d="M74.5594 492.508V441.869C74.5594 441.869 54.8151 477.77 74.5594 492.508Z" fill="#F1F1F1"/>
<path d="M73.3406 492.499L110.663 458.254C110.663 458.254 70.8505 467.995 73.3406 492.499Z" fill="#F1F1F1"/>
<path d="M413.742 116.935H411.037V42.8682C411.037 37.2386 409.928 31.6642 407.773 26.4632C405.617 21.2622 402.458 16.5365 398.475 12.5558C394.493 8.57513 389.765 5.41749 384.561 3.26316C379.357 1.10883 373.78 4.59643e-06 368.148 0H211.148C205.515 -1.19504e-05 199.938 1.10879 194.734 3.26311C189.531 5.41742 184.803 8.57505 180.82 12.5557C176.837 16.5364 173.678 21.2621 171.523 26.4631C169.367 31.6641 168.258 37.2385 168.258 42.868V449.207C168.258 460.576 172.777 471.48 180.82 479.519C188.863 487.559 199.772 492.075 211.147 492.075H368.148C379.523 492.075 390.432 487.559 398.475 479.52C406.519 471.48 411.037 460.577 411.037 449.207V169.658H413.742V116.935Z" fill="#3F3D56"/>
<path d="M369.879 11.1524H349.385C350.327 13.4618 350.687 15.9674 350.432 18.4486C350.178 20.9297 349.317 23.3102 347.925 25.3803C346.533 27.4504 344.653 29.1466 342.451 30.3195C340.248 31.4924 337.791 32.1059 335.296 32.1061H245.352C242.857 32.1059 240.4 31.4924 238.198 30.3195C235.995 29.1466 234.116 27.4504 232.724 25.3803C231.332 23.3102 230.47 20.9297 230.216 18.4486C229.961 15.9674 230.321 13.4618 231.263 11.1523H212.122C203.628 11.1523 195.481 14.5252 189.474 20.5288C183.467 26.5325 180.093 34.6753 180.093 43.1657V448.909C180.093 453.113 180.921 457.276 182.531 461.16C184.14 465.044 186.5 468.573 189.474 471.546C192.448 474.518 195.979 476.876 199.865 478.485C203.751 480.094 207.916 480.922 212.122 480.922H369.879C374.085 480.922 378.25 480.094 382.136 478.485C386.022 476.876 389.553 474.518 392.527 471.546C395.501 468.573 397.86 465.044 399.47 461.16C401.08 457.276 401.908 453.113 401.908 448.909V43.1658C401.908 38.9617 401.08 34.7988 399.47 30.9148C397.86 27.0307 395.501 23.5016 392.527 20.5289C389.553 17.5561 386.022 15.198 382.136 13.5892C378.25 11.9804 374.085 11.1524 369.879 11.1524Z" fill="#E5F9FD"/>
<path d="M365.926 473.955H216.073C198.855 473.955 184.847 461.458 184.847 446.098V425.93C184.847 413.687 196.003 403.727 209.715 403.727H372.285C385.997 403.727 397.153 413.687 397.153 425.93V446.098C397.153 461.458 383.145 473.955 365.926 473.955Z" fill="#E5E5E5"/>
<path d="M231.826 134.993H198.399C197.8 134.992 197.226 134.754 196.803 134.331C196.38 133.908 196.141 133.334 196.141 132.736V99.3258C196.141 98.7273 196.38 98.1535 196.803 97.7303C197.226 97.3071 197.8 97.0691 198.399 97.0684H231.826C232.424 97.0691 232.999 97.3071 233.422 97.7303C233.845 98.1535 234.084 98.7273 234.084 99.3258V132.736C234.084 133.334 233.845 133.908 233.422 134.331C232.999 134.754 232.424 134.992 231.826 134.993Z" fill="#00B0FF"/>
<path d="M282.417 134.993H248.991C248.392 134.992 247.818 134.754 247.395 134.331C246.971 133.908 246.733 133.334 246.732 132.736V99.3258C246.733 98.7273 246.971 98.1535 247.395 97.7303C247.818 97.3071 248.392 97.0691 248.991 97.0684H282.417C283.016 97.0691 283.59 97.3071 284.014 97.7303C284.437 98.1535 284.675 98.7273 284.676 99.3258V132.736C284.675 133.334 284.437 133.908 284.014 134.331C283.59 134.754 283.016 134.992 282.417 134.993Z" fill="#E5E5E5"/>
<path d="M333.009 134.993H299.583C298.984 134.992 298.41 134.754 297.986 134.331C297.563 133.908 297.325 133.334 297.324 132.736V99.3258C297.325 98.7273 297.563 98.1535 297.986 97.7303C298.41 97.3071 298.984 97.0691 299.583 97.0684H333.009C333.608 97.0691 334.182 97.3071 334.605 97.7303C335.029 98.1535 335.267 98.7273 335.268 99.3258V132.736C335.267 133.334 335.029 133.908 334.605 134.331C334.182 134.754 333.608 134.992 333.009 134.993Z" fill="#E5E5E5"/>
<path d="M383.6 134.993H350.174C349.575 134.992 349.001 134.754 348.577 134.331C348.154 133.908 347.916 133.334 347.915 132.736V99.3258C347.916 98.7273 348.154 98.1535 348.577 97.7303C349.001 97.3071 349.575 97.0691 350.174 97.0684H383.6C384.199 97.0691 384.773 97.3071 385.196 97.7303C385.62 98.1535 385.858 98.7273 385.859 99.3258V132.736C385.858 133.334 385.62 133.908 385.196 134.331C384.773 134.754 384.199 134.992 383.6 134.993Z" fill="#E5E5E5"/>
<path d="M231.706 196.846H198.28C197.681 196.846 197.107 196.608 196.684 196.185C196.26 195.761 196.022 195.188 196.021 194.589V161.179C196.022 160.581 196.26 160.007 196.684 159.584C197.107 159.161 197.681 158.923 198.28 158.922H231.706C232.305 158.923 232.879 159.161 233.303 159.584C233.726 160.007 233.964 160.581 233.965 161.179V194.589C233.964 195.188 233.726 195.761 233.303 196.185C232.879 196.608 232.305 196.846 231.706 196.846Z" fill="#E5E5E5"/>
<path d="M282.298 196.846H248.872C248.273 196.846 247.699 196.608 247.276 196.185C246.852 195.761 246.614 195.188 246.613 194.589V161.179C246.614 160.581 246.852 160.007 247.276 159.584C247.699 159.161 248.273 158.923 248.872 158.922H282.298C282.897 158.923 283.471 159.161 283.895 159.584C284.318 160.007 284.556 160.581 284.557 161.179V194.589C284.556 195.188 284.318 195.761 283.895 196.185C283.471 196.608 282.897 196.846 282.298 196.846Z" fill="#E5E5E5"/>
<path d="M332.889 196.846H299.463C298.864 196.846 298.29 196.608 297.866 196.185C297.443 195.761 297.205 195.188 297.204 194.589V161.179C297.205 160.581 297.443 160.007 297.866 159.584C298.29 159.161 298.864 158.923 299.463 158.922H332.889C333.488 158.923 334.062 159.161 334.485 159.584C334.909 160.007 335.147 160.581 335.148 161.179V194.589C335.147 195.188 334.909 195.761 334.485 196.185C334.062 196.608 333.488 196.846 332.889 196.846Z" fill="#00B0FF"/>
<path d="M383.481 196.846H350.054C349.456 196.846 348.882 196.608 348.458 196.185C348.035 195.761 347.797 195.188 347.796 194.589V161.179C347.797 160.581 348.035 160.007 348.458 159.584C348.882 159.161 349.456 158.923 350.054 158.922H383.481C384.08 158.923 384.654 159.161 385.077 159.584C385.501 160.007 385.739 160.581 385.739 161.179V194.589C385.739 195.188 385.501 195.761 385.077 196.185C384.654 196.608 384.08 196.846 383.481 196.846Z" fill="#00B0FF"/>
<path d="M231.587 258.7H198.161C197.562 258.699 196.988 258.461 196.565 258.038C196.141 257.615 195.903 257.041 195.902 256.443V223.033C195.903 222.434 196.141 221.861 196.565 221.437C196.988 221.014 197.562 220.776 198.161 220.775H231.587C232.186 220.776 232.76 221.014 233.184 221.437C233.607 221.861 233.845 222.434 233.846 223.033V256.443C233.845 257.041 233.607 257.615 233.184 258.038C232.76 258.461 232.186 258.699 231.587 258.7Z" fill="#E5E5E5"/>
<path d="M282.178 258.7H248.752C248.153 258.699 247.579 258.461 247.155 258.038C246.732 257.615 246.494 257.041 246.493 256.443V223.033C246.494 222.434 246.732 221.861 247.155 221.437C247.579 221.014 248.153 220.776 248.752 220.775H282.178C282.777 220.776 283.351 221.014 283.774 221.437C284.198 221.861 284.436 222.434 284.437 223.033V256.443C284.436 257.041 284.198 257.615 283.774 258.038C283.351 258.461 282.777 258.699 282.178 258.7Z" fill="#E5E5E5"/>
<path d="M332.77 258.7H299.344C298.745 258.699 298.171 258.461 297.747 258.038C297.324 257.615 297.086 257.041 297.085 256.443V223.033C297.086 222.434 297.324 221.861 297.747 221.437C298.171 221.014 298.745 220.776 299.344 220.775H332.77C333.369 220.776 333.943 221.014 334.366 221.437C334.79 221.861 335.028 222.434 335.029 223.033V256.443C335.028 257.041 334.79 257.615 334.366 258.038C333.943 258.461 333.369 258.699 332.77 258.7Z" fill="#E5E5E5"/>
<path d="M383.361 258.7H349.934C349.336 258.699 348.762 258.461 348.338 258.038C347.915 257.615 347.676 257.041 347.676 256.443V223.033C347.676 222.434 347.915 221.861 348.338 221.437C348.762 221.014 349.336 220.776 349.934 220.775H383.361C383.96 220.776 384.534 221.014 384.957 221.437C385.38 221.861 385.619 222.434 385.619 223.033V256.443C385.619 257.041 385.38 257.615 384.957 258.038C384.534 258.461 383.96 258.699 383.361 258.7Z" fill="#E5E5E5"/>
<path d="M231.467 320.553H198.041C197.442 320.553 196.868 320.315 196.445 319.892C196.021 319.468 195.783 318.895 195.782 318.296V284.886C195.783 284.288 196.021 283.714 196.445 283.291C196.868 282.868 197.442 282.63 198.041 282.629H231.467C232.066 282.63 232.64 282.868 233.064 283.291C233.487 283.714 233.725 284.288 233.726 284.886V318.296C233.725 318.895 233.487 319.468 233.064 319.892C232.64 320.315 232.066 320.553 231.467 320.553Z" fill="#E5E5E5"/>
<path d="M282.059 320.553H248.633C248.034 320.553 247.46 320.315 247.036 319.892C246.613 319.468 246.375 318.895 246.374 318.296V284.886C246.375 284.288 246.613 283.714 247.036 283.291C247.46 282.868 248.034 282.63 248.633 282.629H282.059C282.658 282.63 283.232 282.868 283.655 283.291C284.079 283.714 284.317 284.288 284.318 284.886V318.296C284.317 318.895 284.079 319.468 283.655 319.892C283.232 320.315 282.658 320.553 282.059 320.553Z" fill="#E5E5E5"/>
<path d="M332.65 320.553H299.223C298.625 320.553 298.051 320.315 297.627 319.892C297.204 319.468 296.966 318.895 296.965 318.296V284.886C296.966 284.288 297.204 283.714 297.627 283.291C298.051 282.868 298.625 282.63 299.223 282.629H332.65C333.249 282.63 333.823 282.868 334.246 283.291C334.67 283.714 334.908 284.288 334.908 284.886V318.296C334.908 318.895 334.67 319.468 334.246 319.892C333.823 320.315 333.249 320.553 332.65 320.553Z" fill="#E5E5E5"/>
<path d="M383.242 320.553H349.815C349.216 320.553 348.642 320.315 348.219 319.892C347.796 319.468 347.557 318.895 347.557 318.296V284.886C347.557 284.288 347.796 283.714 348.219 283.291C348.642 282.868 349.216 282.63 349.815 282.629H383.242C383.84 282.63 384.415 282.868 384.838 283.291C385.261 283.714 385.5 284.288 385.5 284.886V318.296C385.5 318.895 385.261 319.468 384.838 319.892C384.415 320.315 383.84 320.553 383.242 320.553Z" fill="#E5E5E5"/>
<path d="M231.826 458.706H198.399C197.8 458.705 197.226 458.467 196.803 458.044C196.38 457.621 196.141 457.047 196.141 456.448V423.039C196.141 422.44 196.38 421.866 196.803 421.443C197.226 421.02 197.8 420.782 198.399 420.781H231.826C232.424 420.782 232.999 421.02 233.422 421.443C233.845 421.866 234.084 422.44 234.084 423.039V456.448C234.084 457.047 233.845 457.621 233.422 458.044C232.999 458.467 232.424 458.705 231.826 458.706Z" fill="white"/>
<path d="M282.417 458.706H248.991C248.392 458.705 247.818 458.467 247.395 458.044C246.971 457.621 246.733 457.047 246.732 456.448V423.039C246.733 422.44 246.971 421.866 247.395 421.443C247.818 421.02 248.392 420.782 248.991 420.781H282.417C283.016 420.782 283.59 421.02 284.014 421.443C284.437 421.866 284.675 422.44 284.676 423.039V456.448C284.675 457.047 284.437 457.621 284.014 458.044C283.59 458.467 283.016 458.705 282.417 458.706Z" fill="white"/>
<path d="M333.009 458.706H299.583C298.984 458.705 298.41 458.467 297.986 458.044C297.563 457.621 297.325 457.047 297.324 456.448V423.039C297.325 422.44 297.563 421.866 297.986 421.443C298.41 421.02 298.984 420.782 299.583 420.781H333.009C333.608 420.782 334.182 421.02 334.605 421.443C335.029 421.866 335.267 422.44 335.268 423.039V456.448C335.267 457.047 335.029 457.621 334.605 458.044C334.182 458.467 333.608 458.705 333.009 458.706Z" fill="white"/>
<path d="M383.6 458.706H350.174C349.575 458.705 349.001 458.467 348.577 458.044C348.154 457.621 347.916 457.047 347.915 456.448V423.039C347.916 422.44 348.154 421.866 348.577 421.443C349.001 421.02 349.575 420.782 350.174 420.781H383.6C384.199 420.782 384.773 421.02 385.196 421.443C385.62 421.866 385.858 422.44 385.859 423.039V456.448C385.858 457.047 385.62 457.621 385.196 458.044C384.773 458.467 384.199 458.705 383.6 458.706Z" fill="white"/>
<path d="M274.619 388.276C277.113 388.276 279.136 386.254 279.136 383.761C279.136 381.267 277.113 379.246 274.619 379.246C272.124 379.246 270.102 381.267 270.102 383.761C270.102 386.254 272.124 388.276 274.619 388.276Z" fill="#E5E5E5"/>
<path d="M290.88 388.276C293.375 388.276 295.397 386.254 295.397 383.761C295.397 381.267 293.375 379.246 290.88 379.246C288.386 379.246 286.363 381.267 286.363 383.761C286.363 386.254 288.386 388.276 290.88 388.276Z" fill="#E5E5E5"/>
<path d="M307.142 388.276C309.637 388.276 311.659 386.254 311.659 383.761C311.659 381.267 309.637 379.246 307.142 379.246C304.647 379.246 302.625 381.267 302.625 383.761C302.625 386.254 304.647 388.276 307.142 388.276Z" fill="#E5E5E5"/>
<path d="M581.3 492.806H0.700361C0.514614 492.806 0.336474 492.733 0.20513 492.601C0.0737873 492.47 0 492.292 0 492.106C0 491.921 0.0737873 491.743 0.20513 491.611C0.336474 491.48 0.514614 491.406 0.700361 491.406H581.3C581.485 491.406 581.664 491.48 581.795 491.611C581.926 491.743 582 491.921 582 492.106C582 492.292 581.926 492.47 581.795 492.601C581.664 492.733 581.485 492.806 581.3 492.806Z" fill="#CBCBCB"/>
<path d="M228.572 354.977C229.517 354.032 230.244 352.893 230.7 351.638C231.157 350.383 231.333 349.043 231.215 347.713C231.098 346.382 230.69 345.094 230.02 343.939C229.351 342.783 228.436 341.788 227.34 341.024L236.161 309.783L220.078 314.896L214.167 343.779C213.005 345.704 212.59 347.988 213 350.199C213.41 352.409 214.618 354.393 216.393 355.773C218.169 357.153 220.39 357.834 222.634 357.688C224.879 357.541 226.992 356.576 228.572 354.977Z" fill="#FFB7B7"/>
<path d="M233.145 335.828C232.858 335.883 232.566 335.908 232.273 335.902L216.845 335.593C216.264 335.581 215.693 335.446 215.168 335.197C214.644 334.947 214.179 334.589 213.804 334.146C213.429 333.702 213.153 333.184 212.993 332.626C212.834 332.068 212.796 331.482 212.881 330.908L228.532 225.213C229 222.156 230.545 219.366 232.89 217.349C235.235 215.331 238.225 214.218 241.319 214.211C243.273 214.216 245.2 214.664 246.955 215.523C248.71 216.381 250.246 217.627 251.449 219.165C252.652 220.704 253.489 222.496 253.897 224.406C254.306 226.316 254.275 228.293 253.806 230.189L242.712 275.099L236.421 332.262C236.33 333.129 235.962 333.944 235.372 334.586C234.782 335.228 234.002 335.664 233.145 335.828Z" fill="#3F3D56"/>
<path d="M239.597 502.68H248.184L252.269 469.578L239.596 469.579L239.597 502.68Z" fill="#FFB7B7"/>
<path d="M237.407 499.88L254.317 499.879H254.317C257.175 499.879 259.916 501.014 261.937 503.034C263.958 505.054 265.093 507.793 265.094 510.649V510.999L237.408 511L237.407 499.88Z" fill="#2F2E41"/>
<path d="M276.21 499.894L284.742 500.85L292.493 468.409L279.899 466.998L276.21 499.894Z" fill="#FFB7B7"/>
<path d="M274.345 496.865L291.149 498.748L291.15 498.748C293.99 499.067 296.587 500.5 298.37 502.732C300.153 504.965 300.976 507.814 300.658 510.652L300.619 511L273.105 507.917L274.345 496.865Z" fill="#2F2E41"/>
<path d="M231.538 318.474C231.538 318.474 219.766 344.521 230.161 361.438L236.355 493.158H250.574L264.369 386.756L288.882 418.257L273.947 491.777L291.339 492.753L315.495 418.257C315.495 418.257 296.937 336.112 290.808 334.134L286.781 315.355L231.538 318.474Z" fill="#2F2E41"/>
<path d="M226.299 341.34C226.299 341.34 215.694 353.504 243.709 357.705C271.723 361.905 301.138 355.605 301.839 347.204C302.539 338.804 226.299 341.34 226.299 341.34Z" fill="#CBCBCB"/>
<path d="M366.733 190.439C366.69 191.627 366.387 192.79 365.845 193.848C365.303 194.905 364.535 195.831 363.597 196.561C362.658 197.29 361.571 197.804 360.411 198.068C359.252 198.332 358.049 198.338 356.887 198.087L346.298 213.35L335.448 209.18L350.705 187.836C351.257 185.913 352.495 184.259 354.186 183.187C355.876 182.116 357.901 181.701 359.876 182.022C361.852 182.343 363.641 183.377 364.905 184.928C366.169 186.48 366.819 188.441 366.733 190.439Z" fill="#FFB7B7"/>
<path d="M277.177 210.078L262.205 203.309L243.023 204.679C243.023 204.679 219.897 231.704 229.001 257.604L223.398 347.906C259.117 357.706 275.353 339.325 301.139 347.206L293.174 246.846L277.177 210.078Z" fill="#3F3D56"/>
<path d="M267.171 216.654L277.177 210.078C277.177 210.078 291.077 207.978 296.633 213.366C296.633 213.366 315.491 214.943 320.046 219.649L325.061 220.778L341.72 199.217L351.915 204.753L337.207 244.654L293.174 246.845L267.171 216.654Z" fill="#3F3D56"/>
<path d="M270.623 195.713C282.076 189.456 286.285 175.103 280.025 163.656C273.764 152.209 259.404 148.002 247.951 154.259C236.498 160.517 232.289 174.87 238.55 186.317C244.811 197.764 259.17 201.971 270.623 195.713Z" fill="#FFB7B7"/>
<path d="M238.847 156.519C243.065 148.935 248.337 144.025 257.016 144.202C265.696 144.379 273.204 144.036 277.109 151.786C278.141 149.854 278.658 147.689 278.61 145.5C279.789 146.265 280.718 147.359 281.283 148.646C281.848 149.932 282.024 151.356 281.789 152.742C282.548 152.297 283.184 151.669 283.638 150.915C284.092 150.161 284.349 149.305 284.386 148.426C287.282 149.389 288.035 153.47 286.57 156.146C285.104 158.823 282.229 160.371 279.471 161.679C276.714 162.988 277.987 169.908 276.186 172.372C274.929 174.091 274.354 176.199 273.507 178.153C273.472 178.23 273.411 178.293 273.336 178.332C271.394 179.414 270.168 181.348 270.511 183.543C270.551 183.708 270.542 183.881 270.483 184.04C268.025 188.669 265.371 193.513 260.915 196.275C257.339 198.433 253.056 199.095 248.996 198.116C244.441 197.028 240.503 194.01 237.664 190.287C234.825 186.565 232.998 182.165 231.626 177.69C230.408 173.72 229.523 169.475 230.488 165.436C231.453 161.398 234.723 157.658 238.866 157.346" fill="#2F2E41"/>
</g>
<defs>
<clipPath id="clip0_994_7740">
<rect width="582" height="511" fill="white"/>
</clipPath>
</defs>
</svg>
