<svg width="572" height="512" viewBox="0 0 572 512" fill="none" xmlns="http://www.w3.org/2000/svg">
<g clip-path="url(#clip0_935_6990)">
<path d="M535.505 99.733C555.945 129.576 551.422 168.236 551.422 168.236C551.422 168.236 513.759 158.511 493.32 128.667C472.88 98.8239 477.403 60.1641 477.403 60.1641C477.403 60.1641 515.066 69.8897 535.505 99.733Z" fill="#2F2E41"/>
<path d="M520.798 105.431C523.19 141.532 550.644 169.105 550.644 169.105C550.644 169.105 574.221 138.146 571.829 102.046C569.437 65.9447 541.983 38.3721 541.983 38.3721C541.983 38.3721 518.407 69.3305 520.798 105.431Z" fill="#00B0FF"/>
<path d="M286.128 0.752025L563.634 140.372C565.941 141.533 567.855 143.349 569.136 145.593C570.416 147.838 571.006 150.41 570.832 152.989L554.709 391.983C554.637 393.055 554.3 394.092 553.73 395.002C553.159 395.912 552.373 396.667 551.44 397.198C550.507 397.73 549.457 398.022 548.384 398.049C547.31 398.076 546.247 397.836 545.289 397.351L261.455 252.392L276.027 6.57808C276.095 5.4234 276.449 4.3038 277.057 3.31986C277.665 2.33592 278.507 1.51844 279.509 0.940837C280.51 0.363236 281.639 0.0436037 282.795 0.010648C283.95 -0.0223077 285.095 0.232444 286.128 0.752025Z" fill="#D0CDE1"/>
<path d="M289.322 5.62144L560.012 141.812C562.262 142.944 564.129 144.716 565.378 146.905C566.627 149.094 567.203 151.604 567.033 154.119L551.306 387.242C551.236 388.288 550.907 389.3 550.351 390.188C549.794 391.075 549.027 391.811 548.117 392.33C547.207 392.849 546.183 393.134 545.136 393.16C544.089 393.186 543.052 392.952 542.117 392.479L265.255 251.081L279.469 11.3044C279.535 10.1781 279.881 9.08598 280.474 8.12621C281.066 7.16643 281.888 6.36903 282.865 5.80562C283.842 5.2422 284.943 4.93042 286.07 4.89827C287.197 4.86613 288.315 5.11462 289.322 5.62144Z" fill="#3F3D56"/>
<path d="M301.185 23.7108L546.557 147.163C548.598 148.19 550.29 149.796 551.422 151.78C552.554 153.765 553.076 156.04 552.922 158.319L538.666 369.639C538.602 370.587 538.305 371.504 537.8 372.309C537.296 373.113 536.6 373.781 535.775 374.251C534.95 374.721 534.022 374.979 533.073 375.003C532.124 375.026 531.184 374.814 530.337 374.386L279.369 246.213L292.254 28.8622C292.314 27.8412 292.627 26.8513 293.164 25.9813C293.702 25.1113 294.447 24.3884 295.332 23.8777C296.218 23.367 297.216 23.0844 298.238 23.0552C299.259 23.0261 300.272 23.2514 301.185 23.7108Z" fill="#E5F9FD"/>
<path d="M47.9976 369.992L325.858 510.027C328.444 511.328 331.299 512.004 334.193 512C337.087 511.997 339.941 511.313 342.523 510.005L548.077 405.585C550.487 403.173 550.15 399.598 549.379 396.915C549.005 395.615 548.496 394.359 547.86 393.166L519.849 378.423L284.341 260.835L270.271 253.36C266.546 251.386 262.398 250.345 258.183 250.328C253.968 250.311 249.811 251.318 246.071 253.262L47.9107 356.27C46.65 356.922 45.5941 357.911 44.86 359.127C44.1259 360.342 43.7421 361.737 43.7511 363.158C43.7601 364.578 44.1616 365.968 44.911 367.174C45.6605 368.38 46.7287 369.356 47.9976 369.992Z" fill="#D0CDE1"/>
<path opacity="0.1" d="M47.998 369.992L325.858 510.027C328.444 511.328 331.299 512.004 334.193 512C337.088 511.997 339.941 511.313 342.523 510.005L548.077 405.585C550.487 403.173 550.151 399.598 549.38 396.915L344.441 503.514C341.94 504.814 339.167 505.505 336.349 505.529C333.531 505.553 330.747 504.91 328.224 503.653L43.8506 361.876C43.5833 363.495 43.8418 365.157 44.5884 366.618C45.3349 368.078 46.53 369.261 47.998 369.992Z" fill="black"/>
<path opacity="0.1" d="M311.731 411.949L221.746 366.444C219.934 365.528 217.929 365.062 215.899 365.085C213.869 365.108 211.875 365.62 210.085 366.577L157.884 394.485C157.281 394.808 156.778 395.29 156.429 395.879C156.081 396.468 155.901 397.141 155.909 397.825C155.918 398.509 156.113 399.178 156.475 399.759C156.837 400.34 157.351 400.81 157.962 401.118L249.711 447.418C251.235 448.186 252.924 448.568 254.63 448.529C256.335 448.49 258.005 448.031 259.492 447.193L311.901 417.645C312.412 417.357 312.835 416.935 313.123 416.424C313.411 415.913 313.554 415.332 313.537 414.746C313.519 414.159 313.342 413.589 313.024 413.096C312.705 412.603 312.258 412.207 311.731 411.949Z" fill="black"/>
<path opacity="0.1" d="M523.661 404.339L426.828 455.818C425.714 456.411 424.474 456.726 423.212 456.739C421.95 456.752 420.704 456.461 419.578 455.891L145.985 317.435C145.214 317.044 144.567 316.447 144.116 315.71C143.665 314.972 143.428 314.124 143.432 313.259C143.435 312.395 143.68 311.549 144.137 310.815C144.594 310.082 145.246 309.49 146.02 309.107L240.58 262.271C242.005 261.565 243.575 261.2 245.165 261.206C246.755 261.212 248.322 261.587 249.742 262.303L523.618 400.394C523.981 400.577 524.287 400.857 524.503 401.203C524.718 401.548 524.834 401.946 524.839 402.354C524.843 402.761 524.735 403.161 524.528 403.511C524.32 403.862 524.02 404.148 523.661 404.339Z" fill="black"/>
<path d="M369.181 147.605L368.695 148.577L457.722 193.122L458.207 192.151L369.181 147.605Z" fill="#00B0FF"/>
<path d="M369.173 160.669L368.679 161.636L457.729 207.22L458.223 206.254L369.173 160.669Z" fill="#00B0FF"/>
<path d="M385.474 185.627L384.979 186.595L436 212.683L436.494 211.716L385.474 185.627Z" fill="#00B0FF"/>
<path d="M106.732 240.021C106.732 240.021 85.0221 230.555 74.8251 240.555C64.6281 250.555 102.127 247.263 106.732 240.021Z" fill="#3F3D56"/>
<path d="M69.2445 195.126C76.5402 182.789 90.9741 182.215 90.9741 182.215C90.9741 182.215 105.039 180.415 114.062 199.203C122.472 216.715 134.078 233.624 115.93 237.723L112.652 227.513L110.622 238.483C108.038 238.669 105.446 238.714 102.857 238.616C83.4226 237.988 64.9138 238.8 65.5098 231.821C66.302 222.543 62.2246 206.996 69.2445 195.126Z" fill="#2F2E41"/>
<path d="M59.0359 418.762C59.0359 418.762 68.2461 435.879 74.167 435.879C80.0878 435.879 79.4299 447.071 78.1142 449.704C76.7984 452.337 73.5091 458.262 78.7721 466.821C80.6104 469.81 80.2815 473.201 79.0752 476.349C75.6952 485.167 62.5469 482.496 62.9664 473.06C62.971 472.956 62.9766 472.851 62.9832 472.746C63.6411 462.212 58.3781 445.754 53.1151 441.804C47.8522 437.854 43.2471 427.32 43.2471 427.32L59.0359 418.762Z" fill="#FFB8B8"/>
<path d="M122.192 414.812C122.192 414.812 112.981 431.928 107.061 431.928C101.14 431.928 101.798 443.12 103.113 445.754C104.429 448.387 107.718 454.312 102.455 462.871C100.617 465.86 100.946 469.251 102.152 472.399C105.532 481.217 118.681 478.545 118.261 469.11C118.257 469.006 118.251 468.901 118.244 468.796C117.586 458.262 122.849 441.804 128.112 437.854C133.375 433.903 137.98 423.37 137.98 423.37L122.192 414.812Z" fill="#FFB8B8"/>
<path d="M114.955 330.544L118.902 339.102C118.902 339.102 176.795 358.194 171.532 380.578C166.269 402.961 140.612 437.854 136.665 436.537C132.718 435.22 111.666 431.27 111.008 420.078C110.35 408.886 126.139 389.136 126.139 389.136L104.429 369.386L72.8379 368.727L45.8786 389.136C45.8786 389.136 74.167 414.153 61.6675 424.028C49.168 433.903 30.7476 440.487 28.1161 436.537C25.4846 432.587 -4.11958 373.994 0.485513 368.727C5.0906 363.461 51.7994 343.71 51.7994 343.71L64.299 325.935L112.981 323.302L114.955 330.544Z" fill="#2F2E41"/>
<path d="M103.114 221.917C103.114 221.917 99.8243 243.642 106.403 246.275C112.982 248.909 93.2456 260.1 93.2456 260.1H82.0618L74.8252 244.959C74.8252 244.959 81.4039 233.108 77.4567 221.917C73.5095 210.725 103.114 221.917 103.114 221.917Z" fill="#FFB8B8"/>
<path opacity="0.1" d="M103.114 221.917C103.114 221.917 99.8243 243.642 106.403 246.275C112.982 248.909 93.2456 260.1 93.2456 260.1H82.0618L74.8252 244.959C74.8252 244.959 81.4039 233.108 77.4567 221.917C73.5095 210.725 103.114 221.917 103.114 221.917Z" fill="black"/>
<path d="M107.718 240.351C107.718 240.351 100.481 248.251 99.1657 249.567C97.8499 250.884 91.9291 258.126 79.4295 247.592C66.93 237.059 65.6143 249.567 65.6143 249.567V328.569C65.6143 328.569 76.1402 323.96 84.6925 328.569C93.2448 333.177 111.007 327.252 111.007 327.252L114.297 245.617L107.718 240.351Z" fill="#D0CDE1"/>
<path d="M102.886 240.35C102.886 240.35 109.034 237.717 114.297 240.35C119.56 242.983 137.98 256.15 136.665 262.075C135.349 268.001 118.244 309.476 130.086 329.226C141.927 348.977 143.901 354.244 143.901 354.244L114.955 339.102C114.955 339.102 92.5872 325.276 94.5608 316.718C96.5344 308.16 102.886 240.35 102.886 240.35Z" fill="#3F3D56"/>
<path d="M76.7911 240.351C76.7911 240.351 62.9836 241.667 62.3257 242.984C61.6678 244.301 41.6028 249.897 42.9185 255.822C44.2343 261.747 62.3257 314.743 54.4313 324.619C46.5368 334.494 33.3794 348.319 37.9845 349.636C42.5896 350.952 50.484 347.661 58.3785 349.636C66.2729 351.611 84.6933 335.152 82.7197 317.377C80.7461 299.602 82.7042 244.959 76.7911 240.351Z" fill="#3F3D56"/>
<path d="M109.692 366.094V372.678C109.692 372.678 112.981 387.82 102.455 387.161C91.9293 386.503 98.508 368.728 98.508 368.728L99.1659 362.803L109.692 366.094Z" fill="#FFB8B8"/>
<path d="M80.0874 366.753C80.0874 366.753 87.324 381.895 80.0874 383.211C72.8509 384.528 67.5879 374.653 67.5879 372.02C67.5879 369.386 80.0874 366.753 80.0874 366.753Z" fill="#FFB8B8"/>
<path d="M70.5491 215.662C71.2758 215.662 71.8649 214.483 71.8649 213.029C71.8649 211.574 71.2758 210.396 70.5491 210.396C69.8225 210.396 69.2334 211.574 69.2334 213.029C69.2334 214.483 69.8225 215.662 70.5491 215.662Z" fill="#FFB8B8"/>
<path d="M109.364 215.662C110.09 215.662 110.679 214.483 110.679 213.029C110.679 211.574 110.09 210.396 109.364 210.396C108.637 210.396 108.048 211.574 108.048 213.029C108.048 214.483 108.637 215.662 109.364 215.662Z" fill="#FFB8B8"/>
<path d="M59.0357 248.909C59.0357 248.909 42.5889 248.909 43.2468 255.493C43.9046 262.076 65.6144 375.311 65.6144 375.311C65.6144 375.311 74.8246 366.753 82.719 368.728L59.0357 248.909Z" fill="#3F3D56"/>
<path d="M122.85 250.884C122.85 250.884 139.297 254.175 139.297 264.051C139.297 273.926 115.613 368.727 112.324 368.727C109.035 368.727 96.5352 366.752 96.5352 363.461C96.5352 360.169 122.85 250.884 122.85 250.884Z" fill="#3F3D56"/>
<path opacity="0.2" d="M119.231 270.305L104.429 328.233C104.429 328.233 111.336 277.546 119.231 270.305Z" fill="black"/>
<path opacity="0.2" d="M61.6562 262.166L76.6267 337.904C76.6267 337.904 71.8421 266.535 61.6562 262.166Z" fill="black"/>
<path d="M89.9562 232.451C100.493 232.451 109.034 223.903 109.034 213.359C109.034 202.814 100.493 194.267 89.9562 194.267C79.4196 194.267 70.8779 202.814 70.8779 213.359C70.8779 223.903 79.4196 232.451 89.9562 232.451Z" fill="#FFB8B8"/>
<path d="M72.4703 193.936L86.7306 186.462L106.423 189.519L110.497 207.527L100.355 207.137L97.5218 200.521V207.028L92.8418 206.848L90.1254 196.315L88.428 207.527L71.791 207.188L72.4703 193.936Z" fill="#2F2E41"/>
<path d="M286.307 83.0958L278.443 101.812L344.817 136.676L367.178 71.1914" fill="#F2F2F2"/>
<path d="M343.287 125.194L372.608 56.151L305.216 22.9648L276.913 90.3292L343.287 125.194Z" fill="#00B0FF"/>
<path d="M303.624 49.3673L303.13 50.335L354.15 76.4235L354.645 75.4558L303.624 49.3673Z" fill="white"/>
<path d="M299.799 58.5538L299.305 59.5215L350.325 85.61L350.819 84.6423L299.799 58.5538Z" fill="white"/>
</g>
<defs>
<clipPath id="clip0_935_6990">
<rect width="572" height="512" fill="white"/>
</clipPath>
</defs>
</svg>
