<svg width="903" height="516" viewBox="0 0 903 516" fill="none" xmlns="http://www.w3.org/2000/svg">
<g clip-path="url(#clip0_994_1301)">
<path d="M710.665 1.21515e-08H110.454C108.168 0.00224775 105.976 0.985166 104.36 2.73299C102.743 4.48082 101.834 6.85073 101.832 9.3225V449.062C101.834 451.534 102.743 453.904 104.36 455.651C105.976 457.399 108.168 458.382 110.454 458.385H710.665C711.912 458.385 713.143 458.092 714.275 457.527C715.407 456.962 716.412 456.139 717.221 455.113C717.29 455.033 717.352 454.947 717.409 454.856C717.924 454.176 718.34 453.416 718.645 452.601C719.079 451.48 719.301 450.277 719.297 449.062V9.32256C719.295 6.84905 718.384 4.47777 716.766 2.72973C715.147 0.98169 712.953 -0.00012612 710.665 1.21515e-08ZM716.835 449.062C716.836 450.363 716.482 451.635 715.817 452.718C715.226 453.672 714.424 454.451 713.483 454.985C712.612 455.471 711.646 455.724 710.665 455.722H110.454C108.821 455.72 107.255 455.018 106.1 453.769C104.946 452.521 104.296 450.828 104.294 449.062V9.32256C104.296 7.55675 104.946 5.86387 106.1 4.61524C107.255 3.36662 108.821 2.66421 110.454 2.66206H710.665C712.3 2.66184 713.868 3.36314 715.025 4.61197C716.182 5.86079 716.833 7.55502 716.835 9.32256V449.062Z" fill="#3F3D56"/>
<path d="M718.061 37.3633H103.061V40.0283H718.061V37.3633Z" fill="#3F3D56"/>
<path d="M124.012 27.9825C128.097 27.9825 131.407 24.4029 131.407 19.9873C131.407 15.5717 128.097 11.9922 124.012 11.9922C119.928 11.9922 116.618 15.5717 116.618 19.9873C116.618 24.4029 119.928 27.9825 124.012 27.9825Z" fill="#3F3D56"/>
<path d="M145.273 27.9825C149.357 27.9825 152.668 24.4029 152.668 19.9873C152.668 15.5717 149.357 11.9922 145.273 11.9922C141.189 11.9922 137.878 15.5717 137.878 19.9873C137.878 24.4029 141.189 27.9825 145.273 27.9825Z" fill="#3F3D56"/>
<path d="M166.533 27.9825C170.617 27.9825 173.927 24.4029 173.927 19.9873C173.927 15.5717 170.617 11.9922 166.533 11.9922C162.448 11.9922 159.138 15.5717 159.138 19.9873C159.138 24.4029 162.448 27.9825 166.533 27.9825Z" fill="#3F3D56"/>
<path d="M564.913 99.0542H256.403C252.994 99.0542 249.724 97.59 247.313 94.9836C244.903 92.3772 243.548 88.8421 243.548 85.156C243.548 81.47 244.903 77.9349 247.313 75.3285C249.724 72.7221 252.994 71.2578 256.403 71.2578H564.913C568.323 71.2578 571.592 72.7221 574.003 75.3285C576.414 77.9349 577.768 81.47 577.768 85.156C577.768 88.8421 576.414 92.3772 574.003 94.9836C571.592 97.59 568.323 99.0542 564.913 99.0542ZM256.403 73.396C253.518 73.396 250.752 74.635 248.712 76.8404C246.672 79.0459 245.526 82.0371 245.526 85.156C245.526 88.275 246.672 91.2662 248.712 93.4717C250.752 95.6771 253.518 96.9161 256.403 96.9161H564.913C567.798 96.9161 570.565 95.6771 572.604 93.4717C574.644 91.2662 575.79 88.275 575.79 85.156C575.79 82.0371 574.644 79.0459 572.604 76.8404C570.565 74.635 567.798 73.396 564.913 73.396H256.403Z" fill="#3F3D56"/>
<path d="M258.98 184.047H231.293C229.195 184.047 227.183 183.146 225.7 181.542C224.216 179.938 223.383 177.762 223.383 175.494C223.383 173.226 224.216 171.05 225.7 169.446C227.183 167.843 229.195 166.941 231.293 166.941H258.98C261.078 166.941 263.09 167.843 264.574 169.446C266.057 171.05 266.891 173.226 266.891 175.494C266.891 177.762 266.057 179.938 264.574 181.542C263.09 183.146 261.078 184.047 258.98 184.047Z" fill="#CCCCCC"/>
<path d="M291.611 212.912H231.293C229.195 212.912 227.183 212.011 225.7 210.407C224.216 208.803 223.383 206.628 223.383 204.359C223.383 202.091 224.216 199.916 225.7 198.312C227.183 196.708 229.195 195.807 231.293 195.807H291.611C293.709 195.807 295.721 196.708 297.205 198.312C298.688 199.916 299.522 202.091 299.522 204.359C299.522 206.628 298.688 208.803 297.205 210.407C295.721 212.011 293.709 212.912 291.611 212.912Z" fill="#CCCCCC"/>
<path d="M263.924 310.199H236.237C234.139 310.199 232.127 309.298 230.644 307.694C229.16 306.09 228.327 303.915 228.327 301.647C228.327 299.378 229.16 297.203 230.644 295.599C232.127 293.995 234.139 293.094 236.237 293.094H263.924C266.022 293.094 268.034 293.995 269.518 295.599C271.001 297.203 271.834 299.378 271.834 301.647C271.834 303.915 271.001 306.09 269.518 307.694C268.034 309.298 266.022 310.199 263.924 310.199Z" fill="#CCCCCC"/>
<path d="M296.555 339.064H236.237C234.139 339.064 232.127 338.163 230.644 336.559C229.16 334.955 228.327 332.78 228.327 330.512C228.327 328.243 229.16 326.068 230.644 324.464C232.127 322.86 234.139 321.959 236.237 321.959H296.555C298.653 321.959 300.665 322.86 302.148 324.464C303.632 326.068 304.465 328.243 304.465 330.512C304.465 332.78 303.632 334.955 302.148 336.559C300.665 338.163 298.653 339.064 296.555 339.064Z" fill="#CCCCCC"/>
<path d="M445.866 306.992H418.18C416.082 306.992 414.069 306.091 412.586 304.487C411.102 302.883 410.269 300.708 410.269 298.439C410.269 296.171 411.102 293.996 412.586 292.392C414.069 290.788 416.082 289.887 418.18 289.887H445.866C447.964 289.887 449.976 290.788 451.46 292.392C452.943 293.996 453.777 296.171 453.777 298.439C453.777 300.708 452.943 302.883 451.46 304.487C449.976 306.091 447.964 306.992 445.866 306.992Z" fill="#CCCCCC"/>
<path d="M478.497 335.857H418.18C416.082 335.857 414.069 334.956 412.586 333.352C411.102 331.748 410.269 329.573 410.269 327.305C410.269 325.036 411.102 322.861 412.586 321.257C414.069 319.653 416.082 318.752 418.18 318.752H478.497C480.595 318.752 482.607 319.653 484.091 321.257C485.574 322.861 486.408 325.036 486.408 327.305C486.408 329.573 485.574 331.748 484.091 333.352C482.607 334.956 480.595 335.857 478.497 335.857Z" fill="#CCCCCC"/>
<path d="M442.9 189.393H415.213C413.115 189.393 411.103 188.492 409.619 186.888C408.136 185.284 407.302 183.108 407.302 180.84C407.302 178.572 408.136 176.396 409.619 174.792C411.103 173.188 413.115 172.287 415.213 172.287H442.9C444.998 172.287 447.01 173.188 448.493 174.792C449.977 176.396 450.81 178.572 450.81 180.84C450.81 183.108 449.977 185.284 448.493 186.888C447.01 188.492 444.998 189.393 442.9 189.393Z" fill="#CCCCCC"/>
<path d="M475.53 218.258H415.213C413.115 218.258 411.103 217.357 409.619 215.753C408.136 214.149 407.302 211.973 407.302 209.705C407.302 207.437 408.136 205.261 409.619 203.657C411.103 202.053 413.115 201.152 415.213 201.152H475.53C477.628 201.152 479.641 202.053 481.124 203.657C482.608 205.261 483.441 207.437 483.441 209.705C483.441 211.973 482.608 214.149 481.124 215.753C479.641 217.357 477.628 218.258 475.53 218.258Z" fill="#CCCCCC"/>
<path d="M627.808 182.977H600.121C598.023 182.977 596.011 182.076 594.528 180.472C593.044 178.868 592.211 176.692 592.211 174.424C592.211 172.156 593.044 169.98 594.528 168.376C596.011 166.772 598.023 165.871 600.121 165.871H627.808C629.906 165.871 631.918 166.772 633.402 168.376C634.885 169.98 635.719 172.156 635.719 174.424C635.719 176.692 634.885 178.868 633.402 180.472C631.918 182.076 629.906 182.977 627.808 182.977Z" fill="#CCCCCC"/>
<path d="M660.439 211.844H600.121C598.023 211.844 596.011 210.943 594.528 209.339C593.044 207.735 592.211 205.559 592.211 203.291C592.211 201.023 593.044 198.847 594.528 197.243C596.011 195.639 598.023 194.738 600.121 194.738H660.439C662.537 194.738 664.549 195.639 666.033 197.243C667.516 198.847 668.35 201.023 668.35 203.291C668.35 205.559 667.516 207.735 666.033 209.339C664.549 210.943 662.537 211.844 660.439 211.844Z" fill="#CCCCCC"/>
<path d="M182.444 221.999C198.827 221.999 212.109 207.64 212.109 189.926C212.109 172.213 198.827 157.854 182.444 157.854C166.061 157.854 152.78 172.213 152.78 189.926C152.78 207.64 166.061 221.999 182.444 221.999Z" fill="#00B0FF"/>
<path d="M196.288 204.36H168.601C167.814 204.359 167.06 204.021 166.504 203.419C165.948 202.818 165.635 202.003 165.634 201.152V178.701C165.635 177.851 165.948 177.036 166.504 176.435C167.06 175.833 167.814 175.495 168.601 175.494H176.395C176.902 175.492 177.401 175.632 177.843 175.899C178.286 176.166 178.657 176.552 178.921 177.02L181.095 180.84H196.288C197.074 180.841 197.828 181.179 198.384 181.78C198.94 182.381 199.253 183.197 199.254 184.047V201.152C199.253 202.003 198.94 202.818 198.384 203.419C197.828 204.021 197.074 204.359 196.288 204.36ZM168.601 177.632C168.339 177.633 168.087 177.745 167.902 177.946C167.717 178.146 167.612 178.418 167.612 178.701V201.152C167.612 201.436 167.717 201.708 167.902 201.908C168.087 202.108 168.339 202.221 168.601 202.222H196.288C196.55 202.221 196.801 202.108 196.986 201.908C197.172 201.708 197.276 201.436 197.276 201.152V184.047C197.276 183.763 197.172 183.492 196.986 183.291C196.801 183.091 196.55 182.978 196.288 182.978H179.99L177.237 178.141C177.149 177.985 177.025 177.856 176.878 177.767C176.73 177.678 176.564 177.632 176.395 177.632H168.601Z" fill="white"/>
<path d="M364.386 227.345C380.769 227.345 394.051 212.985 394.051 195.272C394.051 177.559 380.769 163.199 364.386 163.199C348.003 163.199 334.722 177.559 334.722 195.272C334.722 212.985 348.003 227.345 364.386 227.345Z" fill="#00B0FF"/>
<path d="M377.241 215.585H351.532C350.745 215.584 349.991 215.245 349.435 214.644C348.879 214.043 348.566 213.228 348.565 212.377V178.166C348.566 177.316 348.879 176.501 349.435 175.899C349.991 175.298 350.745 174.96 351.532 174.959H370.161C370.836 174.96 371.492 175.209 372.019 175.666L379.099 181.818C379.446 182.117 379.726 182.498 379.918 182.931C380.109 183.364 380.209 183.838 380.208 184.318V212.377C380.207 213.228 379.894 214.043 379.338 214.644C378.782 215.245 378.028 215.584 377.241 215.585ZM351.532 177.097C351.27 177.098 351.018 177.21 350.833 177.411C350.648 177.611 350.543 177.883 350.543 178.166V212.377C350.543 212.661 350.648 212.932 350.833 213.133C351.018 213.333 351.27 213.446 351.532 213.446H377.241C377.503 213.446 377.755 213.333 377.94 213.133C378.125 212.932 378.23 212.661 378.23 212.377V184.318C378.23 184.158 378.197 184 378.133 183.856C378.069 183.711 377.976 183.584 377.861 183.485L370.779 177.333C370.604 177.18 370.386 177.097 370.161 177.097H351.532Z" fill="white"/>
<path d="M372.297 189.927H356.476C356.213 189.927 355.962 189.815 355.776 189.614C355.591 189.414 355.487 189.142 355.487 188.858C355.487 188.575 355.591 188.303 355.776 188.102C355.962 187.902 356.213 187.789 356.476 187.789H372.297C372.559 187.789 372.81 187.902 372.996 188.102C373.181 188.303 373.285 188.575 373.285 188.858C373.285 189.142 373.181 189.414 372.996 189.614C372.81 189.815 372.559 189.927 372.297 189.927Z" fill="white"/>
<path d="M372.297 196.341H356.476C356.213 196.341 355.962 196.229 355.776 196.028C355.591 195.828 355.487 195.556 355.487 195.272C355.487 194.989 355.591 194.717 355.776 194.516C355.962 194.316 356.213 194.203 356.476 194.203H372.297C372.559 194.203 372.81 194.316 372.996 194.516C373.181 194.717 373.285 194.989 373.285 195.272C373.285 195.556 373.181 195.828 372.996 196.028C372.81 196.229 372.559 196.341 372.297 196.341Z" fill="white"/>
<path d="M372.297 202.755H356.476C356.213 202.755 355.962 202.643 355.776 202.442C355.591 202.242 355.487 201.97 355.487 201.686C355.487 201.403 355.591 201.131 355.776 200.93C355.962 200.73 356.213 200.617 356.476 200.617H372.297C372.559 200.617 372.81 200.73 372.996 200.93C373.181 201.131 373.285 201.403 373.285 201.686C373.285 201.97 373.181 202.242 372.996 202.442C372.81 202.643 372.559 202.755 372.297 202.755Z" fill="white"/>
<path d="M547.317 220.931C563.7 220.931 576.981 206.571 576.981 188.858C576.981 171.145 563.7 156.785 547.317 156.785C530.934 156.785 517.652 171.145 517.652 188.858C517.652 206.571 530.934 220.931 547.317 220.931Z" fill="#00B0FF"/>
<path d="M561.16 200.618H533.473C532.687 200.617 531.933 200.279 531.377 199.677C530.821 199.076 530.508 198.261 530.507 197.41V180.305C530.508 179.455 530.821 178.639 531.377 178.038C531.933 177.437 532.687 177.099 533.473 177.098H561.16C561.947 177.099 562.701 177.437 563.257 178.038C563.813 178.639 564.126 179.455 564.127 180.305V197.41C564.126 198.261 563.813 199.076 563.257 199.677C562.701 200.279 561.947 200.617 561.16 200.618ZM533.473 179.236C533.211 179.236 532.96 179.349 532.774 179.549C532.589 179.75 532.485 180.021 532.484 180.305V197.41C532.485 197.694 532.589 197.966 532.774 198.166C532.96 198.367 533.211 198.479 533.473 198.48H561.16C561.422 198.479 561.674 198.367 561.859 198.166C562.044 197.966 562.149 197.694 562.149 197.41V180.305C562.149 180.021 562.044 179.75 561.859 179.549C561.674 179.349 561.422 179.236 561.16 179.236H533.473Z" fill="white"/>
<path d="M547.316 191.678C546.761 191.679 546.216 191.511 545.744 191.194L530.971 181.211C530.749 181.061 530.592 180.821 530.533 180.545C530.474 180.269 530.519 179.979 530.658 179.739C530.797 179.499 531.018 179.328 531.274 179.264C531.529 179.2 531.797 179.248 532.02 179.398L546.793 189.38C546.95 189.486 547.132 189.542 547.317 189.542C547.502 189.542 547.683 189.486 547.841 189.38L562.613 179.398C562.835 179.248 563.104 179.2 563.359 179.264C563.614 179.328 563.835 179.499 563.974 179.739C564.113 179.979 564.158 180.269 564.1 180.545C564.041 180.821 563.884 181.061 563.662 181.211L548.889 191.194C548.417 191.511 547.872 191.679 547.316 191.678Z" fill="white"/>
<path d="M182.444 348.151C198.827 348.151 212.109 333.792 212.109 316.079C212.109 298.365 198.827 284.006 182.444 284.006C166.061 284.006 152.78 298.365 152.78 316.079C152.78 333.792 166.061 348.151 182.444 348.151Z" fill="#00B0FF"/>
<path d="M196.288 327.84H168.601C167.814 327.839 167.06 327.501 166.504 326.9C165.948 326.299 165.635 325.483 165.634 324.633V307.528C165.635 306.677 165.948 305.862 166.504 305.261C167.06 304.659 167.814 304.321 168.601 304.32H196.288C197.074 304.321 197.828 304.659 198.384 305.261C198.94 305.862 199.253 306.677 199.254 307.528V324.633C199.253 325.483 198.94 326.299 198.384 326.9C197.828 327.501 197.074 327.839 196.288 327.84ZM168.601 306.458C168.339 306.459 168.087 306.572 167.902 306.772C167.716 306.972 167.612 307.244 167.612 307.528V324.633C167.612 324.917 167.716 325.188 167.902 325.389C168.087 325.589 168.339 325.702 168.601 325.702H196.288C196.55 325.702 196.801 325.589 196.986 325.389C197.172 325.188 197.276 324.917 197.276 324.633V307.528C197.276 307.244 197.172 306.972 196.986 306.772C196.801 306.572 196.55 306.459 196.288 306.458H168.601Z" fill="white"/>
<path d="M191.899 327.84H172C171.653 327.84 171.312 327.741 171.011 327.553C170.711 327.366 170.461 327.096 170.287 326.771C170.114 326.446 170.022 326.077 170.022 325.702C170.023 325.326 170.114 324.957 170.288 324.632L176.281 313.407C176.455 313.082 176.705 312.812 177.005 312.624C177.306 312.437 177.647 312.338 177.994 312.338C178.341 312.338 178.682 312.437 178.983 312.624C179.284 312.812 179.533 313.082 179.707 313.407L183.578 320.657L185.821 316.457C185.995 316.132 186.244 315.862 186.545 315.674C186.846 315.486 187.187 315.388 187.534 315.388C187.881 315.388 188.222 315.486 188.523 315.674C188.823 315.862 189.073 316.132 189.247 316.457L193.612 324.632C193.786 324.958 193.877 325.326 193.877 325.702C193.877 326.077 193.786 326.446 193.612 326.771C193.438 327.096 193.189 327.366 192.888 327.553C192.587 327.741 192.246 327.84 191.899 327.84H191.899ZM191.899 325.702L187.534 317.526L184.435 323.329C184.348 323.492 184.223 323.627 184.073 323.721C183.923 323.815 183.752 323.864 183.578 323.864C183.405 323.864 183.234 323.815 183.084 323.721C182.933 323.627 182.809 323.492 182.722 323.329L177.995 314.476L172 325.702H191.899Z" fill="white"/>
<path d="M193.321 312.872C194.413 312.872 195.299 311.915 195.299 310.734C195.299 309.553 194.413 308.596 193.321 308.596C192.229 308.596 191.343 309.553 191.343 310.734C191.343 311.915 192.229 312.872 193.321 312.872Z" fill="white"/>
<path d="M366.364 344.944C382.747 344.944 396.028 330.585 396.028 312.872C396.028 295.158 382.747 280.799 366.364 280.799C349.98 280.799 336.699 295.158 336.699 312.872C336.699 330.585 349.98 344.944 366.364 344.944Z" fill="#00B0FF"/>
<path d="M366.364 313.408C364.604 313.408 362.883 312.843 361.419 311.786C359.956 310.729 358.815 309.226 358.142 307.468C357.468 305.71 357.292 303.775 357.635 301.909C357.979 300.042 358.826 298.328 360.071 296.982C361.316 295.637 362.901 294.72 364.628 294.349C366.354 293.978 368.143 294.168 369.769 294.896C371.395 295.625 372.785 296.858 373.763 298.44C374.741 300.023 375.263 301.883 375.263 303.786C375.26 306.337 374.322 308.783 372.653 310.586C370.985 312.39 368.723 313.405 366.364 313.408ZM366.364 296.302C364.995 296.302 363.656 296.741 362.518 297.563C361.38 298.386 360.493 299.555 359.969 300.922C359.445 302.289 359.308 303.794 359.575 305.246C359.842 306.698 360.501 308.031 361.469 309.078C362.437 310.124 363.671 310.837 365.013 311.126C366.356 311.415 367.748 311.266 369.012 310.7C370.277 310.133 371.358 309.174 372.119 307.944C372.879 306.713 373.285 305.266 373.285 303.786C373.283 301.802 372.553 299.9 371.256 298.497C369.958 297.094 368.199 296.305 366.364 296.302Z" fill="white"/>
<path d="M374.275 331.581H358.454C357.536 331.58 356.656 331.186 356.008 330.484C355.359 329.783 354.994 328.832 354.993 327.84C354.993 324.579 356.191 321.452 358.323 319.146C360.456 316.84 363.348 315.545 366.364 315.545C369.38 315.545 372.272 316.84 374.405 319.146C376.537 321.452 377.735 324.579 377.735 327.84C377.734 328.832 377.369 329.783 376.721 330.484C376.072 331.186 375.192 331.58 374.275 331.581ZM366.364 317.683C363.874 317.686 361.486 318.757 359.725 320.661C357.964 322.565 356.973 325.147 356.97 327.84C356.971 328.265 357.127 328.672 357.405 328.973C357.683 329.274 358.06 329.443 358.454 329.443H374.275C374.668 329.443 375.045 329.274 375.323 328.973C375.601 328.672 375.757 328.265 375.758 327.84C375.755 325.147 374.764 322.565 373.003 320.661C371.242 318.757 368.855 317.686 366.364 317.683Z" fill="white"/>
<path d="M80.0318 503.754H92.1546L97.9214 453.199L80.0298 453.2L80.0318 503.754Z" fill="#FFB8B8"/>
<path d="M115.534 515.924L77.4344 515.926L77.4337 500.01L100.813 500.009C104.717 500.009 108.461 501.686 111.222 504.67C113.983 507.655 115.534 511.703 115.534 515.924L115.534 515.924Z" fill="#2F2E41"/>
<path d="M34.5464 503.754H46.6693L52.4361 453.199L34.5444 453.2L34.5464 503.754Z" fill="#FFB8B8"/>
<path d="M70.0488 515.924L31.949 515.926L31.9484 500.01L55.3278 500.009C59.2319 500.009 62.9761 501.686 65.7369 504.67C68.4976 507.655 70.0486 511.703 70.0488 515.924L70.0488 515.924Z" fill="#2F2E41"/>
<path d="M36.0267 353.185C37.3327 352.277 38.4387 351.07 39.2667 349.65C40.0947 348.229 40.6246 346.63 40.819 344.964C41.0134 343.298 40.8676 341.607 40.392 340.008C39.9163 338.41 39.1223 336.944 38.0658 335.713L46.048 213.24L23.0551 215.651L22.4236 335.589C20.629 337.645 19.5944 340.341 19.5156 343.167C19.4368 345.992 20.3195 348.751 21.9962 350.92C23.673 353.089 26.0274 354.518 28.6133 354.935C31.1992 355.353 33.837 354.73 36.0267 353.185H36.0267Z" fill="#FFB8B8"/>
<path d="M80.3932 478.293C79.3055 478.289 78.2565 477.856 77.4429 477.075C76.6293 476.295 76.1072 475.22 75.9745 474.053L68.9279 410.332C68.8288 409.435 68.4327 408.607 67.8128 408.001C67.1928 407.395 66.391 407.051 65.5554 407.035C64.7198 407.018 63.9068 407.329 63.2666 407.91C62.6264 408.491 62.2023 409.303 62.0726 410.195L53.196 471.206C53.0353 472.34 52.5031 473.374 51.6964 474.12C50.8896 474.866 49.8619 475.274 48.8004 475.269H34.4132C33.826 475.269 33.2446 475.143 32.7026 474.899C32.1605 474.655 31.6685 474.298 31.2549 473.847C30.8413 473.396 30.5142 472.862 30.2926 472.274C30.0709 471.686 29.9591 471.056 29.9635 470.422L36.8301 335.145C36.8326 333.993 37.2194 332.881 37.9194 332.013C38.6194 331.145 39.5856 330.579 40.6405 330.419L94.0302 322.04C94.6646 321.941 95.3113 321.991 95.9262 322.186C96.5411 322.382 97.1095 322.719 97.5928 323.175C98.076 323.63 98.4625 324.193 98.726 324.825C98.9894 325.456 99.1235 326.142 99.1191 326.835L98.1878 472.827C98.1799 474.058 97.7362 475.238 96.9479 476.125C96.1596 477.013 95.0867 477.54 93.9499 477.598L80.6045 478.286C80.5337 478.29 80.4633 478.293 80.3932 478.293Z" fill="#2F2E41"/>
<path d="M52.7135 340.256C47.578 340.235 42.4846 339.254 37.6579 337.358C36.8397 337.032 36.1291 336.451 35.6156 335.689C35.1021 334.927 34.8088 334.018 34.7726 333.076C34.312 322.025 31.6174 265.142 23.7725 230.444C22.2477 223.638 22.6206 216.496 24.8443 209.918C27.0679 203.34 31.0427 197.621 36.2676 193.482C36.6896 193.154 37.1198 192.832 37.5582 192.516C42.0954 189.251 47.3299 187.295 52.7638 186.834C58.1977 186.374 63.6502 187.424 68.6026 189.885C73.7188 192.361 78.164 196.21 81.5155 201.067C84.8669 205.925 87.013 211.628 87.7495 217.636L100.542 320.323C100.624 320.965 100.585 321.618 100.427 322.243C100.269 322.868 99.9947 323.452 99.6216 323.96C99.2566 324.463 98.8008 324.881 98.2817 325.189C97.7627 325.496 97.1913 325.686 96.6023 325.748C92.1695 326.226 82.9759 328.083 71.2096 335.152C65.5513 338.54 59.1818 340.298 52.7135 340.256Z" fill="#3F3D56"/>
<path d="M37.0735 255.135L16.021 248.963C14.8827 248.628 13.9139 247.818 13.3271 246.712C12.7402 245.605 12.5833 244.292 12.8907 243.061L20.2916 213.549C21.0843 210.387 22.9314 207.655 25.4769 205.879C28.0223 204.103 31.0858 203.409 34.0766 203.931C37.0673 204.452 39.7736 206.153 41.6736 208.704C43.5735 211.255 44.5325 214.476 44.3657 217.747L42.6809 250.756C42.6445 251.472 42.4606 252.17 42.1426 252.799C41.8247 253.428 41.3807 253.972 40.8432 254.392C40.3057 254.811 39.6883 255.096 39.0361 255.224C38.3839 255.353 37.7133 255.322 37.0735 255.135Z" fill="#3F3D56"/>
<path d="M60.509 175.942C73.9219 175.942 84.7953 164.186 84.7953 149.684C84.7953 135.182 73.9219 123.426 60.509 123.426C47.096 123.426 36.2227 135.182 36.2227 149.684C36.2227 164.186 47.096 175.942 60.509 175.942Z" fill="#FFB8B8"/>
<path d="M148.517 201.273C148.396 201.85 148.317 202.436 148.28 203.026L105.803 229.52L95.4788 223.094L84.4722 238.673L106.559 255.694L155.019 214.36C156.996 215.151 159.148 215.272 161.19 214.708C163.232 214.144 165.066 212.921 166.45 211.203C167.833 209.484 168.7 207.35 168.935 205.086C169.17 202.821 168.761 200.533 167.764 198.526C166.766 196.519 165.228 194.888 163.352 193.849C161.476 192.81 159.352 192.414 157.263 192.712C155.174 193.01 153.218 193.989 151.655 195.518C150.093 197.047 148.999 199.054 148.517 201.273V201.273Z" fill="#FFB8B8"/>
<path d="M102.283 230.799L83.9858 243.638C82.9954 244.331 81.7912 244.571 80.6374 244.305C79.4835 244.04 78.4742 243.29 77.8309 242.221L62.435 216.571C60.7858 213.824 60.1358 210.513 60.6104 207.278C61.085 204.043 62.6506 201.113 65.0053 199.052C67.3599 196.991 70.337 195.946 73.3622 196.118C76.3875 196.29 79.2468 197.667 81.3888 199.983L103.008 223.362C103.476 223.869 103.835 224.483 104.056 225.159C104.277 225.834 104.356 226.555 104.286 227.268C104.217 227.981 104.001 228.668 103.654 229.279C103.308 229.89 102.839 230.409 102.283 230.799Z" fill="#3F3D56"/>
<path d="M43.3227 170.457C47.8535 175.675 56.2676 172.874 56.858 165.745C56.9043 165.192 56.9009 164.635 56.848 164.082C56.5432 160.925 54.8559 158.058 55.2601 154.724C55.3515 153.894 55.6375 153.103 56.0908 152.426C59.7012 147.199 68.1763 154.764 71.5837 150.032C73.6731 147.131 71.2171 142.562 72.8204 139.32C74.9365 135.039 81.2044 137.151 85.135 134.807C89.5083 132.199 89.2467 124.944 86.3679 120.531C82.8571 115.15 76.7015 112.279 70.6226 111.865C64.5438 111.451 58.5068 113.228 52.8316 115.619C46.3834 118.336 39.9892 122.091 36.0211 128.221C31.1954 135.676 30.731 145.698 33.1444 154.415C34.6125 159.718 39.6229 166.196 43.3227 170.457Z" fill="#2F2E41"/>
<path d="M139.423 516H0.988815C0.726565 516 0.475055 515.887 0.289616 515.686C0.104178 515.486 0 515.214 0 514.93C0 514.647 0.104178 514.375 0.289616 514.174C0.475055 513.974 0.726565 513.861 0.988815 513.861H139.423C139.685 513.861 139.937 513.974 140.122 514.174C140.308 514.375 140.412 514.647 140.412 514.93C140.412 515.214 140.308 515.486 140.122 515.686C139.937 515.887 139.685 516 139.423 516Z" fill="#3F3D56"/>
</g>
<defs>
<clipPath id="clip0_994_1301">
<rect width="903" height="516" fill="white"/>
</clipPath>
</defs>
</svg>
