<svg width="705" height="556" viewBox="0 0 705 556" fill="none" xmlns="http://www.w3.org/2000/svg">
<g clip-path="url(#clip0_398_8632)">
<path d="M128.54 65.5776C127.215 65.7238 125.939 66.1587 124.8 66.8516C123.662 67.5445 122.689 68.4787 121.951 69.5882C121.212 70.6977 120.726 71.9556 120.527 73.2733C120.327 74.5911 120.419 75.9365 120.795 77.215L94.4385 96.0506L110.149 102.097L132.769 83.2834C134.875 82.5084 136.623 80.9879 137.683 79.01C138.742 77.0321 139.04 74.7342 138.518 72.5517C137.997 70.3692 136.693 68.4538 134.854 67.1685C133.015 65.8831 130.768 65.3171 128.54 65.5776L128.54 65.5776Z" fill="#FFB8B8"/>
<path d="M126.089 93.9486L93.3956 126.846C88.9151 131.326 83.0071 134.094 76.6979 134.67L36.3002 138.356C34.8192 138.497 33.3249 138.34 31.9056 137.894C30.4863 137.448 29.1708 136.722 28.0368 135.759C26.468 134.446 25.3015 132.717 24.6711 130.77C24.0408 128.824 23.9723 126.739 24.4734 124.756C24.9745 122.772 26.025 120.97 27.5041 119.557C28.9833 118.143 30.8311 117.176 32.8353 116.765L74.1061 107.977L111.68 80.2779C112.202 79.9839 112.793 79.8316 113.392 79.836C113.991 79.8405 114.579 80.0016 115.097 80.3033L125.315 88.6746C125.93 89.0115 126.424 89.5325 126.728 90.1644C127.031 90.7963 127.129 91.5074 127.008 92.198C126.889 92.8622 126.568 93.4736 126.089 93.9486Z" fill="#2F2E41"/>
<path d="M518.056 111.629C518.3 109.383 517.846 107.117 516.756 105.138C515.667 103.16 513.994 101.564 511.967 100.57L308.505 1.11894C307.211 0.48589 305.805 0.113897 304.368 0.0242112C302.93 -0.0654748 301.489 0.128895 300.127 0.596227C298.764 1.06356 297.507 1.7947 296.427 2.74791C295.347 3.70111 294.465 4.8577 293.832 6.15165L293.829 6.15929L217.517 162.305C216.244 164.92 216.059 167.934 217.004 170.686C217.949 173.437 219.946 175.702 222.557 176.983L426.019 276.433C428.634 277.707 431.648 277.892 434.399 276.947C437.15 276.002 439.414 274.005 440.695 271.393L517.007 115.247C517.564 114.111 517.919 112.887 518.056 111.629Z" fill="#A2A2A2" fill-opacity="0.63"/>
<path d="M398.861 458.195H134.86C131.536 458.191 128.349 456.869 125.999 454.519C123.649 452.168 122.327 448.982 122.323 445.658V87.2366C122.327 83.9126 123.649 80.7259 125.999 78.3755C128.349 76.0251 131.536 74.703 134.86 74.6992H398.861C402.185 74.703 405.372 76.0251 407.722 78.3755C410.072 80.7259 411.394 83.9126 411.398 87.2366V445.658C411.394 448.982 410.072 452.168 407.722 454.519C405.372 456.869 402.185 458.191 398.861 458.195Z" fill="white"/>
<path d="M204.882 181.577C214.394 181.577 222.106 173.865 222.106 164.352C222.106 154.839 214.394 147.127 204.882 147.127C195.369 147.127 187.658 154.839 187.658 164.352C187.658 173.865 195.369 181.577 204.882 181.577Z" fill="#E6E6E6"/>
<path d="M178.63 211.43C181.064 212.814 183.611 213.988 186.244 214.94L186.709 215.101C192.012 216.963 197.593 217.911 203.214 217.904C204.345 217.904 205.434 217.865 206.452 217.788C208.929 217.636 211.39 217.296 213.816 216.772C215.147 216.481 216.473 216.133 217.757 215.739C218.068 215.648 218.355 215.558 218.67 215.459C223.902 213.763 228.819 211.215 233.222 207.918C232.868 207.25 232.481 206.6 232.062 205.97C229.798 202.511 226.707 199.671 223.069 197.707C219.432 195.743 215.361 194.717 211.227 194.723H202.162C197.381 194.724 192.7 196.099 188.678 198.685C184.656 201.27 181.462 204.958 179.476 209.308C179.159 210.001 178.876 210.709 178.63 211.43Z" fill="#E6E6E6"/>
<path d="M210.727 216.343C210.148 216.386 209.591 216.581 209.113 216.909C211.543 216.758 213.959 216.423 216.339 215.906L210.727 216.343Z" fill="#2F2E41"/>
<path d="M205.926 117.607C194.833 117.609 184.05 121.272 175.252 128.029C166.453 134.786 160.132 144.258 157.267 154.976C154.403 165.694 155.157 177.058 159.411 187.303C163.666 197.549 171.183 206.104 180.797 211.639C183.349 213.117 186.028 214.364 188.802 215.365L189.273 215.529C194.624 217.407 200.255 218.364 205.926 218.357C207.023 218.357 208.12 218.321 209.198 218.239C211.695 218.086 214.177 217.743 216.623 217.215C217.992 216.916 219.333 216.562 220.602 216.172C220.911 216.082 221.2 215.991 221.518 215.891C232.919 212.177 242.622 204.518 248.882 194.29C255.142 184.063 257.549 171.937 255.67 160.094C253.791 148.25 247.75 137.465 238.632 129.677C229.513 121.89 217.917 117.61 205.926 117.607L205.926 117.607ZM235.152 205.719C230.806 209.073 225.915 211.652 220.693 213.344C220.412 213.434 220.122 213.525 219.832 213.616C218.626 213.987 217.357 214.314 216.052 214.595C213.738 215.1 211.389 215.427 209.026 215.574C208.002 215.646 206.959 215.683 205.926 215.683C200.558 215.686 195.228 214.782 190.161 213.008L189.717 212.854C186.958 211.862 184.299 210.612 181.776 209.119C172.988 203.945 166.091 196.088 162.099 186.703C158.106 177.318 157.229 166.9 159.596 156.98C161.963 147.06 167.45 138.16 175.249 131.589C183.048 125.018 192.75 121.123 202.927 120.474C213.104 119.826 223.221 122.46 231.791 127.988C240.361 133.516 246.932 141.648 250.538 151.187C254.145 160.727 254.596 171.172 251.827 180.988C249.057 190.803 243.213 199.472 235.152 205.719V205.719Z" fill="#CCCCCC"/>
<path d="M398.861 458.195H134.86C131.536 458.191 128.349 456.869 125.999 454.519C123.649 452.168 122.327 448.982 122.323 445.658V87.2366C122.327 83.9126 123.649 80.7259 125.999 78.3755C128.349 76.0251 131.536 74.703 134.86 74.6992H398.861C402.185 74.703 405.372 76.0251 407.722 78.3755C410.072 80.7259 411.394 83.9126 411.398 87.2366V445.658C411.394 448.982 410.072 452.168 407.722 454.519C405.372 456.869 402.185 458.191 398.861 458.195ZM134.86 76.1742C131.927 76.1775 129.115 77.3441 127.042 79.418C124.968 81.4918 123.801 84.3037 123.798 87.2366V445.658C123.801 448.591 124.968 451.402 127.042 453.476C129.115 455.55 131.927 456.717 134.86 456.72H398.861C401.794 456.717 404.606 455.55 406.679 453.476C408.753 451.402 409.92 448.591 409.923 445.658V87.2366C409.92 84.3037 408.753 81.4918 406.679 79.418C404.606 77.3441 401.794 76.1775 398.861 76.1742L134.86 76.1742Z" fill="#CCCCCC"/>
<path d="M347.754 167.788H273.05C271.483 167.788 269.98 167.166 268.871 166.057C267.763 164.949 267.14 163.446 267.14 161.878C267.14 160.311 267.763 158.807 268.871 157.699C269.98 156.59 271.483 155.968 273.05 155.968H347.754C349.321 155.968 350.824 156.59 351.933 157.699C353.041 158.807 353.664 160.311 353.664 161.878C353.664 163.446 353.041 164.949 351.933 166.057C350.824 167.166 349.321 167.788 347.754 167.788Z" fill="#E6E6E6"/>
<path d="M372.132 187.736H273.05C271.483 187.736 269.98 187.113 268.871 186.005C267.763 184.896 267.14 183.393 267.14 181.825C267.14 180.258 267.763 178.755 268.871 177.646C269.98 176.538 271.483 175.915 273.05 175.915H372.132C373.699 175.915 375.203 176.538 376.311 177.646C377.419 178.755 378.042 180.258 378.042 181.825C378.042 183.393 377.419 184.896 376.311 186.005C375.203 187.113 373.699 187.736 372.132 187.736Z" fill="#E6E6E6"/>
<path d="M347.645 264.243H161.589C160.021 264.243 158.518 263.62 157.41 262.511C156.302 261.403 155.679 259.9 155.679 258.332C155.679 256.765 156.302 255.261 157.41 254.153C158.518 253.045 160.021 252.422 161.589 252.422H347.645C349.212 252.422 350.715 253.045 351.824 254.153C352.932 255.261 353.555 256.765 353.555 258.332C353.555 259.9 352.932 261.403 351.824 262.511C350.715 263.62 349.212 264.243 347.645 264.243Z" fill="#E6E6E6"/>
<path d="M372.023 284.19H161.589C160.021 284.19 158.518 283.567 157.41 282.459C156.302 281.35 155.679 279.847 155.679 278.279C155.679 276.712 156.302 275.209 157.41 274.1C158.518 272.992 160.021 272.369 161.589 272.369H372.023C373.591 272.369 375.094 272.992 376.202 274.1C377.31 275.209 377.933 276.712 377.933 278.279C377.933 279.847 377.31 281.35 376.202 282.459C375.094 283.567 373.591 284.19 372.023 284.19Z" fill="#E6E6E6"/>
<path d="M347.645 330.036H161.589C160.021 330.036 158.518 329.414 157.41 328.305C156.302 327.197 155.679 325.694 155.679 324.126C155.679 322.559 156.302 321.055 157.41 319.947C158.518 318.839 160.021 318.216 161.589 318.216H347.645C349.212 318.216 350.715 318.839 351.824 319.947C352.932 321.055 353.555 322.559 353.555 324.126C353.555 325.694 352.932 327.197 351.824 328.305C350.715 329.414 349.212 330.036 347.645 330.036Z" fill="#E6E6E6"/>
<path d="M372.023 349.984H161.589C160.021 349.984 158.518 349.361 157.41 348.253C156.302 347.144 155.679 345.641 155.679 344.073C155.679 342.506 156.302 341.003 157.41 339.894C158.518 338.786 160.021 338.163 161.589 338.163H372.023C373.591 338.163 375.094 338.786 376.202 339.894C377.31 341.003 377.933 342.506 377.933 344.073C377.933 345.641 377.31 347.144 376.202 348.253C375.094 349.361 373.591 349.984 372.023 349.984Z" fill="#E6E6E6"/>
<path d="M347.645 395.83H161.589C160.021 395.83 158.518 395.208 157.41 394.099C156.302 392.991 155.679 391.488 155.679 389.92C155.679 388.353 156.302 386.849 157.41 385.741C158.518 384.632 160.021 384.01 161.589 384.01H347.645C349.212 384.01 350.715 384.632 351.824 385.741C352.932 386.849 353.555 388.353 353.555 389.92C353.555 391.488 352.932 392.991 351.824 394.099C350.715 395.208 349.212 395.83 347.645 395.83Z" fill="#E6E6E6"/>
<path d="M372.023 415.778H161.589C160.021 415.778 158.518 415.155 157.41 414.047C156.302 412.938 155.679 411.435 155.679 409.867C155.679 408.3 156.302 406.797 157.41 405.688C158.518 404.58 160.021 403.957 161.589 403.957H372.023C373.589 403.959 375.091 404.583 376.197 405.691C377.304 406.799 377.926 408.301 377.926 409.867C377.926 411.434 377.304 412.936 376.197 414.044C375.091 415.152 373.589 415.776 372.023 415.778Z" fill="#E6E6E6"/>
<path d="M508.991 214.073C509.235 211.828 508.781 209.561 507.691 207.583C506.602 205.604 504.929 204.009 502.901 203.014L299.44 103.563C298.146 102.93 296.74 102.558 295.303 102.469C293.865 102.379 292.424 102.573 291.061 103.041C289.699 103.508 288.442 104.239 287.362 105.192C286.282 106.145 285.4 107.302 284.767 108.596L284.763 108.604L208.452 264.749C207.179 267.365 206.994 270.379 207.939 273.13C208.883 275.881 210.881 278.146 213.492 279.427L416.954 378.878C419.569 380.151 422.582 380.336 425.334 379.391C428.085 378.446 430.349 376.449 431.63 373.837L507.941 217.692C508.499 216.556 508.854 215.331 508.991 214.073Z" fill="white"/>
<path d="M508.991 214.073C509.235 211.828 508.781 209.561 507.691 207.583C506.602 205.604 504.929 204.009 502.901 203.014L299.44 103.563C298.146 102.93 296.74 102.558 295.303 102.469C293.865 102.379 292.424 102.573 291.061 103.041C289.699 103.508 288.442 104.239 287.362 105.192C286.282 106.145 285.4 107.302 284.767 108.596L284.763 108.604L208.452 264.749C207.179 267.365 206.994 270.379 207.939 273.13C208.883 275.881 210.881 278.146 213.492 279.427L416.954 378.878C419.569 380.151 422.582 380.336 425.334 379.391C428.085 378.446 430.349 376.449 431.63 373.837L507.941 217.692C508.499 216.556 508.854 215.331 508.991 214.073ZM430.47 373.27C429.341 375.575 427.343 377.338 424.915 378.172C422.487 379.005 419.828 378.842 417.521 377.718L214.059 278.267C211.754 277.137 209.992 275.139 209.158 272.711C208.325 270.283 208.488 267.624 209.612 265.316L285.923 109.171C287.053 106.866 289.051 105.103 291.479 104.269C293.906 103.436 296.566 103.599 298.873 104.723L502.335 204.174C504.639 205.304 506.402 207.302 507.236 209.73C508.069 212.158 507.906 214.817 506.782 217.125L430.47 373.27Z" fill="#3F3D56"/>
<path d="M486.799 221.174L433.514 330.205C433.158 330.933 432.528 331.49 431.762 331.754C430.996 332.017 430.157 331.965 429.429 331.61H429.429L244.353 241.146C244.221 241.083 244.095 241.008 243.975 240.923C243.368 240.51 242.93 239.892 242.742 239.182C242.554 238.473 242.628 237.719 242.95 237.059L296.236 128.028C296.412 127.667 296.657 127.345 296.958 127.079C297.258 126.814 297.608 126.61 297.987 126.479C298.367 126.349 298.768 126.295 299.168 126.319C299.568 126.344 299.96 126.447 300.32 126.623L485.396 217.087C486.124 217.443 486.681 218.073 486.944 218.839C487.208 219.605 487.156 220.444 486.8 221.172V221.172L486.799 221.174Z" fill="#E6E6E6"/>
<path d="M324.316 215.636C339.119 215.636 351.119 203.635 351.119 188.831C351.119 174.027 339.119 162.026 324.316 162.026C309.513 162.026 297.513 174.027 297.513 188.831C297.513 203.635 309.513 215.636 324.316 215.636Z" fill="#10849E"/>
<path d="M363.561 299.955L245.429 242.213C245.28 242.143 245.138 242.059 245.005 241.962L348.176 172.487C348.811 172.051 349.551 171.792 350.32 171.735C351.089 171.679 351.858 171.827 352.551 172.166C353.243 172.504 353.834 173.021 354.261 173.662C354.689 174.303 354.939 175.047 354.985 175.816L360.74 259.094L361.017 263.079L363.561 299.955Z" fill="#3F3D56"/>
<path opacity="0.2" d="M363.561 299.956L323.228 280.241L357.084 261.157L359.522 259.783L360.74 259.095L361.017 263.08L363.561 299.956Z" fill="black"/>
<path d="M429.336 332.106L327.162 282.164L361.017 263.08L363.455 261.704L407.573 236.833C410.465 235.204 414.609 237.04 415.549 240.158C415.611 240.37 415.659 240.585 415.694 240.803L429.336 332.106Z" fill="#3F3D56"/>
<path d="M114.08 341.622L125.193 341.621L130.481 298.75L114.078 298.751L114.08 341.622Z" fill="#FFB8B8"/>
<path d="M111.245 337.994L133.132 337.993H133.133C134.965 337.993 136.778 338.354 138.471 339.055C140.163 339.756 141.701 340.783 142.996 342.079C144.291 343.374 145.318 344.912 146.019 346.604C146.72 348.296 147.081 350.11 147.081 351.942V352.396L111.246 352.397L111.245 337.994Z" fill="#2F2E41"/>
<path d="M27.6951 334.546L39.2097 336.798L53.3769 293.453L36.3832 290.129L27.6951 334.546Z" fill="#FFB8B8"/>
<path d="M25.4938 330.211L48.1699 334.647L48.1708 334.647C50.0685 335.018 51.8746 335.76 53.4858 336.829C55.097 337.899 56.4818 339.275 57.5612 340.879C58.6405 342.484 59.3933 344.285 59.7765 346.181C60.1597 348.076 60.1658 350.029 59.7945 351.927L59.7026 352.396L22.5752 345.133L25.4938 330.211Z" fill="#2F2E41"/>
<path d="M130.249 193.737C129.873 192.459 129.221 191.278 128.339 190.279C127.457 189.28 126.367 188.486 125.145 187.954C123.924 187.421 122.6 187.163 121.268 187.198C119.936 187.233 118.627 187.559 117.435 188.154L94.2693 165.508L91.073 182.037L113.561 201.008C114.694 202.945 116.497 204.399 118.63 205.096C120.763 205.792 123.077 205.682 125.134 204.785C127.191 203.889 128.848 202.27 129.791 200.233C130.734 198.197 130.897 195.886 130.249 193.737Z" fill="#FFB8B8"/>
<path d="M44.3025 77.1753C56.5992 77.1753 66.5676 67.2061 66.5676 54.9085C66.5676 42.6108 56.5992 32.6416 44.3025 32.6416C32.0058 32.6416 22.0374 42.6108 22.0374 54.9085C22.0374 67.2061 32.0058 77.1753 44.3025 77.1753Z" fill="#FFB8B8"/>
<path d="M39.6272 77.5167C40.8101 78.0344 43.2327 68.6073 42.1475 66.7219C40.5337 63.9178 40.6291 63.938 39.5578 62.0828C38.4864 60.2277 38.2467 57.6885 39.6341 56.0562C41.0214 54.4238 44.2319 54.6404 44.8651 56.687C44.4578 52.7997 48.3025 49.6749 52.1109 48.7968C55.9193 47.9187 59.9364 48.4638 63.7658 47.6824C68.21 46.7755 72.8339 43.05 71.0608 38.1626C70.7565 37.3488 70.3009 36.6001 69.7182 35.9558C67.6695 33.6522 64.8037 32.6686 62.0018 31.7175C56.1728 29.7389 50.1844 27.7355 44.0326 27.9539C38.9639 28.2189 34.0824 29.9559 29.9854 32.9523C25.8885 35.9487 22.7538 40.0745 20.965 44.8249C20.5411 46.0133 20.2126 47.2336 19.9828 48.4742C17.8713 59.8286 24.4644 71.0284 35.1727 75.3521L39.6272 77.5167Z" fill="#2F2E41"/>
<path d="M34.1605 199.838C33.5926 199.494 33.1375 198.992 32.8512 198.394C32.5649 197.795 32.4598 197.126 32.5489 196.468L22.5019 146.695L12.3176 108.496H12.3179C11.1998 104.31 11.5375 99.8686 13.2755 95.9C15.0135 91.9315 18.0486 88.6716 21.8828 86.6551L28.6156 80.2842L43.3034 86.6126L50.2827 93.7095C55.2886 96.1471 59.7291 99.6053 63.3189 103.862C66.9086 108.118 69.5681 113.078 71.1266 118.424L82.3206 156.732L108.172 195.196C108.604 195.837 108.806 196.605 108.745 197.375C108.684 198.146 108.364 198.873 107.837 199.438C104.241 203.307 34.1605 199.838 34.1605 199.838Z" fill="#2F2E41"/>
<path d="M101.89 196.302L63.77 169.884C58.5743 166.258 54.813 160.927 53.1394 154.816L42.4242 115.688C42.0253 114.255 41.9178 112.756 42.1079 111.281C42.298 109.805 42.782 108.382 43.5312 107.097C44.5487 105.322 46.0462 103.87 47.8517 102.908C49.6572 101.946 51.6975 101.513 53.7381 101.658C55.7787 101.804 57.7369 102.522 59.3877 103.73C61.0386 104.939 62.3151 106.588 63.0706 108.49L78.9615 147.582L112.82 179.717C113.201 180.18 113.455 180.734 113.555 181.325C113.656 181.916 113.601 182.523 113.395 183.086L106.946 194.615C106.722 195.28 106.296 195.857 105.727 196.267C105.159 196.677 104.476 196.898 103.775 196.9C103.1 196.899 102.442 196.69 101.89 196.302Z" fill="#2F2E41"/>
<path d="M22.6962 327.911C22.3845 327.464 22.1849 326.949 22.1143 326.409C22.0437 325.869 22.1041 325.32 22.2905 324.808L39.9256 260.694L41.2292 197.871L100.594 193.8L100.882 193.78L118.763 226.19C124.361 236.323 127.788 247.511 128.825 259.041L134.718 323.617C134.807 324.495 134.548 325.372 133.997 326.061C133.446 326.75 132.647 327.196 131.771 327.302L113.871 329.004C113.009 329.109 112.139 328.873 111.448 328.346C110.758 327.819 110.3 327.043 110.173 326.184L102.905 260.562L76.752 216.37L67.9732 262.895L49.7858 327.144C49.548 327.785 49.1207 328.339 48.5608 328.732C48.0009 329.125 47.3347 329.338 46.6508 329.343L25.438 329.352C24.8979 329.355 24.3655 329.225 23.8874 328.973C23.4093 328.722 23.0003 328.357 22.6962 327.911Z" fill="#2F2E41"/>
<path d="M477.252 538.775H29.9153C21.984 538.766 14.3801 535.611 8.77187 530.002C3.16361 524.393 0.00895915 516.789 0 508.857V263.171C0.00895915 255.239 3.16361 247.634 8.77187 242.025C14.3801 236.417 21.984 233.262 29.9153 233.253H84.7623C92.2042 233.246 99.38 236.021 104.883 241.031L164.361 283.506C168.239 287.05 173.303 289.013 178.556 289.008H480.03C483.995 289.008 487.921 289.797 491.579 291.328C495.237 292.859 498.554 295.102 501.337 297.926C504.12 300.751 506.315 304.101 507.792 307.781C509.269 311.461 510 315.398 509.942 319.363L507.164 509.295C507.017 517.142 503.805 524.621 498.215 530.13C492.625 535.64 485.101 538.742 477.252 538.775Z" fill="white"/>
<path d="M473.278 524.269H32.5617C28.7356 524.265 25.0674 522.743 22.362 520.037C19.6565 517.331 18.1347 513.663 18.1304 509.837V260.133C18.1347 256.306 19.6565 252.638 22.362 249.932C25.0675 247.226 28.7356 245.705 32.5617 245.7C35.9459 245.704 39.1903 247.05 41.5833 249.443C43.9762 251.836 45.3223 255.081 45.326 258.466V492.611C45.3301 496.197 46.7564 499.635 49.2919 502.171C51.8274 504.707 55.2651 506.133 58.8509 506.137H471.79C473.841 506.114 475.841 506.779 477.47 508.026C479.099 509.273 480.264 511.03 480.778 513.016C481.354 514.899 481.282 516.921 480.574 518.759C479.867 520.597 478.564 522.145 476.874 523.156C475.802 523.854 474.557 524.239 473.278 524.269Z" fill="#A2A2A2" fill-opacity="0.63"/>
<path d="M256.931 404.352L255.77 403.191C255.53 402.966 255.389 402.655 255.378 402.325C255.367 401.996 255.487 401.676 255.713 401.436C255.731 401.416 255.75 401.397 255.77 401.378L265.95 391.188C266.062 391.069 266.196 390.973 266.344 390.906C266.493 390.838 266.653 390.801 266.816 390.796C266.979 390.79 267.142 390.817 267.294 390.874C267.447 390.932 267.587 391.019 267.706 391.13C267.726 391.149 267.745 391.168 267.764 391.188L277.944 401.369C278.063 401.484 278.158 401.621 278.224 401.773C278.29 401.925 278.326 402.088 278.328 402.253C278.331 402.419 278.302 402.583 278.241 402.737C278.18 402.891 278.09 403.032 277.975 403.151L277.944 403.182L276.783 404.343C276.668 404.462 276.531 404.557 276.379 404.623C276.228 404.689 276.064 404.724 275.899 404.727C275.734 404.73 275.569 404.701 275.415 404.64C275.261 404.579 275.121 404.489 275.002 404.374L274.97 404.343L268.951 397.996V413.055C268.952 413.219 268.921 413.382 268.859 413.534C268.798 413.687 268.706 413.825 268.591 413.942C268.476 414.059 268.339 414.152 268.187 414.216C268.036 414.28 267.873 414.314 267.709 414.315L267.7 414.315H266.023C265.689 414.315 265.368 414.182 265.132 413.946C264.896 413.71 264.763 413.389 264.763 413.055V398.015L258.744 404.361C258.51 404.6 258.191 404.737 257.857 404.741C257.523 404.745 257.201 404.617 256.962 404.383L256.931 404.352Z" fill="#10849E"/>
<path d="M266.839 381.932C270.925 381.932 274.919 383.143 278.317 385.414C281.714 387.684 284.362 390.911 285.926 394.686C287.49 398.462 287.899 402.616 287.102 406.624C286.305 410.632 284.337 414.313 281.448 417.203C278.558 420.092 274.877 422.06 270.869 422.857C266.862 423.654 262.708 423.245 258.933 421.681C255.158 420.118 251.931 417.469 249.661 414.072C247.391 410.674 246.179 406.679 246.179 402.593C246.184 397.115 248.362 391.862 252.236 387.988C256.109 384.115 261.361 381.936 266.839 381.932ZM266.839 379.212C262.215 379.212 257.695 380.583 253.85 383.152C250.005 385.721 247.009 389.373 245.239 393.645C243.47 397.918 243.007 402.619 243.909 407.154C244.811 411.69 247.038 415.856 250.307 419.126C253.577 422.396 257.743 424.623 262.278 425.525C266.813 426.427 271.514 425.964 275.786 424.194C280.058 422.425 283.709 419.428 286.278 415.583C288.847 411.738 290.218 407.217 290.218 402.593C290.218 396.392 287.755 390.445 283.371 386.06C278.986 381.675 273.04 379.212 266.839 379.212Z" fill="#3F3D56"/>
<path d="M477.252 538.775H29.9153C21.984 538.766 14.3801 535.611 8.77187 530.002C3.16361 524.393 0.00895915 516.789 0 508.857V263.171C0.00895915 255.239 3.16361 247.634 8.77187 242.025C14.3801 236.417 21.984 233.262 29.9153 233.253H84.7623C92.2042 233.246 99.38 236.021 104.883 241.031L164.361 283.506C168.239 287.05 173.303 289.013 178.556 289.008H480.03C483.995 289.008 487.921 289.797 491.579 291.328C495.237 292.859 498.554 295.102 501.337 297.926C504.12 300.751 506.315 304.101 507.792 307.781C509.269 311.461 510 315.398 509.942 319.363L507.164 509.295C507.017 517.142 503.805 524.621 498.215 530.13C492.625 535.64 485.101 538.742 477.252 538.775ZM29.9153 235.066C22.4647 235.075 15.3217 238.038 10.0533 243.307C4.785 248.576 1.82151 255.719 1.81305 263.171V508.857C1.82151 516.308 4.785 523.452 10.0533 528.721C15.3217 533.989 22.4647 536.953 29.9153 536.962H477.252C484.625 536.931 491.693 534.017 496.945 528.841C502.196 523.665 505.213 516.64 505.351 509.268L508.129 319.337C508.184 315.612 507.497 311.913 506.109 308.456C504.722 304.999 502.661 301.852 500.046 299.199C497.431 296.546 494.315 294.439 490.879 293C487.443 291.562 483.755 290.822 480.03 290.822H178.556C172.87 290.826 167.386 288.708 163.179 284.882L103.701 242.407C98.5276 237.679 91.7709 235.06 84.7623 235.066H29.9153Z" fill="#3F3D56"/>
<path d="M515.163 543.557H504.049L500.576 500.687L515.165 500.687L515.163 543.557Z" fill="#FFB8B8"/>
<path d="M517.997 554.332L482.162 554.331V553.878C482.162 552.046 482.523 550.232 483.224 548.54C483.925 546.847 484.952 545.309 486.247 544.014C487.543 542.719 489.08 541.691 490.773 540.99C492.465 540.289 494.279 539.929 496.11 539.929H496.111L517.998 539.93L517.997 554.332Z" fill="#2F2E41"/>
<path d="M639.357 543.557H628.243L622.956 500.687L639.359 500.687L639.357 543.557Z" fill="#FFB8B8"/>
<path d="M642.191 554.332L606.356 554.331V553.878C606.356 552.046 606.717 550.232 607.418 548.54C608.119 546.847 609.146 545.309 610.441 544.014C611.736 542.719 613.274 541.691 614.966 540.99C616.659 540.289 618.472 539.929 620.304 539.929H620.305L642.192 539.93L642.191 554.332Z" fill="#2F2E41"/>
<path d="M602.814 411.027C604.348 409.229 605.213 406.955 605.261 404.592C605.309 402.228 604.538 399.921 603.078 398.062C602.782 397.706 602.457 397.375 602.107 397.072L610.478 366.165L596.526 370.794L590.716 399.434C589.752 401.2 589.325 403.21 589.489 405.215C589.653 407.221 590.4 409.135 591.638 410.721C592.286 411.577 593.118 412.276 594.072 412.768C595.027 413.259 596.079 413.529 597.152 413.559C598.226 413.588 599.291 413.376 600.271 412.938C601.251 412.499 602.12 411.847 602.814 411.027Z" fill="#FFB8B8"/>
<path d="M602.277 392.014C602.102 392.014 601.927 392.001 601.754 391.975L594.485 390.879C593.919 390.782 593.381 390.562 592.91 390.235C592.438 389.908 592.043 389.482 591.753 388.986C591.123 387.932 590.897 386.684 591.116 385.476L600.186 334.813L594.035 302.266C592.849 296.002 595.908 289.676 601.152 287.55C602.708 286.914 604.402 286.691 606.069 286.905C607.736 287.119 609.319 287.761 610.664 288.769C612.115 289.868 613.319 291.26 614.196 292.854C615.074 294.448 615.607 296.21 615.76 298.023L620.114 339.524L620.062 339.705L606.05 388.886C605.848 389.747 605.37 390.519 604.689 391.084C604.008 391.649 603.161 391.976 602.277 392.014Z" fill="#10849E"/>
<path d="M600.13 269.614C612.427 269.614 622.395 259.645 622.395 247.347C622.395 235.049 612.427 225.08 600.13 225.08C587.833 225.08 577.865 235.049 577.865 247.347C577.865 259.645 587.833 269.614 600.13 269.614Z" fill="#FFB8B8"/>
<path d="M588.73 350.853C588.176 350.853 587.626 350.75 587.109 350.551L551.917 337.014C550.964 336.65 550.163 335.975 549.642 335.098C549.122 334.221 548.914 333.194 549.051 332.184L550.464 321.583C549.626 317.825 549.703 313.921 550.689 310.199C551.675 306.477 553.541 303.046 556.13 300.196L556.987 299.254L567.399 280.266C568.104 278.98 569.057 277.846 570.203 276.929C571.348 276.013 572.664 275.333 574.074 274.927C575.484 274.522 576.96 274.4 578.418 274.568C579.875 274.737 581.285 275.192 582.565 275.907L600.952 286.183C603.372 287.533 605.199 289.741 606.074 292.37C608.548 299.816 608.365 307.888 605.555 315.213L592.966 347.947C592.633 348.8 592.051 349.534 591.296 350.052C590.54 350.57 589.646 350.849 588.73 350.853Z" fill="#10849E"/>
<path d="M496.503 533.032L496.455 533.023C495.855 532.907 495.284 532.671 494.777 532.33C494.271 531.988 493.838 531.547 493.506 531.034C493.174 530.521 492.949 529.946 492.845 529.344C492.741 528.741 492.759 528.124 492.9 527.529L519.868 409.636C524.283 390.947 530.382 372.697 538.091 355.108L549.564 328.947L592.375 348.493L598.488 359.674C603.254 372.126 605.705 385.345 605.719 398.678L649.219 526.174C649.432 526.796 649.506 527.457 649.437 528.112C649.369 528.766 649.158 529.397 648.821 529.962C648.484 530.526 648.028 531.011 647.485 531.382C646.941 531.752 646.324 532 645.675 532.109L621.862 531.839C621.637 531.88 621.409 531.899 621.181 531.897C620.278 531.898 619.396 531.627 618.649 531.121C617.902 530.614 617.325 529.894 616.992 529.055L567.265 400.15C567.194 399.979 567.073 399.834 566.917 399.733C566.761 399.633 566.578 399.582 566.393 399.588C566.212 399.591 566.036 399.65 565.89 399.757C565.743 399.863 565.633 400.012 565.575 400.184L518.392 529.731C518.03 530.738 517.322 531.583 516.394 532.117C515.466 532.65 514.379 532.835 513.327 532.641L496.503 533.032Z" fill="#2F2E41"/>
<path d="M529.059 388.053C530.315 387.607 531.457 386.89 532.406 385.954C533.355 385.018 534.087 383.886 534.55 382.636C535.014 381.387 535.198 380.051 535.09 378.722C534.981 377.394 534.583 376.105 533.923 374.948L555.247 350.56L538.567 348.285L520.875 371.793C519.004 373.031 517.651 374.913 517.075 377.081C516.498 379.25 516.736 381.554 517.745 383.559C518.754 385.563 520.463 387.128 522.548 387.956C524.633 388.784 526.95 388.819 529.059 388.053Z" fill="#FFB8B8"/>
<path d="M539.111 370.873C538.369 370.872 537.638 370.69 536.983 370.341L529.479 366.339C528.928 366.045 528.444 365.641 528.057 365.151C527.67 364.662 527.388 364.098 527.229 363.494C527.07 362.891 527.038 362.261 527.133 361.644C527.229 361.027 527.451 360.437 527.785 359.91L555.501 316.233L560.307 283.272C560.556 281.569 561.148 279.933 562.046 278.465C562.945 276.997 564.133 275.726 565.537 274.731C566.941 273.735 568.533 273.034 570.216 272.671C571.898 272.309 573.637 272.291 575.327 272.62C577.017 272.949 578.622 273.617 580.046 274.585C581.47 275.552 582.683 276.799 583.611 278.248C584.539 279.698 585.164 281.321 585.447 283.019C585.729 284.718 585.665 286.456 585.256 288.128L575.333 328.753L542.641 369.191C542.216 369.718 541.678 370.143 541.068 370.434C540.457 370.725 539.788 370.875 539.111 370.873Z" fill="#10849E"/>
<path d="M580.089 228.974C582.664 220.528 597.544 216.76 609.912 220.264C622.28 223.769 631.164 232.957 633.233 241.94C637.813 261.832 613.923 277.977 618.252 297.872C621.117 311.035 637.685 323.48 656.345 326.486C635.78 330.789 610.68 327.007 591.61 316.732C579.741 310.337 569.784 300.686 569.934 290.952C570.025 285.058 573.774 279.847 578.359 275.344C582.943 270.842 588.431 266.839 592.638 262.14C596.846 257.44 599.76 251.813 598.533 245.847C597.305 239.881 591.067 233.659 582.674 231.923L580.089 228.974Z" fill="#2F2E41"/>
<path d="M704.094 556H358.708C358.468 556 358.237 555.904 358.067 555.734C357.897 555.564 357.802 555.334 357.802 555.093C357.802 554.853 357.897 554.622 358.067 554.452C358.237 554.282 358.468 554.187 358.708 554.187H704.094C704.334 554.187 704.565 554.282 704.734 554.452C704.905 554.622 705 554.853 705 555.093C705 555.334 704.905 555.564 704.734 555.734C704.565 555.904 704.334 556 704.094 556Z" fill="#CCCCCC"/>
</g>
<defs>
<clipPath id="clip0_398_8632">
<rect width="705" height="556" fill="white"/>
</clipPath>
</defs>
</svg>
